<?xml version="1.0" encoding="UTF-8" standalone="no"?>
<!-- Created with Inkscape (http://www.inkscape.org/) -->

<svg
   width="230.0px"
   height="230.0px"
   viewBox="0 0 230.0 230.0"
   version="1.1"
   id="SVGRoot"
   inkscape:version="1.2.2 (1:1.2.2+202212051550+b0a8486541)"
   xmlns:inkscape="http://www.inkscape.org/namespaces/inkscape"
   xmlns="http://www.w3.org/2000/svg"
   xmlns:svg="http://www.w3.org/2000/svg">
  <defs
     id="defs8589">
    <clipPath
       clipPathUnits="userSpaceOnUse"
       id="clipPath4679">
      <path
         d="m 5470.45,17541.7 c 108.91,0 172.7,-29.6 191.37,-88.7 9.31,-24.9 14,-68.5 14,-130.7 0,-62.2 -20.27,-139.6 -60.71,-232.1 -40.44,-92.6 -89.05,-184 -145.79,-274.2 -56.8,-90.2 -113.95,-181.2 -171.52,-273 -136.9,-222.4 -205.32,-401.3 -205.32,-536.6 0,-34.2 -1.54,-59.5 -4.68,-75.9 -3.14,-16.3 -10.91,-33.4 -23.3,-51.3 -12.51,-17.9 -33.08,-29.9 -61.84,-36.2 -28.81,-6.2 -68.07,-9.3 -117.86,-9.3 -49.8,0 -89.05,3.1 -117.81,9.3 -28.81,6.3 -49.39,18.7 -61.84,37.4 -12.45,18.7 -19.8,36.1 -22.17,52.5 -2.32,16.3 -3.5,42.3 -3.5,78.1 0,101.1 17.13,204.9 51.35,311.5 34.2,106.6 75.41,201.9 123.67,285.9 48.2,84 96.4,161.3 144.66,232.2 48.2,70.7 89.41,131.3 123.67,181.9 34.16,50.5 51.3,86 51.3,106.2 h -531.95 c -62.24,0 -107.36,7.8 -135.35,23.3 -27.98,15.5 -46.66,38.1 -56.02,67.7 -9.31,29.5 -13.99,68.4 -13.99,116.6 0,48.2 4.68,87.1 13.99,116.7 9.36,29.5 24.13,49.8 44.35,60.7 32.66,18.6 77.78,28 135.35,28 z"
         id="path4677" />
    </clipPath>
    <linearGradient
       x1="0"
       y1="0"
       x2="1"
       y2="0"
       gradientUnits="userSpaceOnUse"
       gradientTransform="matrix(0,1707.97,1707.97,0,5056.32,15833.7)"
       spreadMethod="pad"
       id="linearGradient4693">
      <stop
         style="stop-opacity:1;stop-color:#900093"
         offset="0"
         id="stop4683" />
      <stop
         style="stop-opacity:1;stop-color:#900093"
         offset="0.0723023"
         id="stop4685" />
      <stop
         style="stop-opacity:1;stop-color:#fb31ff"
         offset="0.5"
         id="stop4687" />
      <stop
         style="stop-opacity:1;stop-color:#69006b"
         offset="0.85994529"
         id="stop4689" />
      <stop
         style="stop-opacity:1;stop-color:#69006b"
         offset="1"
         id="stop4691" />
    </linearGradient>
    <clipPath
       clipPathUnits="userSpaceOnUse"
       id="clipPath4703">
      <path
         d="m 2729.8,17541.7 c 108.91,0 172.7,-29.6 191.38,-88.7 9.31,-24.9 13.99,-68.5 13.99,-130.7 0,-62.2 -20.27,-139.6 -60.71,-232.1 -40.43,-92.6 -89.04,-184 -145.79,-274.2 -56.79,-90.2 -113.95,-181.2 -171.52,-273 -136.89,-222.4 -205.31,-401.3 -205.31,-536.6 0,-34.2 -1.55,-59.5 -4.69,-75.9 -3.13,-16.3 -10.9,-33.4 -23.3,-51.3 -12.5,-17.9 -33.08,-29.9 -61.84,-36.2 -28.81,-6.2 -68.06,-9.3 -117.86,-9.3 -49.79,0 -89.05,3.1 -117.81,9.3 -28.81,6.3 -49.38,18.7 -61.83,37.4 -12.45,18.7 -19.81,36.1 -22.18,52.5 -2.31,16.3 -3.49,42.3 -3.49,78.1 0,101.1 17.13,204.9 51.34,311.5 34.21,106.6 75.42,201.9 123.67,285.9 48.21,84 96.41,161.3 144.67,232.2 48.2,70.7 89.4,131.3 123.67,181.9 34.16,50.5 51.29,86 51.29,106.2 h -531.94 c -62.25,0 -107.37,7.8 -135.35,23.3 -27.99,15.5 -46.66,38.1 -56.03,67.7 -9.31,29.5 -13.99,68.4 -13.99,116.6 0,48.2 4.68,87.1 13.99,116.7 9.37,29.5 24.13,49.8 44.35,60.7 32.67,18.6 77.78,28 135.35,28 z"
         id="path4701" />
    </clipPath>
    <linearGradient
       x1="0"
       y1="0"
       x2="1"
       y2="0"
       gradientUnits="userSpaceOnUse"
       gradientTransform="matrix(0,1707.97,1707.97,0,2315.67,15833.7)"
       spreadMethod="pad"
       id="linearGradient4717">
      <stop
         style="stop-opacity:1;stop-color:#900093"
         offset="0"
         id="stop4707" />
      <stop
         style="stop-opacity:1;stop-color:#900093"
         offset="0.0723023"
         id="stop4709" />
      <stop
         style="stop-opacity:1;stop-color:#fb31ff"
         offset="0.5"
         id="stop4711" />
      <stop
         style="stop-opacity:1;stop-color:#69006b"
         offset="0.85994529"
         id="stop4713" />
      <stop
         style="stop-opacity:1;stop-color:#69006b"
         offset="1"
         id="stop4715" />
    </linearGradient>
    <clipPath
       clipPathUnits="userSpaceOnUse"
       id="clipPath4727">
      <path
         d="m 5470.45,17661.7 h -839.94 c -78.9,0 -142.28,-14.1 -193.7,-43.2 -33.2,-18.2 -76.96,-55.3 -100.39,-129.2 -13.21,-42 -19.6,-92 -19.6,-153 0,-61 6.39,-111 19.55,-152.7 18.65,-58.9 57.45,-106.1 112.21,-136.5 47.18,-26.2 108.7,-38.4 193.6,-38.4 h 326.26 c -20.98,-30.9 -43.79,-64.4 -68.44,-100.6 -49.91,-73.2 -100.23,-154 -149.58,-240 -52.16,-90.8 -97.2,-194.7 -133.85,-308.9 -37.88,-118 -57.09,-235.1 -57.09,-348.2 0,-42.2 1.49,-72.4 4.69,-95 4.99,-34.4 18.81,-68.7 41.14,-102.2 20.82,-31.2 61.39,-71.9 136.36,-88.1 37.34,-8 84.17,-12 143.13,-12 58.92,0 105.76,4 143.19,12 73.71,16 114.04,54.9 134.89,84.8 22.17,32 36.46,64.6 42.75,97.4 4.68,24.3 6.85,55.6 6.85,98.5 0,77.1 32.53,221.9 187.52,473.8 56.99,90.8 114.11,181.7 170.87,271.9 59.79,95.1 111.66,192.7 154.21,290.1 47.6,108.9 70.74,200.5 70.74,280.1 0,77.6 -6.34,130.1 -20.5,169.7 -25.74,78.1 -99.71,169.7 -304.87,169.7 z m 0,-120 c 108.91,0 172.7,-29.6 191.37,-88.7 9.31,-24.9 14,-68.5 14,-130.7 0,-62.2 -20.27,-139.6 -60.71,-232.1 -40.43,-92.6 -89.05,-184 -145.79,-274.2 -56.8,-90.2 -113.95,-181.2 -171.52,-273 -136.9,-222.4 -205.32,-401.3 -205.32,-536.6 0,-34.2 -1.54,-59.5 -4.68,-75.9 -3.14,-16.3 -10.91,-33.4 -23.3,-51.3 -12.5,-17.9 -33.08,-29.9 -61.84,-36.2 -28.81,-6.2 -68.06,-9.3 -117.86,-9.3 -49.8,0 -89.05,3.1 -117.81,9.3 -28.81,6.3 -49.39,18.7 -61.84,37.4 -12.44,18.7 -19.8,36.1 -22.17,52.5 -2.32,16.3 -3.5,42.3 -3.5,78.1 0,101.1 17.13,204.9 51.35,311.6 34.2,106.5 75.41,201.8 123.67,285.8 48.2,84 96.4,161.3 144.66,232.2 48.2,70.7 89.41,131.3 123.68,181.9 34.15,50.5 51.29,86 51.29,106.2 h -531.95 c -62.24,0 -107.36,7.8 -135.35,23.3 -27.98,15.5 -46.66,38.1 -56.02,67.7 -9.31,29.5 -13.99,68.4 -13.99,116.6 0,48.2 4.68,87.1 13.99,116.7 9.36,29.5 24.13,49.8 44.35,60.7 32.66,18.6 77.78,28 135.35,28 h 839.94"
         id="path4725" />
    </clipPath>
    <linearGradient
       x1="0"
       y1="0"
       x2="1"
       y2="0"
       gradientUnits="userSpaceOnUse"
       gradientTransform="matrix(0,1947.97,1947.97,0,5056.32,15713.7)"
       spreadMethod="pad"
       id="linearGradient4741">
      <stop
         style="stop-opacity:1;stop-color:#be6d00"
         offset="0"
         id="stop4731" />
      <stop
         style="stop-opacity:1;stop-color:#fff57f"
         offset="0.25008721"
         id="stop4733" />
      <stop
         style="stop-opacity:1;stop-color:#fff57f"
         offset="0.433036"
         id="stop4735" />
      <stop
         style="stop-opacity:1;stop-color:#be6d00"
         offset="0.78897242"
         id="stop4737" />
      <stop
         style="stop-opacity:1;stop-color:#be6d00"
         offset="1"
         id="stop4739" />
    </linearGradient>
    <clipPath
       clipPathUnits="userSpaceOnUse"
       id="clipPath4751">
      <path
         d="m 2729.8,17661.7 h -839.94 c -78.89,0 -142.27,-14.1 -193.68,-43.2 -33.2,-18.2 -76.98,-55.3 -100.4,-129.2 -13.22,-42 -19.61,-92 -19.61,-153 0,-61 6.4,-111 19.55,-152.7 18.66,-58.9 57.45,-106.1 112.22,-136.5 47.17,-26.2 108.69,-38.4 193.6,-38.4 h 326.25 c -20.98,-30.9 -43.79,-64.4 -68.43,-100.6 -49.92,-73.2 -100.24,-154 -149.59,-240 -52.15,-90.8 -97.2,-194.7 -133.85,-308.9 -37.88,-118 -57.08,-235.1 -57.08,-348.2 0,-42.2 1.49,-72.4 4.69,-95 4.98,-34.4 18.8,-68.7 41.14,-102.2 20.81,-31.2 61.37,-71.9 136.35,-88.1 37.34,-8 84.18,-12 143.14,-12 58.92,0 105.76,4 143.18,12 73.71,16 114.03,54.9 134.89,84.8 22.17,32 36.47,64.6 42.77,97.4 4.67,24.3 6.84,55.6 6.84,98.5 0,77.1 32.53,221.9 187.51,473.8 56.99,90.8 114.12,181.7 170.88,271.9 59.78,95.1 111.65,192.7 154.21,290.1 47.59,108.9 70.73,200.5 70.73,280.1 0,77.6 -6.33,130.1 -20.5,169.7 -25.74,78.1 -99.71,169.7 -304.87,169.7 z m 0,-120 c 108.91,0 172.7,-29.6 191.38,-88.7 9.31,-24.9 13.99,-68.5 13.99,-130.7 0,-62.2 -20.27,-139.6 -60.7,-232.1 -40.44,-92.6 -89.05,-184 -145.8,-274.2 -56.79,-90.2 -113.95,-181.2 -171.52,-273 -136.89,-222.4 -205.31,-401.3 -205.31,-536.6 0,-34.2 -1.55,-59.5 -4.69,-75.9 -3.13,-16.3 -10.9,-33.4 -23.3,-51.3 -12.5,-17.9 -33.08,-29.9 -61.84,-36.2 -28.81,-6.2 -68.06,-9.3 -117.85,-9.3 -49.8,0 -89.06,3.1 -117.82,9.3 -28.81,6.3 -49.38,18.7 -61.83,37.4 -12.45,18.7 -19.81,36.1 -22.18,52.5 -2.31,16.3 -3.49,42.3 -3.49,78.1 0,101.1 17.13,204.9 51.34,311.6 34.21,106.5 75.42,201.8 123.67,285.8 48.21,84 96.41,161.3 144.67,232.2 48.2,70.7 89.4,131.3 123.67,181.9 34.16,50.5 51.29,86 51.29,106.2 h -531.94 c -62.25,0 -107.37,7.8 -135.35,23.3 -27.99,15.5 -46.66,38.1 -56.02,67.7 -9.32,29.5 -14,68.4 -14,116.6 0,48.2 4.68,87.1 14,116.7 9.36,29.5 24.12,49.8 44.34,60.7 32.67,18.6 77.78,28 135.35,28 h 839.94"
         id="path4749" />
    </clipPath>
    <linearGradient
       x1="0"
       y1="0"
       x2="1"
       y2="0"
       gradientUnits="userSpaceOnUse"
       gradientTransform="matrix(0,1947.97,1947.97,0,2315.67,15713.7)"
       spreadMethod="pad"
       id="linearGradient4765">
      <stop
         style="stop-opacity:1;stop-color:#be6d00"
         offset="0"
         id="stop4755" />
      <stop
         style="stop-opacity:1;stop-color:#fff57f"
         offset="0.25008721"
         id="stop4757" />
      <stop
         style="stop-opacity:1;stop-color:#fff57f"
         offset="0.433036"
         id="stop4759" />
      <stop
         style="stop-opacity:1;stop-color:#be6d00"
         offset="0.78897242"
         id="stop4761" />
      <stop
         style="stop-opacity:1;stop-color:#be6d00"
         offset="1"
         id="stop4763" />
    </linearGradient>
    <clipPath
       clipPathUnits="userSpaceOnUse"
       id="clipPath4775">
      <path
         d="m 4232.2,18086.4 c 143.64,0 227.78,-39 252.41,-117 12.28,-32.8 18.46,-90.3 18.46,-172.3 0,-82 -26.74,-184.2 -80.07,-306.2 -53.33,-122.1 -117.45,-242.6 -192.29,-361.6 -74.91,-119 -150.29,-239 -226.22,-360 -180.55,-293.4 -270.8,-529.4 -270.8,-707.9 0,-45.1 -2.03,-78.4 -6.17,-100 -4.14,-21.5 -14.39,-44.1 -30.74,-67.7 -16.49,-23.6 -43.63,-39.5 -81.56,-47.7 -37.99,-8.2 -89.77,-12.3 -155.44,-12.3 -65.69,0 -117.46,4.1 -155.39,12.3 -37.99,8.2 -65.14,24.6 -81.55,49.3 -16.42,24.6 -26.13,47.7 -29.25,69.2 -3.05,21.5 -4.62,55.9 -4.62,103.1 0,133.3 22.6,270.3 67.72,410.8 45.13,140.6 99.47,266.2 163.12,377 63.58,110.8 127.15,212.8 190.8,306.3 63.57,93.2 117.93,173.2 163.12,239.9 45.05,66.7 67.64,113.4 67.64,140.1 h -701.58 c -82.11,0 -141.61,10.2 -178.53,30.7 -36.9,20.5 -61.54,50.3 -73.89,89.3 -12.28,39 -18.45,90.3 -18.45,153.8 0,63.6 6.17,114.9 18.45,153.9 12.35,39 31.82,65.7 58.49,80 43.09,24.7 102.6,37 178.52,37 z"
         id="path4773" />
    </clipPath>
    <linearGradient
       x1="0"
       y1="0"
       x2="1"
       y2="0"
       gradientUnits="userSpaceOnUse"
       gradientTransform="matrix(0,2252.69,2252.69,0,3685.99,15833.7)"
       spreadMethod="pad"
       id="linearGradient4789">
      <stop
         style="stop-opacity:1;stop-color:#900093"
         offset="0"
         id="stop4779" />
      <stop
         style="stop-opacity:1;stop-color:#900093"
         offset="0.0723023"
         id="stop4781" />
      <stop
         style="stop-opacity:1;stop-color:#fb31ff"
         offset="0.5"
         id="stop4783" />
      <stop
         style="stop-opacity:1;stop-color:#69006b"
         offset="0.85994529"
         id="stop4785" />
      <stop
         style="stop-opacity:1;stop-color:#69006b"
         offset="1"
         id="stop4787" />
    </linearGradient>
    <clipPath
       clipPathUnits="userSpaceOnUse"
       id="clipPath4799">
      <path
         d="M 4232.2,18206.4 H 3124.38 c -97.39,0 -174.87,-17 -236.83,-52.1 -37.6,-20.6 -87.41,-63 -114.56,-148.6 -16.22,-51.5 -24.07,-113.7 -24.07,-190.2 0,-76.5 7.85,-138.6 24.01,-189.9 21.6,-68.2 66.56,-122.8 130.08,-158.1 56.33,-31.2 131.56,-45.8 236.78,-45.8 h 502.55 c -38.11,-56.2 -81.74,-120.3 -130.89,-192.5 -65.28,-95.8 -131.13,-201.5 -195.72,-314 -67.46,-117.5 -125.77,-252.1 -173.29,-400.1 -48.75,-151.8 -73.46,-302.4 -73.46,-447.5 0,-53.9 1.84,-92 5.81,-119.9 5.73,-39.7 21.93,-79.6 48.19,-119 23.56,-35.3 69.74,-81.3 156.06,-100 46.55,-10.1 105.68,-15 180.74,-15 75.01,0 134.15,4.9 180.8,15 68.3,14.8 120.3,47.2 154.59,96.3 26.09,37.7 42.89,75.8 50.19,113.8 5.68,29.6 8.33,68.6 8.33,122.6 0,155.2 85.12,372.2 253,645 75.35,120.1 150.7,240 225.58,359 77.83,123.7 145.35,250.7 200.7,377.5 60.62,138.7 90.1,254.5 90.1,354.2 0,96.6 -7.94,164 -24.96,211.4 -29.86,91 -117.78,197.9 -365.91,197.9 z m 0,-120 c 143.64,0 227.78,-39 252.41,-117 12.28,-32.8 18.46,-90.3 18.46,-172.3 0,-82 -26.74,-184.2 -80.07,-306.2 -53.33,-122.1 -117.45,-242.6 -192.29,-361.6 -74.91,-119 -150.29,-239 -226.22,-360 -180.55,-293.4 -270.8,-529.4 -270.8,-707.9 0,-45.1 -2.03,-78.4 -6.17,-100 -4.14,-21.5 -14.39,-44.1 -30.74,-67.7 -16.49,-23.6 -43.63,-39.5 -81.56,-47.7 -37.99,-8.2 -89.77,-12.3 -155.44,-12.3 -65.68,0 -117.46,4.1 -155.39,12.3 -37.99,8.2 -65.13,24.6 -81.55,49.3 -16.42,24.6 -26.13,47.7 -29.25,69.2 -3.05,21.5 -4.61,55.9 -4.61,103.1 0,133.3 22.59,270.3 67.71,410.8 45.13,140.6 99.48,266.2 163.12,377 63.58,110.8 127.15,212.8 190.8,306.3 63.58,93.2 117.93,173.2 163.12,239.9 45.05,66.7 67.65,113.4 67.65,140.1 h -701.59 c -82.1,0 -141.61,10.2 -178.53,30.7 -36.9,20.5 -61.53,50.3 -73.89,89.3 -12.28,39 -18.45,90.3 -18.45,153.8 0,63.6 6.17,114.9 18.45,153.9 12.36,39 31.83,65.7 58.49,80 43.09,24.7 102.6,37 178.52,37 H 4232.2"
         id="path4797" />
    </clipPath>
    <linearGradient
       x1="0"
       y1="0"
       x2="1"
       y2="0"
       gradientUnits="userSpaceOnUse"
       gradientTransform="matrix(0,2492.69,2492.69,0,3685.99,15713.7)"
       spreadMethod="pad"
       id="linearGradient4813">
      <stop
         style="stop-opacity:1;stop-color:#be6d00"
         offset="0"
         id="stop4803" />
      <stop
         style="stop-opacity:1;stop-color:#fff57f"
         offset="0.25008721"
         id="stop4805" />
      <stop
         style="stop-opacity:1;stop-color:#fff57f"
         offset="0.433036"
         id="stop4807" />
      <stop
         style="stop-opacity:1;stop-color:#be6d00"
         offset="0.78897242"
         id="stop4809" />
      <stop
         style="stop-opacity:1;stop-color:#be6d00"
         offset="1"
         id="stop4811" />
    </linearGradient>
  </defs>
  <g
     inkscape:label="Layer 1"
     inkscape:groupmode="layer"
     id="layer1">
    <g
       id="g9991"
       transform="matrix(1.0571964,0,0,1.0571964,0.00888754,-61.15492)">
      <g
         id="g4673"
         transform="matrix(0.05051101,0,0,-0.05051101,-77.471365,1021.4126)">
        <g
           id="g4675"
           clip-path="url(#clipPath4679)">
          <g
             id="g4681"
             transform="scale(1.07618)">
            <path
               d="m 5083.22,16300 c 101.2,0 160.48,-27.5 177.83,-82.4 8.65,-23.1 13.01,-63.6 13.01,-121.4 0,-57.8 -18.84,-129.8 -56.42,-215.7 -37.57,-86.1 -82.74,-171 -135.47,-254.8 -52.78,-83.9 -105.88,-168.4 -159.37,-253.7 -127.21,-206.7 -190.79,-372.9 -190.79,-498.6 0,-31.8 -1.43,-55.3 -4.35,-70.5 -2.92,-15.2 -10.14,-31.1 -21.65,-47.7 -11.62,-16.7 -30.74,-27.8 -57.46,-33.6 -26.77,-5.8 -63.26,-8.7 -109.52,-8.7 -46.28,0 -82.75,2.9 -109.47,8.7 -26.77,5.8 -45.89,17.3 -57.46,34.7 -11.57,17.3 -18.4,33.6 -20.6,48.8 -2.16,15.1 -3.26,39.3 -3.26,72.6 0,93.9 15.92,190.4 47.72,289.4 31.78,99.1 70.07,187.6 114.91,265.6 44.79,78.1 89.58,150 134.42,215.8 44.79,65.7 83.09,122.1 114.92,169.1 31.74,46.9 47.67,79.8 47.67,98.6 h -494.3 c -57.83,0 -99.76,7.3 -125.76,21.7 -26,14.4 -43.36,35.4 -52.06,62.9 -8.65,27.4 -13,63.6 -13,108.4 0,44.8 4.35,80.9 13,108.4 8.7,27.4 22.42,46.3 41.21,56.3 30.35,17.4 72.28,26.1 125.77,26.1 h 780.48"
               style="fill:url(#linearGradient4693);fill-opacity:1;fill-rule:nonzero;stroke:none"
               id="path4695" />
          </g>
        </g>
      </g>
      <g
         id="g4697"
         transform="matrix(0.05051101,0,0,-0.05051101,-77.471365,1021.4126)">
        <g
           id="g4699"
           clip-path="url(#clipPath4703)">
          <g
             id="g4705"
             transform="scale(1.07618)">
            <path
               d="m 2536.57,16300 c 101.2,0 160.48,-27.5 177.83,-82.4 8.66,-23.1 13.01,-63.6 13.01,-121.4 0,-57.8 -18.84,-129.8 -56.42,-215.7 -37.57,-86.1 -82.73,-171 -135.47,-254.8 -52.77,-83.9 -105.88,-168.4 -159.38,-253.7 -127.2,-206.7 -190.78,-372.9 -190.78,-498.6 0,-31.8 -1.44,-55.3 -4.35,-70.5 -2.91,-15.2 -10.13,-31.1 -21.65,-47.7 -11.62,-16.7 -30.74,-27.8 -57.47,-33.6 -26.77,-5.8 -63.24,-8.7 -109.52,-8.7 -46.26,0 -82.74,2.9 -109.46,8.7 -26.77,5.8 -45.89,17.3 -57.46,34.7 -11.57,17.3 -18.41,33.6 -20.61,48.8 -2.15,15.1 -3.24,39.3 -3.24,72.6 0,93.9 15.92,190.4 47.7,289.4 31.79,99.1 70.09,187.6 114.92,265.6 44.8,78.1 89.59,150 134.43,215.8 44.79,65.7 83.07,122.1 114.92,169.1 31.74,46.9 47.66,79.8 47.66,98.6 h -494.29 c -57.85,0 -99.77,7.3 -125.77,21.7 -26.01,14.4 -43.36,35.4 -52.06,62.9 -8.65,27.4 -13,63.6 -13,108.4 0,44.8 4.35,80.9 13,108.4 8.7,27.4 22.42,46.3 41.21,56.3 30.35,17.4 72.27,26.1 125.77,26.1 h 780.48"
               style="fill:url(#linearGradient4717);fill-opacity:1;fill-rule:nonzero;stroke:none"
               id="path4719" />
          </g>
        </g>
      </g>
      <g
         id="g4721"
         transform="matrix(0.05051101,0,0,-0.05051101,-77.471365,1021.4126)">
        <g
           id="g4723"
           clip-path="url(#clipPath4727)">
          <g
             id="g4729"
             transform="scale(1.08354)">
            <path
               d="m 5048.69,16300 h -775.18 c -72.82,0 -131.32,-13 -178.77,-39.8 -30.64,-16.9 -71.03,-51.1 -92.65,-119.3 -12.19,-38.8 -18.09,-84.9 -18.09,-141.2 0,-56.3 5.9,-102.4 18.04,-140.9 17.21,-54.4 53.02,-98 103.56,-126 43.54,-24.2 100.32,-35.5 178.67,-35.5 h 301.11 c -19.36,-28.5 -40.42,-59.4 -63.16,-92.8 -46.07,-67.6 -92.51,-142.1 -138.05,-221.5 -48.14,-83.8 -89.71,-179.7 -123.53,-285 -34.96,-109 -52.69,-217.1 -52.69,-321.4 0,-39 1.37,-66.9 4.33,-87.7 4.6,-31.8 17.36,-63.4 37.97,-94.3 19.21,-28.8 56.65,-66.4 125.85,-81.3 34.46,-7.4 77.67,-11.1 132.09,-11.1 54.37,0 97.6,3.6 132.15,11.1 68.03,14.7 105.25,50.7 124.49,78.2 20.46,29.6 33.65,59.7 39.45,89.9 4.32,22.5 6.33,51.3 6.33,90.9 0,71.2 30.02,204.8 173.06,437.3 52.59,83.8 105.31,167.7 157.69,250.9 55.18,87.8 103.06,177.8 142.33,267.8 43.92,100.4 65.28,185 65.28,258.5 0,71.5 -5.85,120.1 -18.92,156.6 -23.75,72.1 -92.02,156.6 -281.36,156.6 z m 0,-110.7 c 100.51,0 159.38,-27.3 176.61,-81.9 8.59,-23 12.92,-63.2 12.92,-120.6 0,-57.4 -18.7,-128.9 -56.03,-214.2 -37.31,-85.5 -82.18,-169.8 -134.55,-253.1 -52.42,-83.3 -105.16,-167.2 -158.29,-251.9 -126.35,-205.3 -189.49,-370.4 -189.49,-495.3 0,-31.6 -1.42,-54.9 -4.32,-70 -2.9,-15 -10.07,-30.8 -21.51,-47.4 -11.53,-16.5 -30.52,-27.6 -57.07,-33.3 -26.59,-5.8 -62.81,-8.6 -108.77,-8.6 -45.96,0 -82.19,2.8 -108.73,8.6 -26.59,5.7 -45.58,17.2 -57.07,34.4 -11.48,17.3 -18.27,33.4 -20.46,48.5 -2.14,15 -3.23,39.1 -3.23,72.1 0,93.3 15.81,189.1 47.39,287.5 31.56,98.3 69.59,186.3 114.13,263.8 44.49,77.5 88.97,148.9 133.51,214.3 44.49,65.2 82.52,121.2 114.15,167.9 31.51,46.6 47.33,79.3 47.33,98 h -490.94 c -57.44,0 -99.08,7.2 -124.91,21.5 -25.82,14.3 -43.06,35.2 -51.7,62.5 -8.59,27.2 -12.91,63.1 -12.91,107.6 0,44.5 4.32,80.4 12.91,107.7 8.64,27.3 22.27,45.9 40.93,56 30.14,17.2 71.78,25.9 124.92,25.9 h 775.18"
               style="fill:url(#linearGradient4741);fill-opacity:1;fill-rule:nonzero;stroke:none"
               id="path4743" />
          </g>
        </g>
      </g>
      <g
         id="g4745"
         transform="matrix(0.05051101,0,0,-0.05051101,-77.471365,1021.4126)">
        <g
           id="g4747"
           clip-path="url(#clipPath4751)">
          <g
             id="g4753"
             transform="scale(1.08354)">
            <path
               d="m 2519.34,16300 h -775.19 c -72.8,0 -131.3,-13 -178.74,-39.8 -30.64,-16.9 -71.05,-51.1 -92.66,-119.3 -12.2,-38.8 -18.1,-84.9 -18.1,-141.2 0,-56.3 5.91,-102.4 18.04,-140.9 17.22,-54.4 53.02,-98 103.57,-126 43.53,-24.2 100.31,-35.5 178.67,-35.5 h 301.1 c -19.36,-28.5 -40.41,-59.4 -63.15,-92.8 -46.07,-67.6 -92.51,-142.1 -138.06,-221.5 -48.13,-83.8 -89.71,-179.7 -123.53,-285 -34.96,-109 -52.68,-217.1 -52.68,-321.4 0,-39 1.38,-66.9 4.33,-87.7 4.6,-31.8 17.35,-63.4 37.97,-94.3 19.2,-28.8 56.63,-66.4 125.83,-81.3 34.46,-7.4 77.69,-11.1 132.11,-11.1 54.38,0 97.61,3.6 132.14,11.1 68.03,14.7 105.24,50.7 124.49,78.2 20.46,29.6 33.66,59.7 39.47,89.9 4.31,22.5 6.31,51.3 6.31,90.9 0,71.2 30.03,204.8 173.06,437.3 52.59,83.8 105.32,167.7 157.7,250.9 55.18,87.8 103.04,177.8 142.33,267.8 43.92,100.4 65.27,185 65.27,258.5 0,71.5 -5.84,120.1 -18.92,156.6 -23.75,72.1 -92.02,156.6 -281.36,156.6 z m 0,-110.7 c 100.51,0 159.38,-27.3 176.62,-81.9 8.6,-23 12.91,-63.2 12.91,-120.6 0,-57.4 -18.71,-128.9 -56.02,-214.2 -37.32,-85.5 -82.18,-169.8 -134.55,-253.1 -52.42,-83.3 -105.17,-167.2 -158.3,-251.9 -126.34,-205.3 -189.48,-370.4 -189.48,-495.3 0,-31.6 -1.43,-54.9 -4.33,-70 -2.89,-15 -10.06,-30.8 -21.5,-47.4 -11.54,-16.5 -30.54,-27.6 -57.08,-33.3 -26.59,-5.8 -62.81,-8.6 -108.76,-8.6 -45.96,0 -82.19,2.8 -108.74,8.6 -26.59,5.7 -45.57,17.2 -57.06,34.4 -11.49,17.3 -18.28,33.4 -20.47,48.5 -2.13,15 -3.22,39.1 -3.22,72.1 0,93.3 15.81,189.1 47.38,287.5 31.57,98.3 69.61,186.3 114.14,263.8 44.49,77.5 88.97,148.9 133.51,214.3 44.48,65.2 82.51,121.2 114.14,167.9 31.52,46.6 47.33,79.3 47.33,98 h -490.93 c -57.45,0 -99.09,7.2 -124.91,21.5 -25.83,14.3 -43.06,35.2 -51.7,62.5 -8.6,27.2 -12.92,63.1 -12.92,107.6 0,44.5 4.32,80.4 12.92,107.7 8.64,27.3 22.26,45.9 40.92,56 30.15,17.2 71.78,25.9 124.91,25.9 h 775.19"
               style="fill:url(#linearGradient4765);fill-opacity:1;fill-rule:nonzero;stroke:none"
               id="path4767" />
          </g>
        </g>
      </g>
      <g
         id="g4769"
         transform="matrix(0.05051101,0,0,-0.05051101,-77.471365,1021.4126)">
        <g
           id="g4771"
           clip-path="url(#clipPath4775)">
          <g
             id="g4777"
             transform="scale(1.1096)">
            <path
               d="m 3814.18,16300 c 129.45,0 205.28,-35.2 227.48,-105.4 11.07,-29.6 16.64,-81.4 16.64,-155.4 0,-73.9 -24.1,-165.9 -72.16,-275.9 -48.06,-110 -105.85,-218.6 -173.3,-325.9 -67.51,-107.2 -135.44,-215.4 -203.88,-324.5 -162.71,-264.4 -244.05,-477 -244.05,-637.9 0,-40.6 -1.83,-70.7 -5.56,-90.1 -3.73,-19.4 -12.97,-39.8 -27.7,-61 -14.87,-21.3 -39.33,-35.6 -73.51,-43 -34.24,-7.4 -80.9,-11.1 -140.08,-11.1 -59.21,0 -105.86,3.7 -140.05,11.1 -34.24,7.4 -58.7,22.2 -73.49,44.4 -14.8,22.2 -23.55,43 -26.36,62.4 -2.75,19.4 -4.17,50.3 -4.17,92.9 0,120.2 20.37,243.6 61.04,370.3 40.67,126.6 89.64,239.9 147,339.7 57.3,99.9 114.59,191.8 171.96,276 57.29,84.1 106.28,156.2 147.01,216.3 40.6,60 60.96,102.1 60.96,126.2 h -632.29 c -74,0 -127.62,9.2 -160.89,27.7 -33.26,18.5 -55.47,45.3 -66.6,80.5 -11.07,35.1 -16.62,81.3 -16.62,138.6 0,57.3 5.55,103.5 16.62,138.7 11.13,35.1 28.68,59.2 52.71,72.1 38.84,22.2 92.47,33.3 160.89,33.3 h 998.4"
               style="fill:url(#linearGradient4789);fill-opacity:1;fill-rule:nonzero;stroke:none"
               id="path4791" />
          </g>
        </g>
      </g>
      <g
         id="g4793"
         transform="matrix(0.05051101,0,0,-0.05051101,-77.471365,1021.4126)">
        <g
           id="g4795"
           clip-path="url(#clipPath4799)">
          <g
             id="g4801"
             transform="scale(1.11696)">
            <path
               d="m 3789.04,16300 h -991.82 c -87.19,0 -156.55,-15.3 -212.03,-46.6 -33.66,-18.5 -78.25,-56.5 -102.56,-133.1 -14.52,-46.1 -21.55,-101.8 -21.55,-170.2 0,-68.6 7.03,-124.2 21.49,-170.1 19.34,-61 59.59,-110 116.46,-141.5 50.43,-28 117.79,-41 211.99,-41 h 449.93 c -34.12,-50.3 -73.18,-107.8 -117.19,-172.4 -58.44,-85.8 -117.4,-180.4 -175.22,-281.1 -60.4,-105.2 -112.6,-225.7 -155.15,-358.2 -43.64,-136 -65.77,-270.8 -65.77,-400.7 0,-48.2 1.65,-82.3 5.21,-107.3 5.13,-35.5 19.63,-71.3 43.14,-106.5 21.09,-31.7 62.44,-72.9 139.72,-89.6 41.67,-9 94.61,-13.4 161.81,-13.4 67.16,0 120.11,4.4 161.87,13.4 61.15,13.3 107.7,42.3 138.41,86.3 23.35,33.7 38.39,67.8 44.93,101.8 5.08,26.5 7.46,61.4 7.46,109.8 0,138.9 76.2,333.2 226.51,577.4 67.45,107.6 134.92,214.9 201.95,321.4 69.69,110.8 130.14,224.6 179.69,338.1 54.27,124.1 80.66,227.8 80.66,317 0,86.6 -7.11,146.8 -22.34,189.3 -26.74,81.4 -105.45,177.2 -327.6,177.2 z m 0,-107.4 c 128.6,0 203.93,-35 225.98,-104.8 11,-29.4 16.53,-80.8 16.53,-154.3 0,-73.4 -23.94,-164.8 -71.69,-274.1 -47.74,-109.3 -105.15,-217.2 -172.15,-323.7 -67.07,-106.6 -134.55,-214 -202.54,-322.4 -161.64,-262.6 -242.44,-473.9 -242.44,-633.7 0,-40.4 -1.82,-70.2 -5.52,-89.5 -3.71,-19.3 -12.89,-39.5 -27.52,-60.6 -14.77,-21.2 -39.07,-35.4 -73.02,-42.7 -34.01,-7.4 -80.37,-11 -139.17,-11 -58.8,0 -105.16,3.6 -139.12,11 -34.01,7.3 -58.3,22 -73.01,44 -14.7,22.1 -23.39,42.8 -26.18,62.1 -2.74,19.2 -4.13,50 -4.13,92.2 0,119.4 20.22,242 60.62,367.9 40.4,125.8 89.06,238.3 146.04,337.5 56.92,99.2 113.84,190.5 170.82,274.1 56.92,83.6 105.58,155.2 146.04,214.9 40.33,59.7 60.56,101.5 60.56,125.4 h -628.12 c -73.5,0 -126.78,9.2 -159.83,27.5 -33.04,18.4 -55.09,45 -66.16,79.9 -10.99,34.9 -16.52,80.8 -16.52,137.8 0,56.9 5.53,102.8 16.52,137.7 11.07,34.9 28.5,58.8 52.37,71.7 38.57,22 91.85,33.1 159.82,33.1 h 991.82"
               style="fill:url(#linearGradient4813);fill-opacity:1;fill-rule:nonzero;stroke:none"
               id="path4815" />
          </g>
        </g>
      </g>
      <g
         id="g4817"
         transform="matrix(0.0565597,0,0,-0.0565597,-77.471365,1021.4126)">
        <path
           d="m 3779.6,16300 h -989.35 c -94.19,0 -169.92,-16.9 -231.51,-51.8 -39.27,-21.5 -92.64,-66.2 -121.03,-155.8 -15.76,-50 -23.4,-109.6 -23.4,-182.1 0,-35.2 1.82,-67.2 5.54,-96.8 h -732.1 c -77.66,0 -140.78,-14.3 -192.95,-43.8 -35.39,-19.4 -83.35,-59.4 -108.42,-138.5 -13.06,-41.5 -19.4,-90.2 -19.4,-148.9 0,-58.7 6.32,-107.3 19.34,-148.6 19.85,-62.7 61.09,-112.9 119.24,-145.2 48.41,-26.9 109.61,-39.4 192.62,-39.4 h 214.56 l -17.9,-26.3 c -45.11,-66.2 -90.62,-139.2 -135.25,-217 -47.98,-83.5 -89.37,-179 -122.97,-283.6 -35.12,-109.5 -52.94,-218.3 -52.94,-323.4 0,-39.7 1.47,-68.5 4.61,-90.6 5.31,-36.8 19.83,-73.1 43.16,-108.1 22.75,-34.1 66.73,-78.5 146.99,-95.8 36.23,-7.9 80.85,-11.7 136.41,-11.7 55.56,0 100.19,3.8 136.46,11.7 78.71,17 122.39,59.5 145.19,92.1 23.05,33.3 38.08,67.8 44.78,102.6 4.67,24.3 6.84,54.7 6.84,95.6 0,52.1 20.98,173.6 161.44,401.8 50.7,80.8 101.7,162 152.38,242.5 54.46,86.6 101.75,175.6 140.57,264.5 44.79,102.5 66.57,189.6 66.57,266.4 0,17.6 -0.37,33.8 -1.11,48.9 11.69,-0.5 23.67,-0.8 36.04,-0.8 h 372.1 c -22.81,-33.5 -47.4,-69.6 -73.76,-108.3 -58.89,-86.5 -118.25,-181.7 -176.46,-283.2 -61.67,-107.3 -114.89,-230.2 -158.2,-365 -44.82,-139.7 -67.55,-278.3 -67.55,-412.1 0,-50.1 1.77,-86 5.59,-112.8 5.99,-41.5 22.62,-82.8 49.46,-123.1 25.19,-37.8 74.2,-86.9 164.59,-106.5 44.43,-9.6 100.04,-14.3 169.99,-14.3 69.91,0 125.53,4.7 170.06,14.3 71.35,15.5 126.12,50 162.8,102.5 26.54,38.3 43.81,77.7 51.39,117.2 5.58,29 8.18,66.3 8.18,117.2 0,130.9 73.99,317.5 219.91,554.7 67.1,106.9 134.39,214 201.24,320.2 0.81,1.3 1.62,2.6 2.44,3.9 14.37,-13.2 30.17,-24.6 47.33,-34.1 48.4,-26.9 109.6,-39.4 192.61,-39.4 h 214.57 l -17.9,-26.3 c -45.16,-66.3 -90.66,-139.3 -135.25,-217 -47.99,-83.6 -89.37,-179 -122.97,-283.6 -35.13,-109.5 -52.94,-218.3 -52.94,-323.4 0,-39.7 1.47,-68.5 4.6,-90.6 5.33,-36.8 19.84,-73.1 43.16,-108.1 22.77,-34.2 66.75,-78.5 147.01,-95.8 36.22,-7.9 80.83,-11.7 136.39,-11.7 55.56,0 100.19,3.8 136.46,11.7 78.72,17 122.41,59.5 145.21,92.1 23.03,33.3 38.06,67.7 44.76,102.5 4.67,24.4 6.85,54.8 6.85,95.7 0,52.1 20.97,173.6 161.44,401.8 50.7,80.8 101.7,162 152.38,242.5 54.46,86.6 101.75,175.6 140.57,264.5 44.78,102.5 66.56,189.6 66.56,266.4 0,74.3 -6.38,125.3 -20.69,165.3 -21.75,66 -91.51,178.4 -310.52,178.4 h -722.4 c 4.18,28.3 6.27,55.1 6.27,80.3 0,91.3 -7.84,155.6 -24.67,202.5 -30.29,92.4 -118.56,203.7 -365.02,203.7 z m 0,-40.6 c 221.58,0 300.11,-95.5 326.78,-176.8 15.2,-42.3 22.29,-102.5 22.29,-188.8 0,-37.8 -5.07,-78.4 -14.69,-121.9 7.17,0.3 13.86,1 21.32,1 h 750.12 c 183.23,0 249.28,-81.8 272.27,-151.5 12.65,-35.4 18.31,-82.3 18.31,-151.6 0,-71.1 -20.67,-152.9 -63.17,-250.1 -38,-87.1 -84.34,-174.2 -137.72,-259.1 -50.69,-80.6 -101.71,-161.7 -152.6,-242.9 -138.41,-224.9 -167.46,-354.2 -167.46,-423.1 0,-38.3 -1.94,-66.2 -6.12,-88 -5.62,-29.2 -18.39,-58.3 -38.18,-86.9 -18.62,-26.7 -54.64,-61.5 -120.47,-75.7 -33.42,-7.2 -75.25,-10.7 -127.88,-10.7 -52.65,0 -94.48,3.5 -127.81,10.7 -66.97,14.4 -103.19,50.8 -121.78,78.6 -19.94,29.9 -32.29,60.6 -36.74,91.3 -2.86,20.2 -4.19,47.1 -4.19,84.9 0,100.9 17.16,205.5 50.98,310.9 32.73,102 72.96,194.8 119.53,275.9 44.08,76.8 89.02,148.9 133.59,214.3 22.01,32.3 42.39,62.3 61.12,89.8 h -291.37 c -75.83,0 -130.77,10.9 -172.89,34.3 -30.39,16.9 -54.5,40.1 -72.98,67.5 -10.22,-17.1 -20.25,-34.2 -30.89,-51.1 -66.87,-106.3 -134.17,-213.4 -201.47,-320.6 -149.92,-243.7 -225.93,-437.5 -225.93,-576 0,-48.3 -2.37,-83.1 -7.44,-109.6 -6.52,-33.8 -21.52,-67.9 -44.82,-101.6 -30.63,-43.8 -77.07,-72.7 -138.06,-86 -41.66,-9 -94.48,-13.3 -161.48,-13.3 -67.02,0 -119.83,4.3 -161.4,13.3 -77.09,16.7 -118.34,57.8 -139.37,89.3 -23.46,35.2 -37.93,70.9 -43.04,106.3 -3.54,24.9 -5.19,58.9 -5.19,107.1 0,129.6 22.07,264 65.61,399.7 42.43,132.1 94.51,252.3 154.76,357.2 57.68,100.5 116.49,194.9 174.79,280.5 43.89,64.4 82.86,121.7 116.88,171.9 h -448.8 c -29.49,0 -56.07,1.4 -80.6,4 3.39,-25.7 5.03,-56 5.03,-92.8 0,-71.1 -20.66,-152.9 -63.17,-250.2 -38,-87 -84.32,-174.1 -137.72,-259 -50.68,-80.6 -101.7,-161.7 -152.6,-242.9 -138.4,-224.9 -167.45,-354.2 -167.45,-423.1 0,-38.3 -1.95,-66.2 -6.12,-88 -5.62,-29.2 -18.39,-58.3 -38.19,-86.9 -18.63,-26.7 -54.65,-61.5 -120.46,-75.7 -33.43,-7.2 -75.25,-10.7 -127.88,-10.7 -52.65,0 -94.48,3.5 -127.82,10.7 -66.97,14.4 -103.2,50.8 -121.78,78.6 -19.94,30 -32.28,60.6 -36.73,91.3 -2.87,20.2 -4.2,47.1 -4.2,84.9 0,100.9 17.15,205.5 50.99,310.9 32.73,102 72.95,194.8 119.53,275.9 44.07,76.8 89.01,148.9 133.59,214.3 22.01,32.3 42.38,62.3 61.11,89.8 h -291.36 c -75.83,0 -130.77,10.9 -172.89,34.3 -48.91,27.2 -83.56,69.3 -100.22,121.9 -11.75,37.3 -17.46,81.9 -17.46,136.4 0,54.5 5.71,99.1 17.51,136.6 20.92,66 60.02,99.2 89.67,115.5 45.91,25.9 102.51,38.5 172.96,38.5 h 750.12 c 10.53,0 20.57,-0.3 30.34,-0.9 -8.8,39.3 -13.26,84.7 -13.26,138.3 0,68.3 7,123.8 21.49,169.8 24.24,76.5 68.72,114.3 102.31,132.7 55.32,31.4 124.52,46.6 211.5,46.6 h 989.35"
           style="fill:#683600;fill-opacity:1;fill-rule:nonzero;stroke:none"
           id="path4819" />
      </g>
      <g
         id="g4821"
         transform="matrix(0.05621066,0,0,-0.05621066,-77.471365,1021.4126)">
        <path
           d="m 4092.91,16194 v 0 c -50.22,-16.4 -89.6,-55.8 -105.98,-106 -16.4,50.2 -55.77,89.6 -105.99,106 50.22,16.4 89.59,55.8 105.99,106 16.38,-50.2 55.76,-89.6 105.98,-106"
           style="fill:#ffffff;fill-opacity:1;fill-rule:nonzero;stroke:none"
           id="path4823" />
      </g>
      <g
         id="g4825"
         transform="matrix(0.05538027,0,0,-0.05538027,-77.471365,1021.4126)">
        <path
           d="m 4011.67,16225.6 v 0 c -35.25,-11.5 -62.88,-39.1 -74.39,-74.4 -11.51,35.3 -39.13,62.9 -74.38,74.4 35.25,11.5 62.87,39.1 74.38,74.4 11.51,-35.3 39.14,-62.9 74.39,-74.4"
           style="fill:#ffffff;fill-opacity:1;fill-rule:nonzero;stroke:none"
           id="path4827" />
      </g>
      <g
         id="g4829"
         transform="matrix(0.05435893,0,0,-0.05435893,-77.471365,1021.4126)">
        <path
           d="m 5314.79,16224.2 v 0 c -35.9,-11.7 -64.06,-39.9 -75.77,-75.8 -11.73,35.9 -39.88,64.1 -75.79,75.8 35.91,11.7 64.06,39.9 75.79,75.8 11.71,-35.9 39.87,-64.1 75.77,-75.8"
           style="fill:#ffffff;fill-opacity:1;fill-rule:nonzero;stroke:none"
           id="path4831" />
      </g>
    </g>
  </g>
</svg>
