<?xml version="1.0" encoding="UTF-8" standalone="no"?>
<!-- Created with Inkscape (http://www.inkscape.org/) -->

<svg
   width="103.08602mm"
   height="112.01233mm"
   viewBox="0 0 103.08602 112.01233"
   version="1.1"
   id="svg11697"
   inkscape:version="1.2.2 (1:1.2.2+202212051550+b0a8486541)"
   sodipodi:docname="arrow_right.svg"
   xmlns:inkscape="http://www.inkscape.org/namespaces/inkscape"
   xmlns:sodipodi="http://sodipodi.sourceforge.net/DTD/sodipodi-0.dtd"
   xmlns="http://www.w3.org/2000/svg"
   xmlns:svg="http://www.w3.org/2000/svg">
  <sodipodi:namedview
     id="namedview11699"
     pagecolor="#ffffff"
     bordercolor="#000000"
     borderopacity="0.25"
     inkscape:showpageshadow="2"
     inkscape:pageopacity="0.0"
     inkscape:pagecheckerboard="0"
     inkscape:deskcolor="#d1d1d1"
     inkscape:document-units="mm"
     showgrid="false"
     inkscape:zoom="0.77949635"
     inkscape:cx="210.39226"
     inkscape:cy="186.65899"
     inkscape:window-width="1848"
     inkscape:window-height="1016"
     inkscape:window-x="1992"
     inkscape:window-y="27"
     inkscape:window-maximized="1"
     inkscape:current-layer="layer1" />
  <defs
     id="defs11694">
    <clipPath
       clipPathUnits="userSpaceOnUse"
       id="clipPath7357">
      <path
         d="m 24150,3448.9 1.9,0.1 c 5.2,0 10.2,-2.2 13.8,-6 l 1023.1,-1099 c 3.2,-3.5 5,-8 5,-12.6 0,-1.9 0.4,-45.6 -4.9,-90.7 -8.2,-70.9 -25.6,-105.3 -54.8,-108.3 l -2.3,-0.2 c -5.1,-0.2 -10.1,1.7 -13.8,5.3 -3.7,3.6 -5.7,8.5 -5.7,13.6 0.5,36 -14.5,78.9 -29.5,112.6 0.6,-41.6 6.8,-101.6 29.6,-174.3 2.6,-8.2 -0.8,-17.1 -8.1,-21.6 -2.5,-1.5 -5.1,-2.4 -7.9,-2.7 -5.4,-0.5 -11,1.3 -15.1,5.3 -42.8,42.4 -60.7,95.6 -78,147 -6.5,19 -13,38.3 -20.8,57.4 -11.1,-47.7 -38,-86.8 -39.8,-89.4 -3.2,-4.6 -8.1,-7.4 -13.4,-7.9 -2.7,-0.3 -5.5,0 -8.1,0.9 -8,2.8 -13.1,10.5 -12.6,18.9 0.1,0.3 0.7,18.1 -8.2,50.8 -0.8,-28.4 -3.5,-48.9 -3.8,-51 -1.2,-8.6 -8.1,-15.2 -16.6,-16.1 l -1.5,-0.1 c -9.2,-0.2 -17.2,6.3 -18.9,15.3 -11.6,60.6 -52.9,110.7 -79.5,137.6 -16.8,-58.6 -54.1,-116.6 -56,-119.5 -3.2,-5 -8.4,-7.9 -13.8,-8.5 -4.1,-0.4 -8.3,0.5 -12,2.9 -8.7,5.6 -11.3,17.1 -5.8,25.8 1.1,1.8 24.4,42.2 -11.4,103.6 -9.1,-43.4 6.2,-123.9 23.6,-178.4 3,-9.2 -1.7,-19.2 -10.6,-23 -1.8,-0.7 -3.5,-1.2 -5.3,-1.3 -7.5,-0.8 -14.9,3 -18.6,9.9 -1.4,2.7 -33.8,64.8 -107,235.2 -18.2,-34 -0.8,-87.6 -0.6,-88.3 3.2,-9.7 -1.9,-20.1 -11.5,-23.6 -1.4,-0.5 -2.9,-0.8 -4.4,-1 -8.2,-0.8 -16.3,3.9 -19.4,12 -0.9,2.4 -19.7,52.7 -21.9,149.2 -35.9,-31.4 -90.5,-60.9 -136.7,-65.7 -25.2,-2.6 -46.3,2.1 -62.6,14.2 -5.8,4.2 -8.6,11.2 -7.4,18.2 1.2,7 6.2,12.8 13,14.8 35.1,10.6 58.5,29.4 71.7,57.4 20.7,44.1 10.9,100.9 1.3,135.6 -21.5,-29.5 -52.7,-80.1 -57.4,-130 -0.8,-8.1 -6.7,-14.8 -14.6,-16.6 l -2.2,-0.3 c -7.2,-0.8 -14.3,2.8 -18,9.1 -30.6,52 -21.2,136.8 -9.6,194 -44,-43.1 -96.3,-106.7 -97,-159 -0.1,-8 -5.3,-15.1 -12.9,-17.6 -1.3,-0.4 -2.6,-0.7 -3.9,-0.8 -6.5,-0.7 -12.9,2.1 -16.9,7.4 -85.3,113.2 -32.5,237.7 9.9,305.7 -19.8,-5.8 -43.1,-11.1 -67.3,-13.6 -50.3,-5.2 -91.2,3.2 -121.6,24.9 -6.3,4.6 -9.2,12.5 -7.2,20.1 2,7.5 8.4,13 16.2,13.8 35.3,3.7 76.1,40.8 111,82.2 -25.5,-15.7 -53.8,-29.9 -82.7,-38.3 -1.1,-0.3 -2.2,-0.5 -3.3,-0.6 -3.9,-0.4 -7.9,0.4 -11.3,2.4 -4.4,2.5 -7.6,6.7 -8.8,11.7 -1.9,7.3 -1.6,15.8 0.4,25.1 -16.8,-27.7 -33.1,-59.1 -47.8,-94.5 -2.7,-6.4 -8.6,-10.8 -15.4,-11.5 l -1.6,-0.1 c -7.4,-0.1 -14.2,4.1 -17.3,10.8 -52.9,113.8 25.8,272.2 71,347.7 -24.5,-6.3 -55.6,-13 -87.2,-16.2 -59.5,-6.2 -102.9,2 -128.7,24.1 -6.5,5.6 -8.4,14.8 -4.7,22.5 2.9,5.9 8.6,9.8 14.9,10.4 1.9,0.2 3.8,0.1 5.7,-0.3 9.6,-1.9 20.2,-2.3 31.6,-1.1 133.6,13.8 328.2,226 330.1,228.1 3.1,3.5 7.4,5.6 11.9,6.1 z"
         id="path7355" />
    </clipPath>
    <linearGradient
       x1="0"
       y1="0"
       x2="1"
       y2="0"
       gradientUnits="userSpaceOnUse"
       gradientTransform="matrix(697.565,1252.02,1252.02,-697.565,24139.3,2103)"
       spreadMethod="pad"
       id="linearGradient7369">
      <stop
         style="stop-opacity:1;stop-color:#95d543"
         offset="0"
         id="stop7361" />
      <stop
         style="stop-opacity:1;stop-color:#95d543"
         offset="0.00000027"
         id="stop7363" />
      <stop
         style="stop-opacity:1;stop-color:#318063"
         offset="0.70902885"
         id="stop7365" />
      <stop
         style="stop-opacity:1;stop-color:#318063"
         offset="1"
         id="stop7367" />
    </linearGradient>
    <clipPath
       clipPathUnits="userSpaceOnUse"
       id="clipPath7383">
      <path
         d="m 25117.6,2549.6 0.3,1.8 c 1.2,5.1 4.4,9.5 8.9,12.1 l 1297.5,755.7 c 4.1,2.3 8.9,3.1 13.4,2.1 1.8,-0.4 44.6,-9.7 87.4,-24.7 67.4,-23.7 97.1,-48.3 93.6,-77.4 l -0.4,-2.2 c -0.9,-5.1 -3.8,-9.5 -8.2,-12.3 -4.3,-2.9 -9.5,-3.8 -14.5,-2.6 -35,8.4 -80.1,3.3 -116.3,-3.9 40.7,-8.7 100.6,-15.8 176.5,-9.6 8.6,0.7 16.6,-4.6 19.3,-12.7 0.9,-2.7 1.2,-5.5 0.9,-8.2 -0.7,-5.5 -3.7,-10.5 -8.6,-13.6 -50.7,-32.4 -106.5,-38.2 -160.5,-43.8 -20,-2 -40.2,-4.1 -60.6,-7.5 44.1,-21.4 76.3,-56.2 78.5,-58.6 3.7,-4.1 5.3,-9.6 4.7,-14.8 -0.3,-2.7 -1.2,-5.3 -2.7,-7.7 -4.4,-7.2 -13.1,-10.5 -21.2,-8.1 -0.2,0.1 -17.5,4.6 -51.3,3.1 27.5,-7 46.9,-14.2 48.8,-14.9 8.2,-3 13.1,-11.3 12.1,-19.8 l -0.2,-1.4 c -1.8,-9 -9.9,-15.4 -19.1,-15.1 -61.6,2.1 -119.6,-27.2 -151.7,-47.2 53.4,-29.2 101.8,-78.5 104.2,-81 4.1,-4.2 5.8,-9.8 5.2,-15.3 -0.5,-4.1 -2.3,-8 -5.5,-11.1 -7.3,-7.2 -19.1,-7.2 -26.4,0.1 -1.5,1.4 -35.8,33.1 -103.6,11.7 40.4,-18.4 122.3,-21.3 179.2,-16.3 9.7,0.8 18.5,-5.9 20.1,-15.4 0.4,-1.9 0.4,-3.7 0.2,-5.5 -0.9,-7.4 -6.2,-13.9 -13.8,-15.9 -2.9,-0.8 -70.7,-18.7 -253,-52.5 29.2,-25.3 85.3,-20.2 86,-20.1 10.1,1 19.2,-6.3 20.5,-16.4 0.2,-1.5 0.2,-3 0,-4.5 -1,-8.2 -7.4,-15.1 -16,-16.3 -2.5,-0.4 -55.8,-7.6 -150.4,11.5 22.8,-41.9 39.5,-101.7 34,-147.8 -3,-25.1 -12.3,-44.6 -27.6,-58 -5.4,-4.6 -12.9,-5.9 -19.5,-3.2 -6.5,2.8 -11,9 -11.5,16 -2.6,36.5 -15.8,63.5 -40.2,82.6 -38.5,29.9 -96,32.9 -132,31.2 24.1,-27.5 66.5,-69.1 114.2,-84.7 7.7,-2.5 13,-9.8 12.9,-17.9 l -0.1,-2.2 c -0.9,-7.2 -5.9,-13.3 -12.9,-15.6 -57.4,-18.3 -138.1,9.5 -191.4,33.5 32.4,-52.4 83,-117.5 133.8,-129.7 7.8,-1.9 13.5,-8.5 14.3,-16.5 0.1,-1.4 0.1,-2.7 -0.1,-4 -0.8,-6.4 -4.8,-12.1 -10.9,-14.9 -129.2,-58.2 -239,20.8 -296,77.2 1.3,-20.7 1.3,-44.6 -1.6,-68.7 -6,-50.2 -23.2,-88.3 -51.1,-113.1 -5.8,-5.2 -14.2,-6.2 -21.1,-2.6 -7,3.6 -10.9,11.1 -10,18.8 4.2,35.2 -22.9,83.3 -55.6,126.4 9.6,-28.3 17.2,-59.1 19,-89.1 0.1,-1.2 0,-2.3 -0.1,-3.4 -0.4,-3.9 -2.1,-7.5 -4.8,-10.4 -3.4,-3.8 -8.2,-6 -13.3,-6.1 -7.6,-0.2 -15.8,2 -24.4,6 23.3,-22.6 50.3,-45.4 81.6,-67.5 5.6,-4 8.6,-10.8 7.8,-17.5 l -0.3,-1.6 c -1.4,-7.3 -7.1,-13 -14.4,-14.5 -122.5,-26.5 -259.7,85.2 -323.4,145.9 0.7,-25.3 0.4,-57.1 -3.4,-88.6 -7.1,-59.5 -24.6,-99.9 -51.9,-120.3 -6.9,-5.1 -16.3,-4.9 -23,0.4 -5.1,4.2 -7.6,10.6 -6.8,16.9 0.2,1.8 0.7,3.7 1.5,5.4 4,8.9 6.7,19.2 8.1,30.6 16,133.4 -148.2,369.9 -149.8,372.3 -2.7,3.8 -3.8,8.4 -3.3,13 z"
         id="path7381" />
    </clipPath>
    <linearGradient
       x1="0"
       y1="0"
       x2="1"
       y2="0"
       gradientUnits="userSpaceOnUse"
       gradientTransform="matrix(-1067.44,956.406,956.406,1067.44,26428,2242.4)"
       spreadMethod="pad"
       id="linearGradient7395">
      <stop
         style="stop-opacity:1;stop-color:#95d543"
         offset="0"
         id="stop7387" />
      <stop
         style="stop-opacity:1;stop-color:#95d543"
         offset="0.00000027"
         id="stop7389" />
      <stop
         style="stop-opacity:1;stop-color:#318063"
         offset="0.70902885"
         id="stop7391" />
      <stop
         style="stop-opacity:1;stop-color:#318063"
         offset="1"
         id="stop7393" />
    </linearGradient>
    <clipPath
       clipPathUnits="userSpaceOnUse"
       id="clipPath7409">
      <path
         d="m 24150,3856.3 1.9,-0.1 c 5.2,0 10.2,2.2 13.8,6 l 1023.1,1099 c 3.2,3.5 5,8 5,12.6 0,1.9 0.4,45.6 -4.9,90.7 -8.2,70.9 -25.6,105.3 -54.8,108.3 l -2.3,0.2 c -5.1,0.2 -10.1,-1.7 -13.8,-5.3 -3.7,-3.6 -5.7,-8.5 -5.7,-13.6 0.5,-36 -14.5,-78.8 -29.5,-112.6 0.6,41.6 6.8,101.6 29.6,174.3 2.6,8.2 -0.8,17.1 -8.1,21.6 -2.5,1.5 -5.1,2.4 -7.9,2.7 -5.4,0.5 -11,-1.3 -15.1,-5.4 -42.8,-42.3 -60.7,-95.5 -78,-146.9 -6.5,-19 -13,-38.3 -20.8,-57.4 -11.1,47.7 -38,86.8 -39.8,89.4 -3.2,4.6 -8.1,7.4 -13.4,7.9 -2.7,0.3 -5.5,0 -8.1,-0.9 -8,-2.8 -13.1,-10.5 -12.6,-18.9 0.1,-0.3 0.7,-18.1 -8.2,-50.8 -0.8,28.4 -3.5,48.9 -3.8,51 -1.2,8.6 -8.1,15.2 -16.6,16.1 l -1.5,0.1 c -9.2,0.2 -17.2,-6.3 -18.9,-15.3 -11.6,-60.6 -52.9,-110.7 -79.5,-137.6 -16.8,58.6 -54.1,116.6 -56,119.5 -3.2,5 -8.4,7.9 -13.8,8.5 -4.1,0.4 -8.3,-0.5 -12,-2.9 -8.7,-5.6 -11.3,-17.1 -5.8,-25.8 1.1,-1.8 24.4,-42.2 -11.4,-103.6 -9.1,43.4 6.2,123.9 23.6,178.4 3,9.2 -1.7,19.2 -10.6,23 -1.8,0.7 -3.5,1.2 -5.3,1.3 -7.5,0.8 -14.9,-3 -18.6,-9.9 -1.4,-2.7 -33.8,-64.8 -107,-235.2 -18.2,34 -0.8,87.7 -0.6,88.3 3.2,9.7 -1.9,20.2 -11.5,23.6 -1.4,0.5 -2.9,0.8 -4.4,1 -8.2,0.8 -16.3,-3.9 -19.4,-12 -0.9,-2.4 -19.7,-52.7 -21.9,-149.2 -35.9,31.4 -90.5,61 -136.7,65.7 -25.2,2.6 -46.3,-2.1 -62.6,-14.2 -5.8,-4.2 -8.6,-11.2 -7.4,-18.2 1.2,-7 6.2,-12.8 13,-14.8 35.1,-10.6 58.5,-29.4 71.7,-57.4 20.7,-44.1 10.9,-100.9 1.3,-135.6 -21.5,29.5 -52.7,80.1 -57.4,130 -0.8,8.1 -6.7,14.8 -14.6,16.6 l -2.2,0.3 c -7.2,0.8 -14.3,-2.7 -18,-9.1 -30.6,-52 -21.2,-136.8 -9.6,-194 -44,43.1 -96.3,106.7 -97,159 -0.1,8 -5.3,15.1 -12.9,17.6 -1.3,0.4 -2.6,0.7 -3.9,0.8 -6.5,0.7 -12.9,-2 -16.9,-7.4 -85.3,-113.2 -32.5,-237.7 9.9,-305.7 -19.8,5.8 -43.1,11.1 -67.3,13.6 -50.3,5.2 -91.2,-3.2 -121.6,-24.9 -6.3,-4.5 -9.2,-12.5 -7.2,-20.1 2,-7.5 8.4,-13 16.2,-13.8 35.3,-3.6 76.1,-40.7 111,-82.2 -25.5,15.7 -53.8,29.9 -82.7,38.3 -1.1,0.3 -2.2,0.5 -3.3,0.6 -3.9,0.4 -7.9,-0.4 -11.3,-2.4 -4.4,-2.5 -7.6,-6.7 -8.8,-11.7 -1.9,-7.3 -1.6,-15.8 0.4,-25 -16.8,27.6 -33.1,59 -47.8,94.4 -2.7,6.4 -8.6,10.8 -15.4,11.5 l -1.6,0.1 c -7.4,0.2 -14.2,-4.1 -17.3,-10.8 -52.9,-113.8 25.8,-272.2 71,-347.7 -24.5,6.3 -55.6,13 -87.2,16.2 -59.5,6.2 -102.9,-1.9 -128.7,-24.1 -6.5,-5.6 -8.4,-14.8 -4.7,-22.5 2.9,-5.9 8.6,-9.8 14.9,-10.4 1.9,-0.2 3.8,-0.1 5.7,0.3 9.6,1.9 20.2,2.3 31.6,1.1 133.6,-13.8 328.2,-226 330.1,-228.1 3.1,-3.5 7.4,-5.6 11.9,-6.1 z"
         id="path7407" />
    </clipPath>
    <linearGradient
       x1="0"
       y1="0"
       x2="1"
       y2="0"
       gradientUnits="userSpaceOnUse"
       gradientTransform="matrix(697.565,-1252.02,1252.02,697.565,24139.3,5202.2)"
       spreadMethod="pad"
       id="linearGradient7421">
      <stop
         style="stop-opacity:1;stop-color:#95d543"
         offset="0"
         id="stop7413" />
      <stop
         style="stop-opacity:1;stop-color:#95d543"
         offset="0.00000027"
         id="stop7415" />
      <stop
         style="stop-opacity:1;stop-color:#318063"
         offset="0.70902885"
         id="stop7417" />
      <stop
         style="stop-opacity:1;stop-color:#318063"
         offset="1"
         id="stop7419" />
    </linearGradient>
    <clipPath
       clipPathUnits="userSpaceOnUse"
       id="clipPath7435">
      <path
         d="m 25117.6,4755.6 0.3,-1.8 c 1.2,-5.1 4.4,-9.5 8.9,-12.1 L 26424.3,3986 c 4.1,-2.3 8.9,-3.1 13.4,-2.1 1.8,0.4 44.6,9.7 87.4,24.8 67.4,23.6 97.1,48.2 93.6,77.3 l -0.4,2.2 c -0.9,5.1 -3.8,9.5 -8.2,12.3 -4.3,2.9 -9.5,3.8 -14.5,2.6 -35,-8.4 -80.1,-3.2 -116.3,3.9 40.7,8.7 100.6,15.9 176.5,9.6 8.6,-0.7 16.6,4.6 19.3,12.7 0.9,2.7 1.2,5.5 0.9,8.2 -0.7,5.5 -3.7,10.5 -8.6,13.6 -50.7,32.4 -106.5,38.2 -160.5,43.8 -20,2 -40.2,4.1 -60.6,7.6 44.1,21.3 76.3,56.2 78.5,58.5 3.7,4.1 5.3,9.6 4.7,14.8 -0.3,2.7 -1.2,5.3 -2.7,7.7 -4.4,7.2 -13.1,10.5 -21.2,8.1 -0.2,-0.1 -17.5,-4.6 -51.3,-3.1 27.5,7 46.9,14.2 48.8,14.9 8.2,3 13.1,11.3 12.1,19.8 l -0.2,1.4 c -1.8,9 -9.9,15.4 -19.1,15.1 -61.6,-2.1 -119.6,27.2 -151.7,47.2 53.4,29.2 101.8,78.5 104.2,81 4.1,4.2 5.8,9.9 5.2,15.3 -0.5,4.1 -2.3,8 -5.5,11.1 -7.3,7.2 -19.1,7.2 -26.4,-0.1 -1.5,-1.4 -35.8,-33.1 -103.6,-11.7 40.4,18.4 122.3,21.3 179.2,16.3 9.7,-0.8 18.5,5.9 20.1,15.4 0.4,1.9 0.4,3.7 0.2,5.5 -0.9,7.4 -6.2,13.9 -13.8,15.9 -2.9,0.8 -70.7,18.7 -253,52.5 29.2,25.3 85.3,20.2 86,20.1 10.1,-1 19.2,6.3 20.5,16.4 0.2,1.5 0.2,3 0,4.5 -1,8.2 -7.4,15.1 -16,16.3 -2.5,0.4 -55.8,7.6 -150.4,-11.5 22.8,41.9 39.5,101.7 34,147.8 -3,25.1 -12.3,44.6 -27.6,58 -5.4,4.6 -12.9,5.9 -19.5,3.2 -6.5,-2.8 -11,-9 -11.5,-16 -2.6,-36.5 -15.8,-63.5 -40.2,-82.6 -38.5,-29.9 -96,-32.9 -132,-31.2 24.1,27.5 66.5,69.1 114.2,84.7 7.7,2.6 13,9.8 12.9,17.9 l -0.1,2.2 c -0.9,7.2 -5.9,13.3 -12.9,15.6 -57.4,18.3 -138.1,-9.5 -191.4,-33.5 32.4,52.4 83,117.5 133.8,129.7 7.8,1.9 13.5,8.5 14.3,16.5 0.1,1.4 0.1,2.7 -0.1,4 -0.8,6.4 -4.8,12.1 -10.9,14.9 -129.2,58.2 -239,-20.8 -296,-77.2 1.3,20.7 1.3,44.6 -1.6,68.7 -6,50.2 -23.2,88.3 -51.1,113.1 -5.8,5.2 -14.2,6.2 -21.1,2.6 -7,-3.6 -10.9,-11.1 -10,-18.8 4.2,-35.2 -22.9,-83.3 -55.6,-126.4 9.6,28.3 17.2,59.1 19,89.1 0.1,1.2 0,2.3 -0.1,3.4 -0.4,3.9 -2.1,7.5 -4.8,10.4 -3.4,3.8 -8.2,6 -13.3,6.1 -7.6,0.2 -15.8,-2 -24.4,-6 23.3,22.6 50.3,45.4 81.6,67.5 5.6,4 8.6,10.8 7.8,17.5 l -0.3,1.6 c -1.4,7.3 -7.1,13 -14.4,14.5 -122.5,26.5 -259.7,-85.2 -323.4,-145.9 0.7,25.3 0.4,57.1 -3.4,88.6 -7.1,59.5 -24.6,99.9 -51.9,120.3 -6.9,5.1 -16.3,4.9 -23,-0.4 -5.1,-4.2 -7.6,-10.6 -6.8,-16.9 0.2,-1.8 0.7,-3.6 1.5,-5.4 4,-8.9 6.7,-19.2 8.1,-30.7 16,-133.3 -148.2,-369.8 -149.8,-372.2 -2.7,-3.8 -3.8,-8.4 -3.3,-13 z"
         id="path7433" />
    </clipPath>
    <linearGradient
       x1="0"
       y1="0"
       x2="1"
       y2="0"
       gradientUnits="userSpaceOnUse"
       gradientTransform="matrix(-1067.44,-956.406,956.406,-1067.44,26428,5062.9)"
       spreadMethod="pad"
       id="linearGradient7447">
      <stop
         style="stop-opacity:1;stop-color:#95d543"
         offset="0"
         id="stop7439" />
      <stop
         style="stop-opacity:1;stop-color:#95d543"
         offset="0.00000027"
         id="stop7441" />
      <stop
         style="stop-opacity:1;stop-color:#318063"
         offset="0.70902885"
         id="stop7443" />
      <stop
         style="stop-opacity:1;stop-color:#318063"
         offset="1"
         id="stop7445" />
    </linearGradient>
    <clipPath
       clipPathUnits="userSpaceOnUse"
       id="clipPath7461">
      <path
         d="m 25224.7,2321.4 c -119.3,0 -219.9,129.6 -329.9,159.1 -25.5,6.8 -52.8,9 -81.1,9 -26.7,0 -54.2,-2 -81.7,-4 -27.5,-2 -54.9,-4 -81.4,-4 -44.2,0 -85.9,5.6 -121.1,25.9 -94.3,54.6 -120.3,199.6 -189.9,285.4 -5,6.3 -10.3,12.2 -15.9,17.7 -10.2,10.3 -21.7,19.6 -34.1,28.2 -39.3,27.5 -87.6,48.3 -133.4,71.1 -30.2,15 -59.4,30.9 -84.2,50 -20.8,16 -38.6,34.4 -51.4,56.5 -57.6,99.7 3.5,251.5 -27,365.3 -29.4,110 -159,210.6 -159,329.9 0,103 96.6,192.1 141.9,285.3 7.2,14.7 13.1,29.6 17.1,44.6 0.5,1.8 1,3.6 1.4,5.4 27.2,113.2 -31.1,261.8 25.6,359.9 20.8,35.9 54.6,61.8 93.3,84.1 -13.9,-12.4 -25.8,-26.2 -35,-42.1 -54.2,-93.6 3.2,-236.2 -25.4,-343.2 -3.5,-13.2 -8.6,-26.4 -14.9,-39.5 -17,-35.8 -42.2,-70.9 -66.2,-106.4 -35.5,-52.5 -68.3,-105.9 -68.3,-164.1 0,-2.4 0.1,-4.8 0.2,-7.2 -0.1,-2.4 -0.2,-4.8 -0.2,-7.3 0,-113.3 123.2,-208.9 151.1,-313.3 2.7,-10.2 4.7,-20.6 6,-31.3 4.7,-71.7 -12.5,-152.4 -4.5,-221.8 1.4,-29.5 6.4,-57.5 18.1,-82.4 v 0 c 1.8,-4 3.9,-7.8 6,-11.6 55.6,-96 210.1,-117.6 287.9,-195.4 78,-78 99.5,-232.5 195.5,-288 33.5,-19.3 73.2,-24.6 115.2,-24.6 25.2,0 51.2,1.9 77.3,3.8 26,1.9 52.2,3.7 77.5,3.7 26.9,0 52.9,-2.1 77,-8.5 104.6,-28 200.2,-151.1 313.5,-151.1 113.3,0 208.9,123.1 313.4,151.1 24.2,6.4 50.2,8.5 77,8.5 25.4,0 51.5,-1.8 77.6,-3.7 26.1,-1.9 52.1,-3.8 77.3,-3.8 42,0 81.7,5.3 115.1,24.6 96.1,55.5 117.6,210 195.5,288 69.9,69.8 201.4,94.3 267.7,168 7.7,8.4 14.5,17.5 20.2,27.4 19.1,33 24.5,72.2 24.7,113.6 0.1,77.4 -17.8,163.1 1,233.5 13.7,51.5 50.6,100.7 84.5,151.1 v 0 c 19.5,29 38,58.3 50.5,88.6 v 0 0 c 9.9,23.9 16.1,48.3 16.1,73.6 0,113.4 -123.2,209 -151.1,313.5 -28.9,108.1 29.1,252.3 -25.7,347 -15.7,27.1 -39.2,48.2 -66.7,66.4 -2.4,1.6 -4.8,3.1 -7.3,4.7 55.1,-27.4 106.4,-57.8 134.3,-105.9 56.7,-98.1 -1.6,-246.7 25.6,-359.9 0.4,-1.8 0.9,-3.6 1.4,-5.4 2,-7.8 4.7,-15.6 7.7,-23.4 11.8,-30.3 30.1,-59.9 50,-89.7 46.4,-69.5 101.3,-139.2 101.3,-216.8 0,-77.6 -54.9,-147.3 -101.3,-216.8 -19.9,-29.7 -38.2,-59.4 -50,-89.7 -3,-7.7 -5.7,-15.6 -7.7,-23.4 -30.5,-113.8 30.6,-265.6 -27,-365.3 -12.8,-22.1 -30.6,-40.5 -51.4,-56.5 -24.8,-19.1 -54,-35 -84.2,-50 -60.3,-30 -124.8,-56.6 -167.5,-99.3 -82.1,-82 -104.7,-244.6 -205.8,-303.1 -35.2,-20.3 -76.9,-25.9 -121.2,-25.9 -26.5,0 -53.9,2 -81.3,4 -27.5,2 -55,4 -81.7,4 -28.3,0 -55.6,-2.2 -81.1,-9 -43.6,-11.7 -85.7,-39.1 -128.1,-67.9 -16.6,-11.3 -33.2,-22.8 -50,-33.7 -48.5,-31.4 -98.3,-57.5 -151.8,-57.5 m 950.1,2252.9 c -35.5,18 -68.9,37.3 -94.2,62.7 -2.2,2.1 -4.3,4.4 -6.4,6.7 -72.7,79.7 -95.7,227.2 -189.1,281.2 -8.2,4.8 -16.9,8.7 -25.8,11.9 21.6,-3.8 42,-10.5 60.6,-21.2 101.1,-58.5 123.7,-221.1 205.8,-303.1 14.2,-14.3 31,-26.8 49.1,-38.2 m -1858.3,31.3 c 2.5,2.2 4.9,4.5 7.2,6.9 5.6,5.5 10.9,11.5 15.9,17.7 69.6,85.9 95.6,230.9 189.9,285.4 10.8,6.2 22.2,11.1 34.1,14.8 -2.2,-1.1 -4.4,-2.3 -6.6,-3.6 -95,-54.9 -116.3,-207.6 -193.3,-284.7 -13.7,-13.7 -29.7,-25.6 -47.2,-36.5 m 1183.7,359 c -90.2,42 -176,137 -275.5,137 -2.4,0 -4.9,0 -7.3,-0.1 -0.1,0 -0.3,0 -0.5,0 2.6,0.1 5.2,0.2 7.8,0.2 27.6,0 54.1,-7 80.1,-18 24.3,-10.4 48.2,-24.3 71.7,-39.6 16.8,-10.9 33.4,-22.4 50,-33.6 24.5,-16.7 49,-33 73.7,-45.9"
         id="path7459" />
    </clipPath>
    <linearGradient
       x1="0"
       y1="0"
       x2="1"
       y2="0"
       gradientUnits="userSpaceOnUse"
       gradientTransform="matrix(866.141,-1967.81,-1967.81,-866.141,24951.2,4332.9)"
       spreadMethod="pad"
       id="linearGradient7471">
      <stop
         style="stop-opacity:1;stop-color:#f8a45b"
         offset="0"
         id="stop7465" />
      <stop
         style="stop-opacity:1;stop-color:#562500"
         offset="0.70902877"
         id="stop7467" />
      <stop
         style="stop-opacity:1;stop-color:#562500"
         offset="1"
         id="stop7469" />
    </linearGradient>
    <clipPath
       clipPathUnits="userSpaceOnUse"
       id="clipPath7481">
      <path
         d="m 25224.7,2460.5 c -113.3,0 -208.9,123.1 -313.5,151.1 -24.1,6.4 -50.1,8.5 -77,8.5 -25.3,0 -51.5,-1.8 -77.5,-3.7 -26.1,-1.9 -52.1,-3.8 -77.3,-3.8 -42,0 -81.7,5.3 -115.2,24.6 -96,55.5 -117.5,210 -195.5,288 -77.8,77.8 -232.3,99.4 -287.9,195.4 -2.1,3.8 -4.2,7.6 -6,11.6 2.5,1.5 5,3 7.6,4.5 57.6,-90.1 205.7,-112.1 281.3,-187.6 77,-77.1 98.3,-229.8 193.3,-284.8 33.1,-19.1 72.3,-24.3 113.8,-24.3 24.9,0 50.7,1.9 76.5,3.7 25.8,1.9 51.7,3.8 76.8,3.8 26.5,0 52.2,-2.1 76.1,-8.5 103.3,-27.7 197.9,-149.5 310,-149.5 112,0 206.6,121.8 310,149.5 23.9,6.4 49.6,8.5 76.1,8.5 25.1,0 50.9,-1.9 76.7,-3.8 25.8,-1.8 51.6,-3.7 76.5,-3.7 41.6,0 80.8,5.2 113.9,24.3 94.9,55 116.2,207.7 193.2,284.7 77.1,77.2 229.9,98.5 284.8,193.4 54.2,93.7 -3.2,236.3 25.4,343.3 12,44.8 41.8,88.1 71.7,131.9 13.3,0.4 26.7,0.8 40.2,1.2 -33.9,-50.4 -70.8,-99.6 -84.5,-151.1 -18.8,-70.4 -0.9,-156.1 -1,-233.5 -0.2,-41.4 -5.6,-80.6 -24.7,-113.6 -5.7,-9.9 -12.5,-19 -20.2,-27.4 -66.3,-73.7 -197.8,-98.2 -267.7,-168 -77.9,-78 -99.4,-232.5 -195.5,-288 -33.4,-19.3 -73.1,-24.6 -115.1,-24.6 -25.2,0 -51.2,1.9 -77.3,3.8 -26.1,1.9 -52.2,3.7 -77.6,3.7 -26.8,0 -52.8,-2.1 -77,-8.5 -104.5,-28 -200.1,-151.1 -313.4,-151.1 m -1163.5,975.9 c -1.3,10.7 -3.3,21.1 -6,31.3 -27.9,104.4 -151.1,200 -151.1,313.3 0,2.5 0.1,4.9 0.2,7.3 5,-108.8 122.2,-201.6 149.2,-302.6 4.3,-15.8 6.6,-32.3 7.7,-49.3 m 2431.6,269.6 c 14.1,28.9 23.5,58.5 23.5,89.5 0,112.1 -121.9,206.7 -149.5,310 -28.6,107 28.8,249.6 -25.4,343.2 -15.5,26.9 -38.8,47.9 -66.2,65.9 -69.1,45.6 -163.3,72.2 -218.5,127.5 -3.6,3.5 -7,7.2 -10.1,11 -69.1,79.8 -92.6,221.3 -183.2,273.7 -21.9,12.7 -46.5,19.3 -72.7,22.3 24.2,-1.2 47.3,-4.7 68.6,-12.3 8.9,-3.2 17.6,-7.1 25.8,-11.9 93.4,-54 116.4,-201.5 189.1,-281.2 2.1,-2.3 4.2,-4.6 6.4,-6.7 25.3,-25.4 58.7,-44.7 94.2,-62.7 40.2,-20.2 83,-38.6 119.7,-61.7 2.5,-1.6 4.9,-3.1 7.3,-4.7 27.5,-18.2 51,-39.3 66.7,-66.4 54.8,-94.7 -3.2,-238.9 25.7,-347 27.9,-104.5 151.1,-200.1 151.1,-313.5 0,-25.3 -6.2,-49.7 -16.1,-73.6 v 0 c -11.5,-0.4 -23.6,-0.9 -36.4,-1.4 m -923.4,1238.5 c -17,1.1 -33.6,3.5 -49.3,7.7 -101.1,27.1 -193.8,144.2 -302.7,149.3 2.4,0.1 4.9,0.1 7.3,0.1 99.5,0 185.3,-95 275.5,-137 12.5,-5.9 25.1,-10.7 37.9,-14.1 10.1,-2.7 20.6,-4.6 31.3,-6"
         id="path7479" />
    </clipPath>
    <linearGradient
       x1="0"
       y1="0"
       x2="1"
       y2="0"
       gradientUnits="userSpaceOnUse"
       gradientTransform="matrix(-2666.8,2034.29,2034.29,2666.8,27334.4,2171.7)"
       spreadMethod="pad"
       id="linearGradient7491">
      <stop
         style="stop-opacity:1;stop-color:#f8a45b"
         offset="0"
         id="stop7485" />
      <stop
         style="stop-opacity:1;stop-color:#96440c"
         offset="0.83257708"
         id="stop7487" />
      <stop
         style="stop-opacity:1;stop-color:#96440c"
         offset="1"
         id="stop7489" />
    </linearGradient>
    <clipPath
       clipPathUnits="userSpaceOnUse"
       id="clipPath7501">
      <path
         d="m 25210.2,2489.5 c -112.1,0 -206.7,121.8 -310,149.5 -23.9,6.4 -49.6,8.5 -76.1,8.5 -25.1,0 -51,-1.9 -76.8,-3.8 -25.8,-1.8 -51.6,-3.7 -76.5,-3.7 -41.5,0 -80.7,5.2 -113.8,24.3 -95,55 -116.3,207.7 -193.3,284.8 -75.6,75.5 -223.7,97.5 -281.3,187.6 132.5,77.9 329.2,168 615.3,249.4 h 374.4 v -69.4 c 0,-72.6 59,-131.7 131.6,-131.7 22.9,0 45.6,6.2 65.6,17.8 l 660.3,381.2 c 3.6,2.1 7.1,4.3 10.5,6.7 154.9,12.1 320.8,21.2 498.4,26.9 -29.9,-43.8 -59.7,-87.1 -71.7,-131.9 -28.6,-107 28.8,-249.6 -25.4,-343.3 -54.9,-94.9 -207.7,-116.2 -284.8,-193.4 -77,-77 -98.3,-229.7 -193.2,-284.7 -33.1,-19.1 -72.3,-24.3 -113.9,-24.3 -24.9,0 -50.7,1.9 -76.5,3.7 -25.8,1.9 -51.6,3.8 -76.7,3.8 -26.5,0 -52.2,-2.1 -76.1,-8.5 -103.4,-27.7 -198,-149.5 -310,-149.5 m -1153.5,725.1 c -8,69.4 9.2,150.1 4.5,221.8 -1.1,17 -3.4,33.5 -7.7,49.3 -27,101 -144.2,193.8 -149.2,302.6 -0.1,2.4 -0.2,4.8 -0.2,7.2 0,58.2 32.8,111.6 68.3,164.1 24,35.5 49.2,70.6 66.2,106.4 6.3,13.1 11.4,26.3 14.9,39.5 28.6,107 -28.8,249.6 25.4,343.2 9.2,15.9 21.1,29.7 35,42.1 47,42 116.1,67.2 175.7,99.3 9.2,5 18.2,10.1 26.9,15.5 17.5,10.9 33.5,22.8 47.2,36.5 77,77.1 98.3,229.8 193.3,284.7 2.2,1.3 4.4,2.5 6.6,3.6 31.7,16.2 68.4,20.8 107.2,20.8 24.9,0 50.7,-1.9 76.5,-3.8 25.8,-1.8 51.7,-3.7 76.8,-3.7 26.5,0 52.2,2.1 76.1,8.5 78.6,21 152.2,96.6 232.3,131.5 25.1,11 50.9,17.9 77.7,17.9 2.3,0 4.5,0 6.7,-0.1 0.2,0 0.4,0 0.5,0 108.9,-5.1 201.6,-122.2 302.7,-149.3 15.7,-4.2 32.3,-6.6 49.3,-7.7 8.8,-0.5 17.8,-0.8 26.8,-0.8 25.2,0 51,1.9 76.8,3.7 25.8,1.9 51.6,3.8 76.5,3.8 14,0 27.8,-0.6 41.2,-2.1 26.2,-3 50.8,-9.6 72.7,-22.3 90.6,-52.4 114.1,-193.9 183.2,-273.7 3.1,-3.8 6.5,-7.5 10.1,-11 55.2,-55.3 149.4,-81.9 218.5,-127.5 27.4,-18 50.7,-39 66.2,-65.9 54.2,-93.6 -3.2,-236.2 25.4,-343.2 27.6,-103.3 149.5,-197.9 149.5,-310 0,-31 -9.4,-60.6 -23.5,-89.5 -120.6,-5 -294.6,-14.1 -499.3,-30.7 1.2,7.4 1.8,14.9 1.8,22.5 0,47.6 -24.5,90.1 -65.7,113.9 l -660.2,381.2 c -20.1,11.6 -42.8,17.7 -65.7,17.7 -72.6,0 -131.6,-59 -131.6,-131.6 v -69.4 h -521.4 c -64,0 -116.1,-52.1 -116.1,-116.1 v -391.3 c 0,-28.1 10.1,-54 26.8,-74.1 -115.5,-32.4 -226.3,-68.5 -329.4,-108.6 -27.7,-32.1 -52.8,-61.4 -75.7,-88.3 0,-5.6 0.2,-11.1 0.4,-16.6"
         id="path7499" />
    </clipPath>
    <linearGradient
       x1="0"
       y1="0"
       x2="1"
       y2="0"
       gradientUnits="userSpaceOnUse"
       gradientTransform="matrix(984.348,-1983.72,-1983.72,-984.348,24855.5,4510.3)"
       spreadMethod="pad"
       id="linearGradient7511">
      <stop
         style="stop-opacity:1;stop-color:#f8a45b"
         offset="0"
         id="stop7505" />
      <stop
         style="stop-opacity:1;stop-color:#96440c"
         offset="0.83257708"
         id="stop7507" />
      <stop
         style="stop-opacity:1;stop-color:#96440c"
         offset="1"
         id="stop7509" />
    </linearGradient>
    <clipPath
       clipPathUnits="userSpaceOnUse"
       id="clipPath7521">
      <path
         d="m 24535.6,4009.8 c -183.9,-29.4 -413.2,-43.6 -563.2,-50.2 24,35.5 49.2,70.6 66.2,106.4 131,-8.3 310.2,-15 492,-6.9 31.2,1.4 36,-44.3 5,-49.3 z"
         id="path7519" />
    </clipPath>
    <linearGradient
       x1="0"
       y1="0"
       x2="1"
       y2="0"
       gradientUnits="userSpaceOnUse"
       gradientTransform="matrix(15.1955,-201.34,-201.34,-15.1955,24256.4,4104)"
       spreadMethod="pad"
       id="linearGradient7535">
      <stop
         style="stop-opacity:1;stop-color:#96440c"
         offset="0"
         id="stop7525" />
      <stop
         style="stop-opacity:1;stop-color:#96440c"
         offset="0.384357"
         id="stop7527" />
      <stop
         style="stop-opacity:1;stop-color:#b76427"
         offset="0.49308009"
         id="stop7529" />
      <stop
         style="stop-opacity:1;stop-color:#b76427"
         offset="0.50391"
         id="stop7531" />
      <stop
         style="stop-opacity:1;stop-color:#b76427"
         offset="1"
         id="stop7533" />
    </linearGradient>
    <clipPath
       clipPathUnits="userSpaceOnUse"
       id="clipPath7545">
      <path
         d="m 24074.8,3132.2 c -11.7,24.9 -16.7,52.9 -18.1,82.4 -0.2,5.5 -0.4,11 -0.4,16.6 22.9,26.9 48,56.2 75.7,88.3 103.1,40.1 213.9,76.2 329.4,108.6 21.3,-25.7 53.5,-42 89.3,-42 h 147 c -286.1,-81.4 -482.8,-171.5 -615.3,-249.4 -2.6,-1.5 -5.1,-3 -7.6,-4.5 v 0 m 1865.3,458.5 c 28.6,20.2 47.6,50.4 53.4,84.6 204.7,16.6 378.7,25.7 499.3,30.7 12.8,0.5 24.9,1 36.4,1.4 v 0 c -12.5,-30.3 -31,-59.6 -50.5,-88.6 v 0 c -13.5,-0.4 -26.9,-0.8 -40.2,-1.2 -177.6,-5.7 -343.5,-14.8 -498.4,-26.9"
         id="path7543" />
    </clipPath>
    <linearGradient
       x1="0"
       y1="0"
       x2="1"
       y2="0"
       gradientUnits="userSpaceOnUse"
       gradientTransform="matrix(37.9886,-284.915,-284.915,-37.9886,25267.5,3647.7)"
       spreadMethod="pad"
       id="linearGradient7559">
      <stop
         style="stop-opacity:1;stop-color:#96440c"
         offset="0"
         id="stop7549" />
      <stop
         style="stop-opacity:1;stop-color:#96440c"
         offset="0.384357"
         id="stop7551" />
      <stop
         style="stop-opacity:1;stop-color:#b76427"
         offset="0.49308009"
         id="stop7553" />
      <stop
         style="stop-opacity:1;stop-color:#b76427"
         offset="0.50391"
         id="stop7555" />
      <stop
         style="stop-opacity:1;stop-color:#b76427"
         offset="1"
         id="stop7557" />
    </linearGradient>
    <clipPath
       clipPathUnits="userSpaceOnUse"
       id="clipPath7569">
      <path
         d="m 26393.2,3234.2 c -0.2,-41.4 -5.6,-80.6 -24.7,-113.6 -5.7,-9.9 -12.5,-19 -20.2,-27.4 -135.6,-34.9 -482.6,-118.2 -816.8,-151.3 -23.3,-2.3 -28.2,32.1 -5.2,36.4 341,62.9 683.7,184.8 866.9,255.9 z"
         id="path7567" />
    </clipPath>
    <linearGradient
       x1="0"
       y1="0"
       x2="1"
       y2="0"
       gradientUnits="userSpaceOnUse"
       gradientTransform="matrix(45.9233,-200.914,-200.914,-45.9233,25943.2,3135.8)"
       spreadMethod="pad"
       id="linearGradient7583">
      <stop
         style="stop-opacity:1;stop-color:#96440c"
         offset="0"
         id="stop7573" />
      <stop
         style="stop-opacity:1;stop-color:#96440c"
         offset="0.384357"
         id="stop7575" />
      <stop
         style="stop-opacity:1;stop-color:#b76427"
         offset="0.49308009"
         id="stop7577" />
      <stop
         style="stop-opacity:1;stop-color:#b76427"
         offset="0.50391"
         id="stop7579" />
      <stop
         style="stop-opacity:1;stop-color:#b76427"
         offset="1"
         id="stop7581" />
    </linearGradient>
    <clipPath
       clipPathUnits="userSpaceOnUse"
       id="clipPath7593">
      <path
         d="m 26301.8,4507.9 c -173.9,-46.3 -671.4,-168.1 -1099.5,-169.8 -26.7,-0.2 -30.4,38.4 -4.2,43.3 341.4,64.2 688.8,189 876.1,262.3 2.1,-2.3 4.2,-4.5 6.4,-6.7 56,-56 151.3,-82.8 221.2,-129.1 z"
         id="path7591" />
    </clipPath>
    <linearGradient
       x1="0"
       y1="0"
       x2="1"
       y2="0"
       gradientUnits="userSpaceOnUse"
       gradientTransform="matrix(56.983,-273.518,-273.518,-56.983,25708.2,4590.1)"
       spreadMethod="pad"
       id="linearGradient7607">
      <stop
         style="stop-opacity:1;stop-color:#96440c"
         offset="0"
         id="stop7597" />
      <stop
         style="stop-opacity:1;stop-color:#96440c"
         offset="0.384357"
         id="stop7599" />
      <stop
         style="stop-opacity:1;stop-color:#b76427"
         offset="0.49308009"
         id="stop7601" />
      <stop
         style="stop-opacity:1;stop-color:#b76427"
         offset="0.50391"
         id="stop7603" />
      <stop
         style="stop-opacity:1;stop-color:#b76427"
         offset="1"
         id="stop7605" />
    </linearGradient>
    <clipPath
       clipPathUnits="userSpaceOnUse"
       id="clipPath7617">
      <path
         d="m 25203.7,3237.9 c -41.1,0 -78.8,32.8 -78.8,78.8 v 122.2 h -574.2 c -34.9,0 -63.3,28.3 -63.3,63.3 v 391.3 c 0,34.9 28.4,63.3 63.3,63.3 h 33.2 c -11.2,-10.5 -18,-25.3 -18,-41.5 v -359 0 c 0,-32 26.7,-58.1 59.8,-58.1 h 543.3 v -112.1 0 c 0,-42.2 35.7,-72.3 74.5,-72.3 12.4,0 25.1,3.1 37.1,9.8 l 433.6,242.6 v 0 l 191.1,107 c 18.5,10.4 30.1,26.5 34.8,44.1 8.1,-32.2 -4.2,-68.7 -36.9,-87.6 l -660.3,-381.2 c -12.6,-7.3 -26.1,-10.6 -39.2,-10.6 m -34.7,735.5 h -44.1 V 4079 c 0,46 37.7,78.8 78.8,78.8 6.7,0 13.4,-0.8 20.1,-2.6 -30.4,-8.2 -54.8,-34.8 -54.8,-69.7 v -112.1"
         id="path7615" />
    </clipPath>
    <linearGradient
       x1="0"
       y1="0"
       x2="1"
       y2="0"
       gradientUnits="userSpaceOnUse"
       gradientTransform="matrix(-378.086,-761.944,761.944,-378.086,25286.7,3938.1)"
       spreadMethod="pad"
       id="linearGradient7627">
      <stop
         style="stop-opacity:1;stop-color:#318063"
         offset="0"
         id="stop7621" />
      <stop
         style="stop-opacity:1;stop-color:#124933"
         offset="0.70902877"
         id="stop7623" />
      <stop
         style="stop-opacity:1;stop-color:#124933"
         offset="1"
         id="stop7625" />
    </linearGradient>
    <clipPath
       clipPathUnits="userSpaceOnUse"
       id="clipPath7641">
      <path
         d="m 24565.9,3556.3 v 0 359 c 0,16.2 6.8,31 18,41.5 5.6,5.3 12.2,9.5 19.6,12.3 6.9,2.8 14.3,4.3 22.2,4.3 h 499.2 44.1 v 112.1 c 0,34.9 24.4,61.5 54.8,69.7 6.4,1.7 13,2.6 19.7,2.6 12.4,0 25.1,-3.1 37.1,-9.8 l 624.7,-349.6 c 31.2,-17.5 42.8,-51.4 34.8,-81.1 -4.7,-17.6 -16.3,-33.7 -34.8,-44.1 l -191.1,-107 c -608.2,56.8 -949.9,267.7 -1110.7,402.9 -22.1,-8.4 -37.6,-29.4 -37.6,-53.8 v -359"
         id="path7639" />
    </clipPath>
    <linearGradient
       x1="0"
       y1="0"
       x2="1"
       y2="0"
       gradientUnits="userSpaceOnUse"
       gradientTransform="matrix(-332.014,-669.096,669.096,-332.014,25312.7,3941.6)"
       spreadMethod="pad"
       id="linearGradient7653">
      <stop
         style="stop-opacity:1;stop-color:#95d543"
         offset="0"
         id="stop7645" />
      <stop
         style="stop-opacity:1;stop-color:#95d543"
         offset="0.00000027"
         id="stop7647" />
      <stop
         style="stop-opacity:1;stop-color:#e3ffbb"
         offset="0.70902885"
         id="stop7649" />
      <stop
         style="stop-opacity:1;stop-color:#e3ffbb"
         offset="1"
         id="stop7651" />
    </linearGradient>
    <clipPath
       clipPathUnits="userSpaceOnUse"
       id="clipPath7663">
      <path
         d="m 25243.5,3313.8 c -38.8,0 -74.5,30.1 -74.5,72.3 v 112.1 h -543.3 c -33.1,0 -59.8,26.1 -59.8,58.1 v 359 c 0,24.4 15.5,45.4 37.6,53.8 160.8,-135.2 502.5,-346.1 1110.7,-402.9 l -433.6,-242.6 c -12,-6.7 -24.7,-9.8 -37.1,-9.8"
         id="path7661" />
    </clipPath>
    <linearGradient
       x1="0"
       y1="0"
       x2="1"
       y2="0"
       gradientUnits="userSpaceOnUse"
       gradientTransform="matrix(-332.014,-669.096,669.096,-332.014,25312.7,3941.6)"
       spreadMethod="pad"
       id="linearGradient7675">
      <stop
         style="stop-opacity:1;stop-color:#7cc04b"
         offset="0"
         id="stop7667" />
      <stop
         style="stop-opacity:1;stop-color:#7cc04b"
         offset="0.00000027"
         id="stop7669" />
      <stop
         style="stop-opacity:1;stop-color:#b6dfa5"
         offset="0.70902885"
         id="stop7671" />
      <stop
         style="stop-opacity:1;stop-color:#b6dfa5"
         offset="1"
         id="stop7673" />
    </linearGradient>
  </defs>
  <g
     inkscape:label="Layer 1"
     inkscape:groupmode="layer"
     id="layer1"
     transform="translate(-49.273403,-99.46973)">
    <g
       id="g12334">
      <g
         id="g7351"
         transform="matrix(0.03527778,0,0,-0.03527778,-788.71247,284.33132)">
        <g
           id="g7353"
           clip-path="url(#clipPath7357)">
          <g
             id="g7359"
             transform="scale(1.54564)">
            <path
               d="m 15624.6,2231.37 1.2,0.06 c 3.3,0 6.6,-1.42 8.9,-3.88 l 661.9,-711.03 c 2.1,-2.26 3.3,-5.18 3.3,-8.15 0,-1.23 0.2,-29.5 -3.2,-58.68 -5.3,-45.87 -16.6,-68.13 -35.5,-70.07 l -1.4,-0.13 c -3.3,-0.13 -6.6,1.1 -9,3.43 -2.4,2.33 -3.7,5.5 -3.7,8.8 0.4,23.29 -9.3,51.04 -19,72.85 0.3,-26.92 4.4,-65.73 19.1,-112.77 1.7,-5.31 -0.5,-11.06 -5.2,-13.98 -1.7,-0.97 -3.3,-1.55 -5.1,-1.74 -3.5,-0.33 -7.2,0.84 -9.8,3.43 -27.7,27.43 -39.3,61.85 -50.5,95.1 -4.2,12.3 -8.4,24.78 -13.4,37.14 -7.2,-30.86 -24.6,-56.16 -25.8,-57.84 -2.1,-2.98 -5.2,-4.79 -8.7,-5.11 -1.7,-0.2 -3.5,0 -5.2,0.58 -5.2,1.81 -8.5,6.79 -8.1,12.23 0,0.19 0.4,11.71 -5.4,32.87 -0.5,-18.38 -2.2,-31.64 -2.4,-33 -0.8,-5.57 -5.3,-9.84 -10.8,-10.42 l -0.9,-0.06 c -6,-0.13 -11.1,4.07 -12.2,9.9 -7.6,39.2 -34.3,71.62 -51.5,89.02 -10.9,-37.91 -35,-75.44 -36.2,-77.31 -2.1,-3.24 -5.4,-5.11 -8.9,-5.5 -2.7,-0.26 -5.4,0.32 -7.8,1.87 -5.6,3.63 -7.3,11.07 -3.8,16.7 0.8,1.16 15.8,27.3 -7.3,67.02 -5.9,-28.08 4,-80.16 15.2,-115.42 2,-5.95 -1.1,-12.42 -6.8,-14.88 -1.2,-0.45 -2.3,-0.78 -3.5,-0.84 -4.8,-0.52 -9.6,1.94 -12,6.41 -0.9,1.74 -21.9,41.92 -69.2,152.16 -11.8,-21.99 -0.5,-56.67 -0.4,-57.12 2.1,-6.28 -1.2,-13.01 -7.4,-15.27 -0.9,-0.32 -1.9,-0.52 -2.9,-0.65 -5.3,-0.52 -10.5,2.52 -12.5,7.77 -0.6,1.55 -12.8,34.09 -14.2,96.52 -23.2,-20.31 -58.6,-39.4 -88.5,-42.5 -16.3,-1.69 -29.9,1.36 -40.5,9.18 -3.7,2.72 -5.5,7.25 -4.7,11.78 0.7,4.53 4,8.28 8.4,9.58 22.7,6.85 37.8,19.02 46.4,37.13 13.4,28.53 7,65.28 0.8,87.73 -13.9,-19.08 -34.1,-51.82 -37.1,-84.11 -0.6,-5.24 -4.4,-9.57 -9.5,-10.73 l -1.4,-0.2 c -4.7,-0.52 -9.3,1.81 -11.7,5.89 -19.8,33.64 -13.7,88.51 -6.2,125.51 -28.4,-27.88 -62.3,-69.03 -62.7,-102.87 -0.1,-5.17 -3.4,-9.77 -8.4,-11.38 -0.8,-0.26 -1.6,-0.46 -2.5,-0.52 -4.2,-0.45 -8.3,1.36 -10.9,4.79 -55.2,73.23 -21.1,153.78 6.4,197.78 -12.8,-3.76 -27.9,-7.18 -43.6,-8.8 -32.5,-3.36 -59,2.07 -78.6,16.11 -4.1,2.97 -6,8.09 -4.7,13 1.3,4.86 5.4,8.41 10.5,8.93 22.8,2.4 49.2,26.4 71.8,53.18 -16.5,-10.16 -34.8,-19.34 -53.5,-24.78 -0.7,-0.19 -1.4,-0.32 -2.1,-0.39 -2.6,-0.25 -5.1,0.26 -7.3,1.56 -2.9,1.62 -5,4.33 -5.7,7.57 -1.3,4.72 -1.1,10.22 0.2,16.24 -10.8,-17.93 -21.4,-38.24 -30.9,-61.14 -1.8,-4.14 -5.6,-6.99 -10,-7.44 l -1,-0.07 c -4.8,-0.06 -9.2,2.66 -11.2,6.99 -34.2,73.63 16.7,176.11 45.9,224.95 -15.8,-4.07 -35.9,-8.41 -56.4,-10.48 -38.5,-4.01 -66.6,1.3 -83.2,15.59 -4.3,3.63 -5.5,9.58 -3.1,14.56 1.9,3.82 5.6,6.34 9.7,6.73 1.2,0.13 2.4,0.06 3.6,-0.19 6.3,-1.23 13.1,-1.49 20.5,-0.72 86.4,8.93 212.3,146.22 213.6,147.58 2,2.27 4.7,3.63 7.7,3.95"
               style="fill:url(#linearGradient7369);fill-opacity:1;fill-rule:nonzero;stroke:none"
               id="path7371" />
          </g>
        </g>
      </g>
      <g
         id="g7373"
         transform="matrix(0.05439304,0,0,-0.05439304,-788.71247,284.33132)">
        <path
           d="m 15628.1,2070.96 c 0,0 -94.9,-132.9 -56.3,-215.91 50.8,122.32 132.2,164.22 132.2,164.22 0,0 -92,-94.11 -84.1,-125.44 51.6,14.99 101.8,64.99 101.8,64.99 0,0 -61.1,-106.3 -114.1,-111.75 47,-33.66 133.3,7.07 133.3,7.07 0,0 -94.8,-103.45 -27,-193.47 0.8,56.95 86.4,123.75 86.4,123.75 0,0 -30.3,-94.5 -4.2,-138.67 4.6,48.97 48.1,96.97 48.1,96.97 0,0 49.6,-116.94 -43.2,-144.96 34,-24.9 112.6,27.95 120.4,52.21 -3,-75.17 11.8,-113.83 11.8,-113.83 0,0 -18,53.32 14.1,74.2 47.5,-111.29 68.3,-150.99 68.3,-150.99 0,0 -32.1,100.4 -4.9,128.29 40.4,-50.98 17.4,-87.36 17.4,-87.36 0,0 30.6,47.15 34.9,84.44 0,0 52.7,-41.44 63.6,-98.84 0,0 9.5,69.59 -11.1,107.6 42.3,-69.27 39.7,-109.61 39.7,-109.61 0,0 37.5,53.64 18.7,92.88 39.1,-53.51 35.6,-115.71 78.4,-158.13 -27.5,87.5 -14.9,143.92 -14.9,143.92 0,0 36.7,-59.73 36.1,-104.94 26.5,1.04 25.5,104.62 25.5,104.62 l -593.9,638.06 c 0,0 -138.1,-151.7 -220.2,-135.09 36.6,-31.39 143.2,5.77 143.2,5.77"
           style="fill:#318063;fill-opacity:1;fill-rule:nonzero;stroke:none"
           id="path7375" />
      </g>
      <g
         id="g7377"
         transform="matrix(0.03527778,0,0,-0.03527778,-788.71247,284.33132)">
        <g
           id="g7379"
           clip-path="url(#clipPath7383)">
          <g
             id="g7385"
             transform="scale(1.63658)">
            <path
               d="m 15347.6,1557.88 0.2,1.1 c 0.7,3.12 2.7,5.81 5.4,7.39 l 792.8,461.76 c 2.5,1.4 5.5,1.89 8.2,1.28 1.1,-0.24 27.3,-5.92 53.4,-15.09 41.2,-14.48 59.3,-29.51 57.2,-47.29 l -0.2,-1.35 c -0.6,-3.12 -2.4,-5.8 -5,-7.52 -2.7,-1.77 -5.9,-2.32 -8.9,-1.58 -21.4,5.13 -49,2.01 -71.1,-2.39 24.9,-5.31 61.5,-9.65 107.9,-5.86 5.2,0.43 10.1,-2.81 11.8,-7.76 0.5,-1.65 0.7,-3.36 0.5,-5.01 -0.4,-3.36 -2.2,-6.42 -5.2,-8.31 -31,-19.8 -65.1,-23.34 -98.1,-26.77 -12.2,-1.22 -24.6,-2.5 -37,-4.58 26.9,-13.07 46.6,-34.34 47.9,-35.8 2.3,-2.51 3.3,-5.87 2.9,-9.05 -0.2,-1.65 -0.7,-3.24 -1.6,-4.7 -2.7,-4.4 -8.1,-6.42 -13,-4.95 -0.1,0.06 -10.7,2.81 -31.3,1.89 16.8,-4.28 28.6,-8.67 29.8,-9.1 5,-1.83 8,-6.91 7.4,-12.1 l -0.2,-0.86 c -1.1,-5.49 -6,-9.41 -11.6,-9.22 -37.7,1.28 -73.1,-16.62 -92.7,-28.84 32.6,-17.84 62.2,-47.97 63.6,-49.5 2.6,-2.56 3.6,-5.98 3.2,-9.35 -0.3,-2.5 -1.4,-4.88 -3.3,-6.78 -4.5,-4.4 -11.7,-4.4 -16.2,0.06 -0.9,0.86 -21.8,20.23 -63.3,7.15 24.7,-11.24 74.8,-13.01 109.5,-9.96 6,0.49 11.3,-3.6 12.3,-9.41 0.3,-1.16 0.3,-2.26 0.1,-3.36 -0.5,-4.52 -3.8,-8.49 -8.4,-9.71 -1.8,-0.49 -43.2,-11.43 -154.6,-32.08 17.8,-15.46 52.1,-12.35 52.6,-12.28 6.1,0.61 11.7,-3.85 12.5,-10.02 0.1,-0.92 0.1,-1.84 0,-2.75 -0.6,-5.01 -4.5,-9.23 -9.8,-9.96 -1.5,-0.25 -34.1,-4.65 -91.9,7.02 13.9,-25.6 24.1,-62.14 20.8,-90.31 -1.9,-15.33 -7.5,-27.25 -16.9,-35.44 -3.3,-2.81 -7.9,-3.6 -11.9,-1.95 -4,1.71 -6.7,5.5 -7,9.77 -1.6,22.31 -9.7,38.8 -24.6,50.48 -23.5,18.27 -58.6,20.1 -80.6,19.06 14.7,-16.8 40.6,-42.22 69.7,-51.75 4.7,-1.53 8,-5.99 7.9,-10.94 v -1.35 c -0.6,-4.4 -3.6,-8.12 -7.9,-9.53 -35.1,-11.18 -84.4,5.81 -117,20.47 19.8,-32.02 50.7,-71.8 81.8,-79.25 4.7,-1.16 8.2,-5.19 8.7,-10.08 0.1,-0.86 0.1,-1.65 0,-2.45 -0.5,-3.91 -3,-7.39 -6.7,-9.1 -79,-35.56 -146,12.71 -180.9,47.17 0.8,-12.65 0.8,-27.25 -0.9,-41.98 -3.7,-30.67 -14.2,-53.95 -31.3,-69.1 -3.5,-3.18 -8.6,-3.79 -12.9,-1.59 -4.2,2.2 -6.6,6.78 -6.1,11.49 2.6,21.5 -14,50.89 -33.9,77.23 5.8,-17.29 10.5,-36.11 11.6,-54.44 0,-0.74 0,-1.41 -0.1,-2.08 -0.2,-2.38 -1.3,-4.58 -2.9,-6.36 -2.1,-2.32 -5,-3.66 -8.2,-3.72 -4.6,-0.12 -9.6,1.22 -14.9,3.66 14.3,-13.81 30.8,-27.74 49.9,-41.24 3.4,-2.44 5.2,-6.6 4.8,-10.69 l -0.2,-0.98 c -0.9,-4.46 -4.4,-7.95 -8.8,-8.86 -74.9,-16.19 -158.7,52.06 -197.6,89.15 0.4,-15.46 0.2,-34.89 -2.1,-54.14 -4.3,-36.36 -15,-61.04 -31.7,-73.51 -4.2,-3.11 -10,-2.99 -14.1,0.25 -3.1,2.56 -4.6,6.47 -4.1,10.32 0.1,1.1 0.4,2.26 0.9,3.3 2.4,5.44 4.1,11.74 4.9,18.7 9.8,81.51 -90.5,226.02 -91.5,227.49 -1.6,2.32 -2.3,5.13 -2,7.94"
               style="fill:url(#linearGradient7395);fill-opacity:1;fill-rule:nonzero;stroke:none"
               id="path7397" />
          </g>
        </g>
      </g>
      <g
         id="g7399"
         transform="matrix(0.05745833,0,0,-0.05745833,-788.71247,284.33132)">
        <path
           d="m 15567.3,1498.46 c 0,0 103,-115.37 187.7,-97.07 -102.4,72.45 -124,156.32 -124,156.32 0,0 67.7,-104.5 98.2,-103.77 -3.1,50.78 -38.7,107.57 -38.7,107.57 0,0 85.4,-78.65 79.3,-128.69 40.9,36.35 21.3,124.52 21.3,124.52 0,0 75.7,-109.11 173,-65.27 -52.4,12.59 -96.2,105.6 -96.2,105.6 0,0 81,-47.64 127.1,-32.9 -44.2,14.48 -79.5,64.71 -79.5,64.71 0,0 118.4,21.36 124.9,-70.12 30.1,26.16 -2.3,109.78 -23.1,122.06 68.8,-18.48 107.5,-12.89 107.5,-12.89 0,0 -53,-5.47 -65.5,28.61 112.7,20.57 153.6,31.49 153.6,31.49 0,0 -99.4,-8.71 -119.4,22.29 55.5,26.65 84.3,-2.21 84.3,-2.21 0,0 -37.2,38.13 -70.6,49.85 0,0 49.1,39.98 104.4,38.07 0,0 -62.2,23.33 -101.6,12.22 72.7,24.56 109.5,13.81 109.5,13.81 0,0 -41.7,45.81 -81.9,36.54 57.5,25.11 114.3,8.78 162.4,39.47 -86.5,-7.06 -136.1,16.34 -136.1,16.34 0,0 62.9,21.3 104.5,11.42 4.5,24.68 -91.3,45.37 -91.3,45.37 L 15464,1596.57 c 0,0 111.3,-159.2 78.9,-231.59 36.5,27.26 24.4,133.48 24.4,133.48"
           style="fill:#318063;fill-opacity:1;fill-rule:nonzero;stroke:none"
           id="path7401" />
      </g>
      <g
         id="g7403"
         transform="matrix(0.03527778,0,0,-0.03527778,-788.71247,284.33132)">
        <g
           id="g7405"
           clip-path="url(#clipPath7409)">
          <g
             id="g7411"
             transform="scale(1.54564)">
            <path
               d="m 15624.6,2494.95 1.2,-0.07 c 3.3,0 6.6,1.42 8.9,3.88 l 661.9,711.03 c 2.1,2.27 3.3,5.18 3.3,8.16 0,1.23 0.2,29.5 -3.2,58.68 -5.3,45.87 -16.6,68.12 -35.5,70.07 l -1.4,0.12 c -3.3,0.13 -6.6,-1.09 -9,-3.42 -2.4,-2.33 -3.7,-5.5 -3.7,-8.8 0.4,-23.29 -9.3,-50.98 -19,-72.85 0.3,26.91 4.4,65.73 19.1,112.77 1.7,5.3 -0.5,11.06 -5.2,13.97 -1.7,0.97 -3.3,1.55 -5.1,1.75 -3.5,0.32 -7.2,-0.84 -9.8,-3.5 -27.7,-27.36 -39.3,-61.78 -50.5,-95.04 -4.2,-12.29 -8.4,-24.78 -13.4,-37.13 -7.2,30.86 -24.6,56.15 -25.8,57.84 -2.1,2.97 -5.2,4.78 -8.7,5.11 -1.7,0.19 -3.5,0 -5.2,-0.59 -5.2,-1.81 -8.5,-6.79 -8.1,-12.22 0,-0.2 0.4,-11.71 -5.4,-32.87 -0.5,18.37 -2.2,31.64 -2.4,33 -0.8,5.56 -5.3,9.83 -10.8,10.41 l -0.9,0.07 c -6,0.13 -11.1,-4.08 -12.2,-9.9 -7.6,-39.21 -34.3,-71.62 -51.5,-89.02 -10.9,37.91 -35,75.43 -36.2,77.31 -2.1,3.23 -5.4,5.11 -8.9,5.5 -2.7,0.26 -5.4,-0.33 -7.8,-1.88 -5.6,-3.62 -7.3,-11.06 -3.8,-16.69 0.8,-1.16 15.8,-27.3 -7.3,-67.03 -5.9,28.08 4,80.16 15.2,115.42 2,5.95 -1.1,12.42 -6.8,14.88 -1.2,0.46 -2.3,0.78 -3.5,0.84 -4.8,0.52 -9.6,-1.94 -12,-6.4 -0.9,-1.75 -21.9,-41.92 -69.2,-152.17 -11.8,22 -0.5,56.74 -0.4,57.13 2.1,6.27 -1.2,13.07 -7.4,15.27 -0.9,0.32 -1.9,0.52 -2.9,0.64 -5.3,0.52 -10.5,-2.52 -12.5,-7.76 -0.6,-1.55 -12.8,-34.09 -14.2,-96.53 -23.2,20.32 -58.6,39.47 -88.5,42.51 -16.3,1.68 -29.9,-1.36 -40.5,-9.19 -3.7,-2.72 -5.5,-7.25 -4.7,-11.78 0.7,-4.52 4,-8.28 8.4,-9.57 22.7,-6.86 37.8,-19.02 46.4,-37.14 13.4,-28.53 7,-65.28 0.8,-87.73 -13.9,19.09 -34.1,51.83 -37.1,84.11 -0.6,5.24 -4.4,9.57 -9.5,10.74 l -1.4,0.19 c -4.7,0.52 -9.3,-1.74 -11.7,-5.88 -19.8,-33.65 -13.7,-88.51 -6.2,-125.52 -28.4,27.89 -62.3,69.04 -62.7,102.87 -0.1,5.18 -3.4,9.77 -8.4,11.39 -0.8,0.26 -1.6,0.45 -2.5,0.52 -4.2,0.45 -8.3,-1.3 -10.9,-4.79 -55.2,-73.24 -21.1,-153.79 6.4,-197.78 -12.8,3.75 -27.9,7.18 -43.6,8.8 -32.5,3.36 -59,-2.07 -78.6,-16.11 -4.1,-2.92 -6,-8.09 -4.7,-13.01 1.3,-4.85 5.4,-8.41 10.5,-8.93 22.8,-2.33 49.2,-26.33 71.8,-53.18 -16.5,10.16 -34.8,19.35 -53.5,24.78 -0.7,0.2 -1.4,0.33 -2.1,0.39 -2.6,0.26 -5.1,-0.26 -7.3,-1.55 -2.9,-1.62 -5,-4.34 -5.7,-7.57 -1.3,-4.72 -1.1,-10.22 0.2,-16.18 -10.8,17.86 -21.4,38.18 -30.9,61.08 -1.8,4.14 -5.6,6.99 -10,7.44 l -1,0.06 c -4.8,0.13 -9.2,-2.65 -11.2,-6.98 -34.2,-73.63 16.7,-176.11 45.9,-224.96 -15.8,4.08 -35.9,8.41 -56.4,10.48 -38.5,4.01 -66.6,-1.23 -83.2,-15.59 -4.3,-3.62 -5.5,-9.58 -3.1,-14.56 1.9,-3.81 5.6,-6.34 9.7,-6.73 1.2,-0.12 2.4,-0.06 3.6,0.2 6.3,1.23 13.1,1.49 20.5,0.71 86.4,-8.93 212.3,-146.22 213.6,-147.58 2,-2.26 4.7,-3.62 7.7,-3.94"
               style="fill:url(#linearGradient7421);fill-opacity:1;fill-rule:nonzero;stroke:none"
               id="path7423" />
          </g>
        </g>
      </g>
      <g
         id="g7425"
         transform="matrix(0.05439304,0,0,-0.05439304,-788.71247,284.33132)">
        <path
           d="m 15628.1,2667 c 0,0 -94.9,132.96 -56.3,215.91 50.8,-122.32 132.2,-164.22 132.2,-164.22 0,0 -92,94.1 -84.1,125.43 51.6,-14.98 101.8,-64.99 101.8,-64.99 0,0 -61.1,106.31 -114.1,111.75 47,33.66 133.3,-7.06 133.3,-7.06 0,0 -94.8,103.44 -27,193.46 0.8,-56.94 86.4,-123.74 86.4,-123.74 0,0 -30.3,94.49 -4.2,138.66 4.6,-48.97 48.1,-96.96 48.1,-96.96 0,0 49.6,116.94 -43.2,144.95 34,24.91 112.6,-27.95 120.4,-52.21 -3,75.18 11.8,113.83 11.8,113.83 0,0 -18,-53.31 14.1,-74.2 47.5,111.3 68.3,150.93 68.3,150.93 0,0 -32.1,-100.34 -4.9,-128.23 40.4,50.98 17.4,87.37 17.4,87.37 0,0 30.6,-47.15 34.9,-84.45 0,0 52.7,41.44 63.6,98.84 0,0 9.5,-69.59 -11.1,-107.59 42.3,69.26 39.7,109.61 39.7,109.61 0,0 37.5,-53.64 18.7,-92.88 39.1,53.51 35.6,115.7 78.4,158.12 -27.5,-87.49 -14.9,-143.92 -14.9,-143.92 0,0 36.7,59.74 36.1,104.94 26.5,-1.04 25.5,-104.61 25.5,-104.61 l -593.9,-638.07 c 0,0 -138.1,151.77 -220.2,135.1 36.6,31.39 143.2,-5.77 143.2,-5.77"
           style="fill:#318063;fill-opacity:1;fill-rule:nonzero;stroke:none"
           id="path7427" />
      </g>
      <g
         id="g7429"
         transform="matrix(0.03527778,0,0,-0.03527778,-788.71247,284.33132)">
        <g
           id="g7431"
           clip-path="url(#clipPath7435)">
          <g
             id="g7437"
             transform="scale(1.63658)">
            <path
               d="m 15347.6,2905.81 0.2,-1.1 c 0.7,-3.12 2.7,-5.8 5.4,-7.39 l 792.8,-461.76 c 2.5,-1.4 5.5,-1.89 8.2,-1.28 1.1,0.24 27.3,5.93 53.4,15.15 41.2,14.42 59.3,29.45 57.2,47.24 l -0.2,1.34 c -0.6,3.12 -2.4,5.8 -5,7.52 -2.7,1.77 -5.9,2.32 -8.9,1.59 -21.4,-5.14 -49,-1.96 -71.1,2.38 24.9,5.31 61.5,9.71 107.9,5.86 5.2,-0.43 10.1,2.81 11.8,7.76 0.5,1.65 0.7,3.36 0.5,5.01 -0.4,3.36 -2.2,6.42 -5.2,8.31 -31,19.8 -65.1,23.35 -98.1,26.77 -12.2,1.22 -24.6,2.5 -37,4.64 26.9,13.02 46.6,34.34 47.9,35.75 2.3,2.5 3.3,5.86 2.9,9.04 -0.2,1.65 -0.7,3.24 -1.6,4.7 -2.7,4.4 -8.1,6.42 -13,4.95 -0.1,-0.06 -10.7,-2.81 -31.3,-1.89 16.8,4.28 28.6,8.68 29.8,9.1 5,1.84 8,6.91 7.4,12.1 l -0.2,0.86 c -1.1,5.5 -6,9.41 -11.6,9.22 -37.7,-1.28 -73.1,16.62 -92.7,28.84 32.6,17.85 62.2,47.97 63.6,49.5 2.6,2.56 3.6,6.05 3.2,9.35 -0.3,2.5 -1.4,4.88 -3.3,6.78 -4.5,4.4 -11.7,4.4 -16.2,-0.06 -0.9,-0.86 -21.8,-20.23 -63.3,-7.15 24.7,11.24 74.8,13.01 109.5,9.96 6,-0.49 11.3,3.6 12.3,9.41 0.3,1.16 0.3,2.26 0.1,3.36 -0.5,4.52 -3.8,8.49 -8.4,9.72 -1.8,0.48 -43.2,11.42 -154.6,32.07 17.8,15.46 52.1,12.35 52.6,12.28 6.1,-0.61 11.7,3.85 12.5,10.03 0.1,0.91 0.1,1.83 0,2.75 -0.6,5.01 -4.5,9.22 -9.8,9.96 -1.5,0.24 -34.1,4.64 -91.9,-7.03 13.9,25.6 24.1,62.14 20.8,90.31 -1.9,15.34 -7.5,27.25 -16.9,35.44 -3.3,2.81 -7.9,3.6 -11.9,1.96 -4,-1.72 -6.7,-5.5 -7,-9.78 -1.6,-22.3 -9.7,-38.8 -24.6,-50.47 -23.5,-18.27 -58.6,-20.11 -80.6,-19.07 14.7,16.81 40.6,42.22 69.7,51.76 4.7,1.59 8,5.99 7.9,10.93 v 1.35 c -0.6,4.4 -3.6,8.12 -7.9,9.53 -35.1,11.18 -84.4,-5.8 -117,-20.47 19.8,32.02 50.7,71.8 81.8,79.25 4.7,1.16 8.2,5.19 8.7,10.08 0.1,0.86 0.1,1.65 0,2.45 -0.5,3.91 -3,7.39 -6.7,9.1 -79,35.56 -146,-12.71 -180.9,-47.17 0.8,12.65 0.8,27.25 -0.9,41.98 -3.7,30.67 -14.2,53.95 -31.3,69.1 -3.5,3.18 -8.6,3.79 -12.9,1.59 -4.2,-2.2 -6.6,-6.78 -6.1,-11.48 2.6,-21.51 -14,-50.9 -33.9,-77.24 5.8,17.3 10.5,36.11 11.6,54.44 0,0.74 0,1.41 -0.1,2.08 -0.2,2.39 -1.3,4.59 -2.9,6.36 -2.1,2.32 -5,3.66 -8.2,3.73 -4.6,0.12 -9.6,-1.23 -14.9,-3.67 14.3,13.81 30.8,27.74 49.9,41.24 3.4,2.45 5.2,6.6 4.8,10.7 l -0.2,0.97 c -0.9,4.46 -4.4,7.95 -8.8,8.86 -74.9,16.2 -158.7,-52.06 -197.6,-89.15 0.4,15.46 0.2,34.9 -2.1,54.14 -4.3,36.36 -15,61.04 -31.7,73.51 -4.2,3.11 -10,2.99 -14.1,-0.25 -3.1,-2.56 -4.6,-6.47 -4.1,-10.32 0.1,-1.1 0.4,-2.2 0.9,-3.3 2.4,-5.44 4.1,-11.73 4.9,-18.76 9.8,-81.45 -90.5,-225.96 -91.5,-227.42 -1.6,-2.33 -2.3,-5.14 -2,-7.95"
               style="fill:url(#linearGradient7447);fill-opacity:1;fill-rule:nonzero;stroke:none"
               id="path7449" />
          </g>
        </g>
      </g>
      <g
         id="g7451"
         transform="matrix(0.05745833,0,0,-0.05745833,-788.71247,284.33132)">
        <path
           d="m 15567.3,2986.72 c 0,0 103,115.37 187.7,97.07 -102.4,-72.45 -124,-156.32 -124,-156.32 0,0 67.7,104.5 98.2,103.77 -3.1,-50.78 -38.7,-107.57 -38.7,-107.57 0,0 85.4,78.65 79.3,128.69 40.9,-36.35 21.3,-124.52 21.3,-124.52 0,0 75.7,109.11 173,65.27 -52.4,-12.59 -96.2,-105.61 -96.2,-105.61 0,0 81,47.65 127.1,32.91 -44.2,-14.49 -79.5,-64.71 -79.5,-64.71 0,0 118.4,-21.36 124.9,70.12 30.1,-26.16 -2.3,-109.78 -23.1,-122.06 68.8,18.48 107.5,12.89 107.5,12.89 0,0 -53,5.47 -65.5,-28.61 112.7,-20.57 153.6,-31.5 153.6,-31.5 0,0 -99.4,8.72 -119.4,-22.28 55.5,-26.65 84.3,2.21 84.3,2.21 0,0 -37.2,-38.07 -70.6,-49.86 0,0 49.1,-39.97 104.4,-38.06 0,0 -62.2,-23.33 -101.6,-12.22 72.7,-24.56 109.5,-13.81 109.5,-13.81 0,0 -41.7,-45.81 -81.9,-36.54 57.5,-25.11 114.3,-8.78 162.4,-39.47 -86.5,7.06 -136.1,-16.34 -136.1,-16.34 0,0 62.9,-21.3 104.5,-11.42 4.5,-24.68 -91.3,-45.37 -91.3,-45.37 l -713.1,415.23 c 0,0 111.3,159.2 78.9,231.59 36.5,-27.26 24.4,-133.48 24.4,-133.48"
           style="fill:#318063;fill-opacity:1;fill-rule:nonzero;stroke:none"
           id="path7453" />
      </g>
      <g
         id="g7455"
         transform="matrix(0.03527778,0,0,-0.03527778,-788.71247,284.33132)">
        <g
           id="g7457"
           clip-path="url(#clipPath7461)">
          <g
             id="g7463"
             transform="scale(1.63281)">
            <path
               d="m 15448.6,1421.72 c -73,0 -134.6,79.37 -202,97.44 -15.6,4.17 -32.3,5.51 -49.7,5.51 -16.3,0 -33.2,-1.22 -50,-2.45 -16.8,-1.22 -33.6,-2.45 -49.9,-2.45 -27,0 -52.6,3.43 -74.1,15.87 -57.8,33.43 -73.7,122.24 -116.3,174.79 -3.1,3.86 -6.3,7.47 -9.8,10.84 -6.2,6.3 -13.3,12 -20.8,17.27 -24.1,16.84 -53.7,29.58 -81.7,43.54 -18.5,9.19 -36.4,18.93 -51.6,30.62 -12.8,9.8 -23.7,21.07 -31.5,34.61 -35.3,61.06 2.1,154.03 -16.5,223.72 -18,67.37 -97.4,128.98 -97.4,202.05 0,63.08 59.2,117.65 86.9,174.73 4.4,9 8,18.12 10.5,27.31 0.3,1.1 0.6,2.2 0.8,3.31 16.7,69.33 -19,160.34 15.7,220.41 12.7,21.99 33.4,37.85 57.1,51.51 -8.5,-7.59 -15.8,-16.04 -21.4,-25.78 -33.2,-57.33 2,-144.66 -15.5,-210.19 -2.2,-8.09 -5.3,-16.17 -9.2,-24.19 -10.4,-21.93 -25.8,-43.43 -40.5,-65.17 -21.8,-32.15 -41.8,-64.86 -41.8,-100.5 0,-1.47 0,-2.94 0.1,-4.41 -0.1,-1.47 -0.1,-2.94 -0.1,-4.47 0,-69.39 75.4,-127.94 92.5,-191.88 1.6,-6.24 2.9,-12.61 3.7,-19.17 2.8,-43.91 -7.7,-93.33 -2.8,-135.84 0.9,-18.06 3.9,-35.21 11.1,-50.46 v 0 c 1.1,-2.45 2.4,-4.78 3.7,-7.11 34,-58.79 128.6,-72.02 176.3,-119.67 47.8,-47.77 60.9,-142.39 119.7,-176.38 20.5,-11.82 44.9,-15.07 70.6,-15.07 15.4,0 31.3,1.17 47.3,2.33 15.9,1.17 32,2.27 47.5,2.27 16.5,0 32.4,-1.29 47.1,-5.21 64.1,-17.15 122.7,-92.54 192,-92.54 69.4,0 128,75.39 192,92.54 14.8,3.92 30.7,5.21 47.1,5.21 15.6,0 31.6,-1.1 47.6,-2.27 16,-1.16 31.9,-2.33 47.3,-2.33 25.7,0 50,3.25 70.5,15.07 58.9,33.99 72,128.61 119.7,176.38 42.8,42.75 123.4,57.76 164,102.89 4.7,5.15 8.9,10.72 12.4,16.78 11.7,20.22 15,44.22 15.1,69.58 0,47.4 -10.9,99.89 0.6,143 8.4,31.54 31,61.68 51.7,92.54 v 0 c 12,17.76 23.3,35.71 31,54.27 v 0 0 c 6,14.63 9.8,29.57 9.8,45.07 0,69.45 -75.4,128 -92.5,192 -17.7,66.21 17.8,154.52 -15.7,212.52 -9.7,16.6 -24.1,29.52 -40.9,40.67 -1.5,0.97 -2.9,1.89 -4.5,2.87 33.8,-16.78 65.2,-35.4 82.3,-64.86 34.7,-60.07 -1,-151.08 15.7,-220.41 0.2,-1.11 0.5,-2.21 0.8,-3.31 1.2,-4.78 2.9,-9.55 4.7,-14.33 7.3,-18.56 18.5,-36.69 30.7,-54.94 28.4,-42.56 62,-85.25 62,-132.77 0,-47.53 -33.6,-90.22 -62,-132.78 -12.2,-18.19 -23.4,-36.38 -30.7,-54.94 -1.8,-4.71 -3.5,-9.55 -4.7,-14.33 -18.7,-69.69 18.8,-162.66 -16.5,-223.72 -7.9,-13.54 -18.8,-24.81 -31.5,-34.61 -15.2,-11.69 -33.1,-21.43 -51.6,-30.62 -36.9,-18.37 -76.4,-34.66 -102.5,-60.81 -50.3,-50.22 -64.2,-149.81 -126.1,-185.63 -21.5,-12.44 -47.1,-15.87 -74.2,-15.87 -16.2,0 -33,1.23 -49.8,2.45 -16.8,1.23 -33.7,2.45 -50,2.45 -17.4,0 -34.1,-1.34 -49.7,-5.51 -26.7,-7.16 -52.5,-23.94 -78.5,-41.58 -10.1,-6.92 -20.3,-13.97 -30.6,-20.64 -29.7,-19.23 -60.2,-35.22 -93,-35.22 m 581.9,1379.77 c -21.7,11.02 -42.2,22.84 -57.7,38.4 -1.3,1.29 -2.6,2.7 -3.9,4.1 -44.5,48.81 -58.6,139.15 -115.8,172.22 -5,2.94 -10.3,5.33 -15.8,7.29 13.2,-2.33 25.7,-6.43 37.1,-12.98 61.9,-35.83 75.8,-135.41 126.1,-185.64 8.7,-8.75 18.9,-16.41 30,-23.39 m -1138.1,19.17 c 1.6,1.35 3,2.76 4.4,4.22 3.5,3.37 6.7,7.05 9.8,10.84 42.6,52.61 58.5,141.42 116.3,174.8 6.6,3.79 13.6,6.79 20.9,9.06 -1.4,-0.67 -2.7,-1.41 -4.1,-2.2 -58.2,-33.63 -71.2,-127.15 -118.4,-174.37 -8.4,-8.39 -18.2,-15.68 -28.9,-22.35 m 725,219.87 c -55.3,25.72 -107.8,83.9 -168.8,83.9 -1.4,0 -3,0 -4.4,-0.06 -0.1,0 -0.2,0 -0.3,0 1.6,0.06 3.2,0.12 4.7,0.12 16.9,0 33.2,-4.29 49.1,-11.02 14.9,-6.37 29.5,-14.89 43.9,-24.25 10.3,-6.68 20.5,-13.72 30.6,-20.58 15,-10.23 30,-20.21 45.2,-28.11"
               style="fill:url(#linearGradient7471);fill-opacity:1;fill-rule:nonzero;stroke:none"
               id="path7473" />
          </g>
        </g>
      </g>
      <g
         id="g7475"
         transform="matrix(0.03527778,0,0,-0.03527778,-788.71247,284.33132)">
        <g
           id="g7477"
           clip-path="url(#clipPath7481)">
          <g
             id="g7483"
             transform="scale(1.62855)">
            <path
               d="m 15489.1,1510.86 c -69.6,0 -128.3,75.59 -192.5,92.78 -14.8,3.93 -30.8,5.22 -47.3,5.22 -15.5,0 -31.6,-1.11 -47.6,-2.27 -16,-1.17 -32,-2.34 -47.4,-2.34 -25.8,0 -50.2,3.26 -70.8,15.11 -58.9,34.08 -72.1,128.95 -120,176.84 -47.8,47.78 -142.7,61.04 -176.8,119.99 -1.3,2.33 -2.6,4.66 -3.7,7.12 1.5,0.92 3.1,1.84 4.7,2.77 35.3,-55.33 126.3,-68.84 172.7,-115.2 47.3,-47.34 60.4,-141.11 118.7,-174.88 20.3,-11.73 44.4,-14.92 69.9,-14.92 15.3,0 31.1,1.16 46.9,2.27 15.9,1.17 31.8,2.33 47.2,2.33 16.3,0 32.1,-1.28 46.7,-5.22 63.5,-17 121.6,-91.8 190.4,-91.8 68.8,0 126.9,74.8 190.3,91.8 14.7,3.94 30.5,5.22 46.8,5.22 15.4,0 31.2,-1.16 47.1,-2.33 15.8,-1.11 31.7,-2.27 46.9,-2.27 25.6,0 49.7,3.19 70,14.92 58.3,33.77 71.3,127.54 118.6,174.82 47.4,47.4 141.2,60.48 174.9,118.76 33.3,57.53 -2,145.09 15.6,210.79 7.4,27.51 25.7,54.1 44,81 8.2,0.24 16.4,0.49 24.7,0.74 -20.8,-30.95 -43.5,-61.16 -51.9,-92.79 -11.5,-43.23 -0.5,-95.85 -0.6,-143.37 -0.1,-25.43 -3.4,-49.5 -15.2,-69.76 -3.5,-6.08 -7.6,-11.67 -12.4,-16.83 -40.7,-45.25 -121.4,-60.3 -164.3,-103.16 -47.9,-47.89 -61.1,-142.76 -120.1,-176.84 -20.5,-11.85 -44.9,-15.11 -70.7,-15.11 -15.4,0 -31.4,1.17 -47.4,2.34 -16.1,1.16 -32.1,2.27 -47.7,2.27 -16.4,0 -32.4,-1.29 -47.3,-5.22 -64.1,-17.19 -122.8,-92.78 -192.4,-92.78 m -714.4,599.24 c -0.8,6.57 -2.1,12.96 -3.7,19.22 -17.2,64.11 -92.8,122.81 -92.8,192.38 0,1.54 0,3.01 0.1,4.49 3.1,-66.81 75,-123.79 91.6,-185.82 2.7,-9.7 4.1,-19.83 4.8,-30.27 m 1493.1,165.55 c 8.6,17.75 14.4,35.92 14.4,54.96 0,68.83 -74.9,126.92 -91.8,190.35 -17.6,65.7 17.7,153.27 -15.6,210.74 -9.5,16.52 -23.8,29.41 -40.7,40.47 -42.4,28 -100.2,44.33 -134.1,78.29 -2.2,2.15 -4.3,4.42 -6.2,6.75 -42.5,49 -56.9,135.89 -112.5,168.07 -13.5,7.79 -28.6,11.85 -44.7,13.69 14.9,-0.74 29.1,-2.89 42.2,-7.55 5.4,-1.97 10.8,-4.36 15.8,-7.31 57.4,-33.16 71.5,-123.73 116.1,-172.67 1.3,-1.41 2.6,-2.82 4,-4.12 15.5,-15.59 36,-27.44 57.8,-38.5 24.7,-12.4 51,-23.7 73.5,-37.88 1.5,-0.98 3,-1.91 4.5,-2.89 16.9,-11.17 31.3,-24.13 40.9,-40.77 33.7,-58.15 -1.9,-146.7 15.8,-213.07 17.1,-64.17 92.8,-122.88 92.8,-192.51 0,-15.53 -3.8,-30.51 -9.9,-45.19 v 0 c -7,-0.25 -14.5,-0.55 -22.3,-0.86 m -567,760.49 c -10.5,0.68 -20.7,2.15 -30.3,4.73 -62.1,16.64 -119,88.55 -185.9,91.68 1.5,0.06 3,0.06 4.5,0.06 61.1,0 113.8,-58.33 169.2,-84.12 7.6,-3.63 15.4,-6.57 23.2,-8.66 6.2,-1.66 12.7,-2.83 19.3,-3.69"
               style="fill:url(#linearGradient7491);fill-opacity:1;fill-rule:nonzero;stroke:none"
               id="path7493" />
          </g>
        </g>
      </g>
      <g
         id="g7495"
         transform="matrix(0.03527778,0,0,-0.03527778,-788.71247,284.33132)">
        <g
           id="g7497"
           clip-path="url(#clipPath7501)">
          <g
             id="g7503"
             transform="scale(1.62677)">
            <path
               d="m 15497.1,1530.34 c -68.9,0 -127,74.87 -190.5,91.9 -14.7,3.93 -30.5,5.22 -46.8,5.22 -15.5,0 -31.4,-1.17 -47.2,-2.34 -15.9,-1.1 -31.8,-2.27 -47.1,-2.27 -25.5,0 -49.6,3.2 -69.9,14.94 -58.4,33.81 -71.5,127.67 -118.8,175.07 -46.5,46.41 -137.6,59.94 -173,115.32 81.5,47.89 202.4,103.27 378.3,153.31 h 230.1 v -42.66 c 0,-44.63 36.3,-80.96 80.9,-80.96 14.1,0 28.1,3.81 40.3,10.94 l 405.9,234.33 c 2.3,1.29 4.4,2.65 6.5,4.12 95.2,7.44 197.2,13.03 306.4,16.54 -18.4,-26.93 -36.7,-53.54 -44.1,-81.08 -17.6,-65.78 17.7,-153.44 -15.6,-211.03 -33.8,-58.34 -127.7,-71.44 -175.1,-118.89 -47.3,-47.34 -60.4,-141.2 -118.7,-175.01 -20.4,-11.74 -44.5,-14.94 -70.1,-14.94 -15.3,0 -31.1,1.17 -47,2.27 -15.9,1.17 -31.7,2.34 -47.1,2.34 -16.3,0 -32.1,-1.29 -46.8,-5.22 -63.6,-17.03 -121.7,-91.9 -190.6,-91.9 m -709.1,445.73 c -4.9,42.66 5.7,92.27 2.8,136.34 -0.7,10.45 -2.1,20.6 -4.7,30.31 -16.6,62.08 -88.7,119.13 -91.7,186.01 -0.1,1.47 -0.2,2.95 -0.2,4.43 0,35.77 20.2,68.6 42,100.87 14.8,21.82 30.3,43.4 40.7,65.41 3.9,8.05 7,16.16 9.2,24.28 17.6,65.77 -17.7,153.43 15.6,210.97 5.6,9.77 13,18.25 21.5,25.88 28.9,25.82 71.4,41.31 108,61.04 5.7,3.07 11.2,6.21 16.5,9.53 10.8,6.7 20.6,14.01 29.1,22.44 47.3,47.39 60.4,141.25 118.8,175 1.3,0.8 2.7,1.54 4,2.22 19.5,9.96 42.1,12.78 65.9,12.78 15.3,0 31.2,-1.16 47.1,-2.33 15.8,-1.11 31.7,-2.28 47.2,-2.28 16.3,0 32.1,1.29 46.8,5.23 48.3,12.91 93.5,59.38 142.8,80.83 15.4,6.76 31.2,11.01 47.7,11.01 1.4,0 2.8,0 4.1,-0.07 0.2,0 0.3,0 0.3,0 67,-3.13 124,-75.11 186.1,-91.77 9.7,-2.58 19.9,-4.06 30.3,-4.74 5.4,-0.3 11,-0.49 16.5,-0.49 15.5,0 31.3,1.17 47.2,2.28 15.9,1.17 31.7,2.33 47,2.33 8.6,0 17.1,-0.36 25.4,-1.29 16.1,-1.84 31.2,-5.9 44.7,-13.71 55.6,-32.21 70.1,-119.19 112.6,-168.24 1.9,-2.34 4,-4.61 6.2,-6.76 33.9,-34 91.8,-50.35 134.3,-78.38 16.8,-11.07 31.2,-23.98 40.7,-40.51 33.3,-57.54 -2,-145.2 15.6,-210.97 17,-63.5 91.9,-121.65 91.9,-190.56 0,-19.06 -5.8,-37.25 -14.4,-55.02 -74.2,-3.08 -181.1,-8.67 -307,-18.87 0.8,4.54 1.1,9.16 1.1,13.83 0,29.26 -15,55.38 -40.4,70.01 l -405.8,234.34 c -12.3,7.12 -26.3,10.88 -40.4,10.88 -44.6,0 -80.9,-36.27 -80.9,-80.9 v -42.66 h -320.5 c -39.3,0 -71.4,-32.03 -71.4,-71.37 v -240.54 c 0,-17.27 6.3,-33.2 16.5,-45.55 -71,-19.92 -139.1,-42.11 -202.5,-66.76 -17,-19.73 -32.4,-37.74 -46.5,-54.28 0,-3.44 0.1,-6.82 0.2,-10.2"
               style="fill:url(#linearGradient7511);fill-opacity:1;fill-rule:nonzero;stroke:none"
               id="path7513" />
          </g>
        </g>
      </g>
      <g
         id="g7515"
         transform="matrix(0.03527778,0,0,-0.03527778,-788.71247,284.33132)">
        <g
           id="g7517"
           clip-path="url(#clipPath7521)">
          <g
             id="g7523"
             transform="scale(1.50656)">
            <path
               d="m 16285.8,2661.55 c -122.1,-19.51 -274.3,-28.94 -373.8,-33.32 15.9,23.57 32.6,46.86 43.9,70.63 87,-5.51 205.9,-9.96 326.6,-4.58 20.7,0.93 23.9,-29.41 3.3,-32.73"
               style="fill:url(#linearGradient7535);fill-opacity:1;fill-rule:nonzero;stroke:none"
               id="path7537" />
          </g>
        </g>
      </g>
      <g
         id="g7539"
         transform="matrix(0.03527778,0,0,-0.03527778,-788.71247,284.33132)">
        <g
           id="g7541"
           clip-path="url(#clipPath7545)">
          <g
             id="g7547"
             transform="scale(1.62756)">
            <path
               d="m 14792,1924.48 c -7.2,15.3 -10.3,32.5 -11.1,50.63 -0.2,3.38 -0.3,6.76 -0.3,10.19 14.1,16.53 29.5,34.54 46.5,54.26 63.4,24.64 131.4,46.82 202.4,66.73 13.1,-15.8 32.9,-25.81 54.9,-25.81 h 90.3 c -175.8,-50.02 -296.6,-105.37 -378.1,-153.24 -1.6,-0.92 -3.1,-1.84 -4.6,-2.76 v 0 m 1146,281.71 c 17.6,12.41 29.3,30.97 32.9,51.98 125.7,10.2 232.6,15.79 306.7,18.86 7.9,0.31 15.3,0.62 22.4,0.86 v 0 c -7.7,-18.62 -19,-36.62 -31,-54.44 v 0 c -8.3,-0.24 -16.6,-0.49 -24.7,-0.73 -109.1,-3.51 -211.1,-9.1 -306.3,-16.53"
               style="fill:url(#linearGradient7559);fill-opacity:1;fill-rule:nonzero;stroke:none"
               id="path7561" />
          </g>
        </g>
      </g>
      <g
         id="g7563"
         transform="matrix(0.03527778,0,0,-0.03527778,-788.71247,284.33132)">
        <g
           id="g7565"
           clip-path="url(#clipPath7569)">
          <g
             id="g7571"
             transform="scale(1.61921)">
            <path
               d="m 16300,1997.39 c -0.1,-25.57 -3.5,-49.78 -15.3,-70.16 -3.5,-6.11 -7.7,-11.73 -12.4,-16.92 -83.8,-21.55 -298.1,-73 -504.5,-93.44 -14.4,-1.42 -17.4,19.82 -3.2,22.48 210.6,38.84 422.3,114.13 535.4,158.04"
               style="fill:url(#linearGradient7583);fill-opacity:1;fill-rule:nonzero;stroke:none"
               id="path7585" />
          </g>
        </g>
      </g>
      <g
         id="g7587"
         transform="matrix(0.03527778,0,0,-0.03527778,-788.71247,284.33132)">
        <g
           id="g7589"
           clip-path="url(#clipPath7593)">
          <g
             id="g7595"
             transform="scale(1.61361)">
            <path
               d="m 16300,2793.68 c -107.8,-28.69 -416.1,-104.18 -681.4,-105.23 -16.5,-0.12 -18.8,23.8 -2.6,26.83 211.6,39.79 426.9,117.13 542.9,162.56 1.4,-1.43 2.7,-2.79 4,-4.15 34.7,-34.71 93.8,-51.32 137.1,-80.01"
               style="fill:url(#linearGradient7607);fill-opacity:1;fill-rule:nonzero;stroke:none"
               id="path7609" />
          </g>
        </g>
      </g>
      <g
         id="g7611"
         transform="matrix(0.03527778,0,0,-0.03527778,-788.71247,284.33132)">
        <g
           id="g7613"
           clip-path="url(#clipPath7617)">
          <g
             id="g7619"
             transform="scale(1.5916)">
            <path
               d="m 15835.5,2034.38 c -25.8,0 -49.5,20.6 -49.5,49.51 v 76.77 h -360.8 c -21.9,0 -39.8,17.78 -39.8,39.77 v 245.86 c 0,21.92 17.9,39.77 39.8,39.77 h 20.9 c -7.1,-6.6 -11.3,-15.9 -11.3,-26.07 v -225.56 0 c 0,-20.11 16.7,-36.51 37.5,-36.51 h 341.4 v -70.43 0 c 0,-26.51 22.4,-45.43 46.8,-45.43 7.8,0 15.8,1.95 23.3,6.16 l 272.4,152.42 v 0 l 120.1,67.23 c 11.6,6.54 18.9,16.65 21.9,27.71 5.1,-20.23 -2.7,-43.16 -23.2,-55.04 l -414.9,-239.51 c -7.9,-4.58 -16.4,-6.65 -24.6,-6.65 m -21.8,462.11 h -27.7 v 66.35 c 0,28.9 23.7,49.51 49.5,49.51 4.2,0 8.4,-0.5 12.6,-1.64 -19.1,-5.15 -34.4,-21.86 -34.4,-43.79 v -70.43"
               style="fill:url(#linearGradient7627);fill-opacity:1;fill-rule:nonzero;stroke:none"
               id="path7629" />
          </g>
        </g>
      </g>
      <g
         id="g7631"
         transform="matrix(0.056261,0,0,-0.056261,-788.71247,284.33132)">
        <path
           d="m 15803.6,2640.2 c -45.5,0 -82.5,-36.99 -82.5,-82.52 v -43.51 h -326.9 c -40.1,0 -72.8,-32.67 -72.8,-72.8 v -245.36 c 0,-40.13 32.7,-72.8 72.8,-72.8 h 326.9 v -43.52 c 0,-45.52 37,-82.58 82.5,-82.58 14.4,0 28.6,3.89 41.2,11.16 l 414,239.03 c 25.8,14.86 41.2,41.57 41.2,71.36 0,29.84 -15.4,56.49 -41.2,71.41 l -414,239.03 c -12.6,7.27 -26.8,11.1 -41.2,11.1 m 0,-33.11 c 8.3,0 16.7,-2.07 24.6,-6.65 l 414.1,-239.02 c 32.8,-19 32.8,-66.47 0,-85.47 l -414.1,-239.02 c -7.9,-4.58 -16.3,-6.65 -24.6,-6.65 -25.7,0 -49.4,20.57 -49.4,49.41 v 76.63 h -360 c -21.9,0 -39.7,17.74 -39.7,39.69 v 245.36 c 0,21.88 17.8,39.69 39.7,39.69 h 360 v 76.62 c 0,28.85 23.7,49.41 49.4,49.41"
           style="fill:#5a2903;fill-opacity:1;fill-rule:nonzero;stroke:none"
           id="path7633" />
      </g>
      <g
         id="g7635"
         transform="matrix(0.03527778,0,0,-0.03527778,-788.71247,284.33132)">
        <g
           id="g7637"
           clip-path="url(#clipPath7641)">
          <g
             id="g7643"
             transform="scale(1.5916)">
            <path
               d="m 15434.8,2234.43 v 0 225.56 c 0,10.17 4.2,19.47 11.3,26.07 3.5,3.33 7.6,5.97 12.3,7.73 4.3,1.76 9,2.7 13.9,2.7 h 313.7 27.7 v 70.43 c 0,21.93 15.3,38.64 34.4,43.79 4,1.07 8.2,1.64 12.4,1.64 7.8,0 15.8,-1.95 23.3,-6.16 l 392.5,-219.65 c 19.6,-11 26.9,-32.3 21.9,-50.96 -3,-11.06 -10.3,-21.17 -21.9,-27.71 l -120.1,-67.23 c -382.1,35.69 -596.8,168.2 -697.8,253.15 -13.9,-5.28 -23.6,-18.47 -23.6,-33.8 v -225.56"
               style="fill:url(#linearGradient7653);fill-opacity:1;fill-rule:nonzero;stroke:none"
               id="path7655" />
          </g>
        </g>
      </g>
      <g
         id="g7657"
         transform="matrix(0.03527778,0,0,-0.03527778,-788.71247,284.33132)">
        <g
           id="g7659"
           clip-path="url(#clipPath7663)">
          <g
             id="g7665"
             transform="scale(1.57756)">
            <path
               d="m 16001.6,2100.59 c -24.6,0 -47.2,19.08 -47.2,45.83 v 71.06 H 15610 c -21,0 -37.9,16.54 -37.9,36.83 v 227.56 c 0,15.47 9.8,28.78 23.8,34.11 102,-85.7 318.6,-219.39 704.1,-255.4 l -274.9,-153.78 c -7.6,-4.25 -15.6,-6.21 -23.5,-6.21"
               style="fill:url(#linearGradient7675);fill-opacity:1;fill-rule:nonzero;stroke:none"
               id="path7677" />
          </g>
        </g>
      </g>
    </g>
  </g>
</svg>
