<?xml version="1.0" encoding="UTF-8" standalone="no"?>
<!-- Created with Inkscape (http://www.inkscape.org/) -->

<svg
   width="103.08626mm"
   height="112.01254mm"
   viewBox="0 0 103.08626 112.01254"
   version="1.1"
   id="svg10328"
   inkscape:version="1.2.2 (1:1.2.2+202212051550+b0a8486541)"
   sodipodi:docname="arrow_left.svg"
   xmlns:inkscape="http://www.inkscape.org/namespaces/inkscape"
   xmlns:sodipodi="http://sodipodi.sourceforge.net/DTD/sodipodi-0.dtd"
   xmlns="http://www.w3.org/2000/svg"
   xmlns:svg="http://www.w3.org/2000/svg">
  <sodipodi:namedview
     id="namedview10330"
     pagecolor="#ffffff"
     bordercolor="#000000"
     borderopacity="0.25"
     inkscape:showpageshadow="2"
     inkscape:pageopacity="0.0"
     inkscape:pagecheckerboard="0"
     inkscape:deskcolor="#d1d1d1"
     inkscape:document-units="mm"
     showgrid="false"
     inkscape:zoom="0.77949635"
     inkscape:cx="216.80666"
     inkscape:cy="196.92202"
     inkscape:window-width="1848"
     inkscape:window-height="1016"
     inkscape:window-x="1992"
     inkscape:window-y="27"
     inkscape:window-maximized="1"
     inkscape:current-layer="layer1" />
  <defs
     id="defs10325">
    <clipPath
       clipPathUnits="userSpaceOnUse"
       id="clipPath7029">
      <path
         d="m 20536.1,3448.9 1.8,0.1 c 5.3,0 10.3,-2.2 13.9,-6 l 1023,-1099 c 3.2,-3.5 5,-8 5.1,-12.6 0,-1.9 0.3,-45.6 -4.9,-90.7 -8.2,-70.9 -25.7,-105.3 -54.8,-108.3 l -2.3,-0.2 c -5.1,-0.2 -10.1,1.7 -13.8,5.3 -3.7,3.6 -5.8,8.5 -5.7,13.6 0.4,36 -14.5,78.9 -29.5,112.6 0.6,-41.6 6.8,-101.6 29.6,-174.3 2.5,-8.2 -0.8,-17.1 -8.2,-21.6 -2.4,-1.5 -5.1,-2.4 -7.8,-2.7 -5.4,-0.5 -11,1.3 -15.1,5.3 -42.8,42.4 -60.7,95.6 -78.1,147 -6.4,19 -12.9,38.3 -20.7,57.4 -11.1,-47.7 -38,-86.8 -39.8,-89.4 -3.2,-4.6 -8.2,-7.4 -13.5,-7.9 -2.6,-0.3 -5.4,0 -8.1,0.9 -7.9,2.8 -13,10.5 -12.5,18.9 0,0.3 0.6,18.1 -8.3,50.8 -0.7,-28.4 -3.5,-48.9 -3.8,-51 -1.1,-8.6 -8.1,-15.2 -16.6,-16.1 l -1.4,-0.1 c -9.2,-0.2 -17.2,6.3 -18.9,15.3 -11.6,60.6 -53,110.7 -79.5,137.6 -16.8,-58.6 -54.2,-116.6 -56,-119.5 -3.3,-5 -8.4,-7.9 -13.9,-8.5 -4,-0.4 -8.3,0.5 -12,2.9 -8.7,5.6 -11.2,17.1 -5.7,25.8 1,1.8 24.4,42.2 -11.5,103.6 -9,-43.4 6.2,-123.9 23.7,-178.4 2.9,-9.2 -1.7,-19.2 -10.7,-23 -1.7,-0.7 -3.5,-1.2 -5.3,-1.3 -7.4,-0.8 -14.8,3 -18.5,9.9 -1.4,2.7 -33.8,64.8 -107,235.2 -18.3,-34 -0.9,-87.6 -0.6,-88.3 3.2,-9.7 -1.9,-20.1 -11.5,-23.6 -1.5,-0.5 -3,-0.8 -4.4,-1 -8.3,-0.8 -16.3,3.9 -19.4,12 -1,2.4 -19.7,52.7 -22,149.2 -35.9,-31.4 -90.5,-60.9 -136.6,-65.7 -25.2,-2.6 -46.3,2.1 -62.7,14.2 -5.7,4.2 -8.6,11.2 -7.4,18.2 1.2,7 6.3,12.8 13.1,14.8 35,10.6 58.5,29.4 71.7,57.4 20.7,44.1 10.9,100.9 1.3,135.6 -21.5,-29.5 -52.8,-80.1 -57.5,-130 -0.7,-8.1 -6.6,-14.8 -14.6,-16.6 l -2.1,-0.3 c -7.2,-0.8 -14.3,2.8 -18.1,9.1 -30.5,52 -21.1,136.8 -9.5,194 -44,-43.1 -96.4,-106.7 -97.1,-159 -0.1,-8 -5.3,-15.1 -12.9,-17.6 -1.3,-0.4 -2.6,-0.7 -3.9,-0.8 -6.4,-0.7 -12.9,2.1 -16.9,7.4 -85.3,113.2 -32.5,237.7 10,305.7 -19.9,-5.8 -43.1,-11.1 -67.3,-13.6 -50.4,-5.2 -91.3,3.2 -121.6,24.9 -6.4,4.6 -9.3,12.5 -7.2,20.1 1.9,7.5 8.4,13 16.1,13.8 35.3,3.7 76.2,40.8 111.1,82.2 -25.5,-15.7 -53.9,-29.9 -82.8,-38.3 -1.1,-0.3 -2.2,-0.5 -3.3,-0.6 -3.9,-0.4 -7.8,0.4 -11.2,2.4 -4.5,2.5 -7.6,6.7 -8.9,11.7 -1.8,7.3 -1.5,15.8 0.5,25.1 -16.9,-27.7 -33.2,-59.1 -47.9,-94.5 -2.6,-6.4 -8.6,-10.8 -15.3,-11.5 l -1.6,-0.1 c -7.4,-0.1 -14.2,4.1 -17.4,10.8 -52.9,113.8 25.9,272.2 71.1,347.7 -24.6,-6.3 -55.7,-13 -87.2,-16.2 -59.6,-6.2 -102.9,2 -128.8,24.1 -6.5,5.6 -8.4,14.8 -4.6,22.5 2.9,5.9 8.6,9.8 14.9,10.4 1.8,0.2 3.7,0.1 5.6,-0.3 9.6,-1.9 20.3,-2.3 31.7,-1.1 133.6,13.8 328.1,226 330.1,228.1 3.1,3.5 7.4,5.6 11.9,6.1 z"
         id="path7027" />
    </clipPath>
    <linearGradient
       x1="0"
       y1="0"
       x2="1"
       y2="0"
       gradientUnits="userSpaceOnUse"
       gradientTransform="matrix(697.565,1252.02,1252.02,-697.565,20525.3,2103)"
       spreadMethod="pad"
       id="linearGradient7041">
      <stop
         style="stop-opacity:1;stop-color:#95d543"
         offset="0"
         id="stop7033" />
      <stop
         style="stop-opacity:1;stop-color:#95d543"
         offset="0.00000027"
         id="stop7035" />
      <stop
         style="stop-opacity:1;stop-color:#318063"
         offset="0.70902885"
         id="stop7037" />
      <stop
         style="stop-opacity:1;stop-color:#318063"
         offset="1"
         id="stop7039" />
    </linearGradient>
    <clipPath
       clipPathUnits="userSpaceOnUse"
       id="clipPath7055">
      <path
         d="m 21503.7,2549.6 0.3,1.8 c 1.1,5.1 4.3,9.5 8.9,12.1 l 1297.5,755.7 c 4.1,2.3 8.8,3.1 13.4,2.1 1.8,-0.4 44.5,-9.7 87.4,-24.7 67.3,-23.7 97,-48.3 93.5,-77.4 l -0.3,-2.2 c -0.9,-5.1 -3.9,-9.5 -8.2,-12.3 -4.3,-2.9 -9.6,-3.8 -14.6,-2.6 -35,8.4 -80,3.3 -116.3,-3.9 40.8,-8.7 100.7,-15.8 176.6,-9.6 8.6,0.7 16.5,-4.6 19.3,-12.7 0.9,-2.7 1.2,-5.5 0.8,-8.2 -0.6,-5.5 -3.7,-10.5 -8.5,-13.6 -50.7,-32.4 -106.6,-38.2 -160.6,-43.8 -19.9,-2 -40.2,-4.1 -60.5,-7.5 44,-21.4 76.3,-56.2 78.4,-58.6 3.8,-4.1 5.4,-9.6 4.8,-14.8 -0.3,-2.7 -1.2,-5.3 -2.7,-7.7 -4.5,-7.2 -13.1,-10.5 -21.2,-8.1 -0.3,0.1 -17.5,4.6 -51.4,3.1 27.6,-7 47,-14.2 48.9,-14.9 8.2,-3 13.1,-11.3 12,-19.8 l -0.2,-1.4 c -1.8,-9 -9.8,-15.4 -19,-15.1 -61.7,2.1 -119.7,-27.2 -151.8,-47.2 53.5,-29.2 101.8,-78.5 104.3,-81 4.1,-4.2 5.8,-9.8 5.1,-15.3 -0.4,-4.1 -2.3,-8 -5.4,-11.1 -7.3,-7.2 -19.2,-7.2 -26.4,0.1 -1.5,1.4 -35.8,33.1 -103.6,11.7 40.3,-18.4 122.3,-21.3 179.2,-16.3 9.7,0.8 18.4,-5.9 20.1,-15.4 0.3,-1.9 0.4,-3.7 0.2,-5.5 -0.9,-7.4 -6.2,-13.9 -13.8,-15.9 -2.9,-0.8 -70.7,-18.7 -253,-52.5 29.1,-25.3 85.3,-20.2 86,-20.1 10.1,1 19.2,-6.3 20.4,-16.4 0.2,-1.5 0.2,-3 0,-4.5 -1,-8.2 -7.3,-15.1 -15.9,-16.3 -2.6,-0.4 -55.8,-7.6 -150.4,11.5 22.7,-41.9 39.5,-101.7 34,-147.8 -3,-25.1 -12.3,-44.6 -27.7,-58 -5.3,-4.6 -12.9,-5.9 -19.4,-3.2 -6.6,2.8 -11,9 -11.6,16 -2.5,36.5 -15.7,63.5 -40.2,82.6 -38.4,29.9 -96,32.9 -131.9,31.2 24.1,-27.5 66.5,-69.1 114.2,-84.7 7.7,-2.5 12.9,-9.8 12.9,-17.9 l -0.2,-2.2 c -0.8,-7.2 -5.8,-13.3 -12.9,-15.6 -57.4,-18.3 -138,9.5 -191.3,33.5 32.4,-52.4 82.9,-117.5 133.7,-129.7 7.8,-1.9 13.6,-8.5 14.3,-16.5 0.2,-1.4 0.1,-2.7 0,-4 -0.8,-6.4 -4.9,-12.1 -10.9,-14.9 -129.3,-58.2 -239.1,20.8 -296,77.2 1.2,-20.7 1.3,-44.6 -1.6,-68.7 -6,-50.2 -23.2,-88.3 -51.1,-113.1 -5.9,-5.2 -14.3,-6.2 -21.2,-2.6 -6.9,3.6 -10.8,11.1 -9.9,18.8 4.2,35.2 -23,83.3 -55.7,126.4 9.7,-28.3 17.2,-59.1 19.1,-89.1 0,-1.2 0,-2.3 -0.1,-3.4 -0.5,-3.9 -2.2,-7.5 -4.8,-10.4 -3.5,-3.8 -8.3,-6 -13.4,-6.1 -7.5,-0.2 -15.7,2 -24.4,6 23.3,-22.6 50.4,-45.4 81.7,-67.5 5.6,-4 8.6,-10.8 7.8,-17.5 l -0.3,-1.6 c -1.5,-7.3 -7.1,-13 -14.4,-14.5 -122.6,-26.5 -259.7,85.2 -323.4,145.9 0.7,-25.3 0.3,-57.1 -3.4,-88.6 -7.2,-59.5 -24.6,-99.9 -52,-120.3 -6.8,-5.1 -16.2,-4.9 -22.9,0.4 -5.2,4.2 -7.6,10.6 -6.9,16.9 0.2,1.8 0.7,3.7 1.5,5.4 4,8.9 6.8,19.2 8.1,30.6 16,133.4 -148.1,369.9 -149.7,372.3 -2.7,3.8 -3.8,8.4 -3.3,13 z"
         id="path7053" />
    </clipPath>
    <linearGradient
       x1="0"
       y1="0"
       x2="1"
       y2="0"
       gradientUnits="userSpaceOnUse"
       gradientTransform="matrix(-1067.44,956.406,956.406,1067.44,22814.1,2242.4)"
       spreadMethod="pad"
       id="linearGradient7067">
      <stop
         style="stop-opacity:1;stop-color:#95d543"
         offset="0"
         id="stop7059" />
      <stop
         style="stop-opacity:1;stop-color:#95d543"
         offset="0.00000027"
         id="stop7061" />
      <stop
         style="stop-opacity:1;stop-color:#318063"
         offset="0.70902885"
         id="stop7063" />
      <stop
         style="stop-opacity:1;stop-color:#318063"
         offset="1"
         id="stop7065" />
    </linearGradient>
    <clipPath
       clipPathUnits="userSpaceOnUse"
       id="clipPath7081">
      <path
         d="m 20536.1,3856.3 1.8,-0.1 c 5.3,0 10.3,2.2 13.9,6 l 1023,1099 c 3.2,3.5 5,8 5.1,12.6 0,1.9 0.3,45.6 -4.9,90.7 -8.2,70.9 -25.7,105.3 -54.8,108.3 l -2.3,0.2 c -5.1,0.2 -10.1,-1.7 -13.8,-5.3 -3.7,-3.6 -5.8,-8.5 -5.7,-13.6 0.4,-36 -14.5,-78.8 -29.5,-112.6 0.6,41.6 6.8,101.6 29.6,174.3 2.5,8.2 -0.8,17.1 -8.2,21.6 -2.4,1.5 -5.1,2.4 -7.8,2.7 -5.4,0.5 -11,-1.3 -15.1,-5.4 -42.8,-42.3 -60.7,-95.5 -78.1,-146.9 -6.4,-19 -12.9,-38.3 -20.7,-57.4 -11.1,47.7 -38,86.8 -39.8,89.4 -3.2,4.6 -8.2,7.4 -13.5,7.9 -2.6,0.3 -5.4,0 -8.1,-0.9 -7.9,-2.8 -13,-10.5 -12.5,-18.9 0,-0.3 0.6,-18.1 -8.3,-50.8 -0.7,28.4 -3.5,48.9 -3.8,51 -1.1,8.6 -8.1,15.2 -16.6,16.1 l -1.4,0.1 c -9.2,0.2 -17.2,-6.3 -18.9,-15.3 -11.6,-60.6 -53,-110.7 -79.5,-137.6 -16.8,58.6 -54.2,116.6 -56,119.5 -3.3,5 -8.4,7.9 -13.9,8.5 -4,0.4 -8.3,-0.5 -12,-2.9 -8.7,-5.6 -11.2,-17.1 -5.7,-25.8 1,-1.8 24.4,-42.2 -11.5,-103.6 -9,43.4 6.2,123.9 23.7,178.4 2.9,9.2 -1.7,19.2 -10.7,23 -1.7,0.7 -3.5,1.2 -5.3,1.3 -7.4,0.8 -14.8,-3 -18.5,-9.9 -1.4,-2.7 -33.8,-64.8 -107,-235.2 -18.3,34 -0.9,87.7 -0.6,88.3 3.2,9.7 -1.9,20.2 -11.5,23.6 -1.5,0.5 -3,0.8 -4.4,1 -8.3,0.8 -16.3,-3.9 -19.4,-12 -1,-2.4 -19.7,-52.7 -22,-149.2 -35.9,31.4 -90.5,61 -136.6,65.7 -25.2,2.6 -46.3,-2.1 -62.7,-14.2 -5.7,-4.2 -8.6,-11.2 -7.4,-18.2 1.2,-7 6.3,-12.8 13.1,-14.8 35,-10.6 58.5,-29.4 71.7,-57.4 20.7,-44.1 10.9,-100.9 1.3,-135.6 -21.5,29.5 -52.8,80.1 -57.5,130 -0.7,8.1 -6.6,14.8 -14.6,16.6 l -2.1,0.3 c -7.2,0.8 -14.3,-2.7 -18.1,-9.1 -30.5,-52 -21.1,-136.8 -9.5,-194 -44,43.1 -96.4,106.7 -97.1,159 -0.1,8 -5.3,15.1 -12.9,17.6 -1.3,0.4 -2.6,0.7 -3.9,0.8 -6.4,0.7 -12.9,-2 -16.9,-7.4 -85.3,-113.2 -32.5,-237.7 10,-305.7 -19.9,5.8 -43.1,11.1 -67.3,13.6 -50.4,5.2 -91.3,-3.2 -121.6,-24.9 -6.4,-4.5 -9.3,-12.5 -7.2,-20.1 1.9,-7.5 8.4,-13 16.1,-13.8 35.3,-3.6 76.2,-40.7 111.1,-82.2 -25.5,15.7 -53.9,29.9 -82.8,38.3 -1.1,0.3 -2.2,0.5 -3.3,0.6 -3.9,0.4 -7.8,-0.4 -11.2,-2.4 -4.5,-2.5 -7.6,-6.7 -8.9,-11.7 -1.8,-7.3 -1.5,-15.8 0.5,-25 -16.9,27.6 -33.2,59 -47.9,94.4 -2.6,6.4 -8.6,10.8 -15.3,11.5 l -1.6,0.1 c -7.4,0.2 -14.2,-4.1 -17.4,-10.8 -52.9,-113.8 25.9,-272.2 71.1,-347.7 -24.6,6.3 -55.7,13 -87.2,16.2 -59.6,6.2 -102.9,-1.9 -128.8,-24.1 -6.5,-5.6 -8.4,-14.8 -4.6,-22.5 2.9,-5.9 8.6,-9.8 14.9,-10.4 1.8,-0.2 3.7,-0.1 5.6,0.3 9.6,1.9 20.3,2.3 31.7,1.1 133.6,-13.8 328.1,-226 330.1,-228.1 3.1,-3.5 7.4,-5.6 11.9,-6.1 z"
         id="path7079" />
    </clipPath>
    <linearGradient
       x1="0"
       y1="0"
       x2="1"
       y2="0"
       gradientUnits="userSpaceOnUse"
       gradientTransform="matrix(697.565,-1252.02,1252.02,697.565,20525.3,5202.2)"
       spreadMethod="pad"
       id="linearGradient7093">
      <stop
         style="stop-opacity:1;stop-color:#95d543"
         offset="0"
         id="stop7085" />
      <stop
         style="stop-opacity:1;stop-color:#95d543"
         offset="0.00000027"
         id="stop7087" />
      <stop
         style="stop-opacity:1;stop-color:#318063"
         offset="0.70902885"
         id="stop7089" />
      <stop
         style="stop-opacity:1;stop-color:#318063"
         offset="1"
         id="stop7091" />
    </linearGradient>
    <clipPath
       clipPathUnits="userSpaceOnUse"
       id="clipPath7107">
      <path
         d="m 21503.7,4755.6 0.3,-1.8 c 1.1,-5.1 4.3,-9.5 8.9,-12.1 L 22810.4,3986 c 4.1,-2.3 8.8,-3.1 13.4,-2.1 1.8,0.4 44.5,9.7 87.4,24.8 67.3,23.6 97,48.2 93.5,77.3 l -0.3,2.2 c -0.9,5.1 -3.9,9.5 -8.2,12.3 -4.3,2.9 -9.6,3.8 -14.6,2.6 -35,-8.4 -80,-3.2 -116.3,3.9 40.8,8.7 100.7,15.9 176.6,9.6 8.6,-0.7 16.5,4.6 19.3,12.7 0.9,2.7 1.2,5.5 0.8,8.2 -0.6,5.5 -3.7,10.5 -8.5,13.6 -50.7,32.4 -106.6,38.2 -160.6,43.8 -19.9,2 -40.2,4.1 -60.5,7.6 44,21.3 76.3,56.2 78.4,58.5 3.8,4.1 5.4,9.6 4.8,14.8 -0.3,2.7 -1.2,5.3 -2.7,7.7 -4.5,7.2 -13.1,10.5 -21.2,8.1 -0.3,-0.1 -17.5,-4.6 -51.4,-3.1 27.6,7 47,14.2 48.9,14.9 8.2,3 13.1,11.3 12,19.8 l -0.2,1.4 c -1.8,9 -9.8,15.4 -19,15.1 -61.7,-2.1 -119.7,27.2 -151.8,47.2 53.5,29.2 101.8,78.5 104.3,81 4.1,4.2 5.8,9.9 5.1,15.3 -0.4,4.1 -2.3,8 -5.4,11.1 -7.3,7.2 -19.2,7.2 -26.4,-0.1 -1.5,-1.4 -35.8,-33.1 -103.6,-11.7 40.3,18.4 122.3,21.3 179.2,16.3 9.7,-0.8 18.4,5.9 20.1,15.4 0.3,1.9 0.4,3.7 0.2,5.5 -0.9,7.4 -6.2,13.9 -13.8,15.9 -2.9,0.8 -70.7,18.7 -253,52.5 29.1,25.3 85.3,20.2 86,20.1 10.1,-1 19.2,6.3 20.4,16.4 0.2,1.5 0.2,3 0,4.5 -1,8.2 -7.3,15.1 -15.9,16.3 -2.6,0.4 -55.8,7.6 -150.4,-11.5 22.7,41.9 39.5,101.7 34,147.8 -3,25.1 -12.3,44.6 -27.7,58 -5.3,4.6 -12.9,5.9 -19.4,3.2 -6.6,-2.8 -11,-9 -11.6,-16 -2.5,-36.5 -15.7,-63.5 -40.2,-82.6 -38.4,-29.9 -96,-32.9 -131.9,-31.2 24.1,27.5 66.5,69.1 114.2,84.7 7.7,2.6 12.9,9.8 12.9,17.9 l -0.2,2.2 c -0.8,7.2 -5.8,13.3 -12.9,15.6 -57.4,18.3 -138,-9.5 -191.3,-33.5 32.4,52.4 82.9,117.5 133.7,129.7 7.8,1.9 13.6,8.5 14.3,16.5 0.2,1.4 0.1,2.7 0,4 -0.8,6.4 -4.9,12.1 -10.9,14.9 -129.3,58.2 -239.1,-20.8 -296,-77.2 1.2,20.7 1.3,44.6 -1.6,68.7 -6,50.2 -23.2,88.3 -51.1,113.1 -5.9,5.2 -14.3,6.2 -21.2,2.6 -6.9,-3.6 -10.8,-11.1 -9.9,-18.8 4.2,-35.2 -23,-83.3 -55.7,-126.4 9.7,28.3 17.2,59.1 19.1,89.1 0,1.2 0,2.3 -0.1,3.4 -0.5,3.9 -2.2,7.5 -4.8,10.4 -3.5,3.8 -8.3,6 -13.4,6.1 -7.5,0.2 -15.7,-2 -24.4,-6 23.3,22.6 50.4,45.4 81.7,67.5 5.6,4 8.6,10.8 7.8,17.5 l -0.3,1.6 c -1.5,7.3 -7.1,13 -14.4,14.5 -122.6,26.5 -259.7,-85.2 -323.4,-145.9 0.7,25.3 0.3,57.1 -3.4,88.6 -7.2,59.5 -24.6,99.9 -52,120.3 -6.8,5.1 -16.2,4.9 -22.9,-0.4 -5.2,-4.2 -7.6,-10.6 -6.9,-16.9 0.2,-1.8 0.7,-3.6 1.5,-5.4 4,-8.9 6.8,-19.2 8.1,-30.7 16,-133.3 -148.1,-369.8 -149.7,-372.2 -2.7,-3.8 -3.8,-8.4 -3.3,-13 z"
         id="path7105" />
    </clipPath>
    <linearGradient
       x1="0"
       y1="0"
       x2="1"
       y2="0"
       gradientUnits="userSpaceOnUse"
       gradientTransform="matrix(-1067.44,-956.406,956.406,-1067.44,22814.1,5062.9)"
       spreadMethod="pad"
       id="linearGradient7119">
      <stop
         style="stop-opacity:1;stop-color:#95d543"
         offset="0"
         id="stop7111" />
      <stop
         style="stop-opacity:1;stop-color:#95d543"
         offset="0.00000027"
         id="stop7113" />
      <stop
         style="stop-opacity:1;stop-color:#318063"
         offset="0.70902885"
         id="stop7115" />
      <stop
         style="stop-opacity:1;stop-color:#318063"
         offset="1"
         id="stop7117" />
    </linearGradient>
    <clipPath
       clipPathUnits="userSpaceOnUse"
       id="clipPath7133">
      <path
         d="m 21610.8,2321.4 c -119.3,0 -220,129.6 -330,159.1 -25.4,6.8 -52.8,9 -81,9 -26.7,0 -54.3,-2 -81.7,-4 -13.2,-1 -26.4,-1.9 -39.4,-2.6 -14.2,-0.8 -28.2,-1.4 -42,-1.4 -2.7,0 -5.3,0 -8,0.1 -41.3,0.6 -80.1,6.7 -113.2,25.8 -101,58.5 -123.7,221.1 -205.7,303.1 -42.7,42.7 -107.2,69.3 -167.6,99.3 -30.2,15 -59.3,30.9 -84.2,50 -20.8,16 -38.5,34.4 -51.3,56.5 -57.7,99.7 3.4,251.5 -27,365.3 -29.4,110 -159.1,210.6 -159.1,329.9 0,103 96.7,192.1 142,285.3 7.2,14.7 13.1,29.6 17.1,44.6 0.5,1.8 0.9,3.6 1.3,5.4 27.2,113.2 -31.1,261.8 25.7,359.9 20.7,35.9 54.5,61.8 93.2,84.1 -13.8,-12.4 -25.8,-26.2 -34.9,-42.1 -54.2,-93.6 3.2,-236.2 -25.4,-343.2 -3.5,-13.2 -8.7,-26.4 -14.9,-39.5 -17.1,-35.8 -42.2,-70.9 -66.3,-106.4 -35.4,-52.5 -68.2,-105.9 -68.2,-164.1 0,-2.4 0,-4.8 0.1,-7.2 -0.1,-2.4 -0.1,-4.8 -0.1,-7.3 0,-113.3 123.2,-208.9 151.1,-313.3 2.7,-10.2 4.6,-20.7 6,-31.4 4.6,-71.8 -12.6,-152.4 -4.5,-221.8 1.4,-29.5 6.4,-57.4 18,-82.3 v 0 c 1.8,-4 3.9,-7.8 6.1,-11.6 55.5,-96 210,-117.6 287.9,-195.4 78,-78 99.5,-232.5 195.5,-288 33.5,-19.3 73.1,-24.6 115.2,-24.6 25.1,0 51.2,1.9 77.2,3.8 26.1,1.9 52.2,3.7 77.6,3.7 26.8,0 52.8,-2.1 77,-8.5 104.5,-28 200.1,-151.1 313.5,-151.1 113.3,0 208.9,123.1 313.3,151.1 24.2,6.4 50.2,8.5 77.1,8.5 25.3,0 51.5,-1.8 77.6,-3.7 26,-1.9 52.1,-3.8 77.2,-3.8 42.1,0 81.7,5.3 115.2,24.6 96,55.5 117.6,210 195.4,288 69.9,69.8 201.5,94.3 267.7,168 7.8,8.4 14.5,17.5 20.3,27.4 19.1,33 24.5,72.2 24.6,113.6 0.2,77.4 -17.8,163.1 1,233.5 13.8,51.5 50.6,100.7 84.5,151.1 v 0 c 19.6,29 38.1,58.3 50.6,88.6 v 0 0 c 9.9,23.9 16,48.3 16,73.6 0,113.4 -123.2,209 -151.1,313.5 -28.9,108.1 29.2,252.3 -25.6,347 -15.7,27.1 -39.2,48.2 -66.7,66.4 -2.4,1.5 -4.9,3.1 -7.3,4.7 55,-27.5 106.4,-57.8 134.2,-105.9 56.8,-98.1 -1.5,-246.7 25.7,-359.9 0.4,-1.8 0.8,-3.6 1.3,-5.4 4,-15 9.9,-29.9 17.1,-44.6 45.4,-93.2 142,-182.3 142,-285.3 0,-119.3 -129.7,-219.9 -159.1,-329.9 -30.4,-113.8 30.7,-265.6 -27,-365.3 -12.8,-22.1 -30.5,-40.5 -51.3,-56.5 -24.9,-19.1 -54,-35 -84.2,-50 -60.3,-30 -124.9,-56.6 -167.6,-99.3 -82,-82 -104.7,-244.6 -205.7,-303.1 -35.2,-20.3 -77,-25.9 -121.2,-25.9 -6.3,0 -12.7,0.1 -19.1,0.3 -16.5,0.5 -33.2,1.6 -50,2.8 -4.1,0.3 -8.2,0.6 -12.3,0.9 -27.4,2 -55,4 -81.7,4 -28.2,0 -55.6,-2.2 -81,-9 -110,-29.5 -210.7,-159.1 -329.9,-159.1 m 950.1,2253 c -35.5,17.9 -68.9,37.2 -94.3,62.6 -2.1,2.1 -4.3,4.4 -6.4,6.7 -72.7,79.7 -95.6,227.2 -189,281.2 -8.3,4.8 -16.9,8.7 -25.9,11.9 21.7,-3.8 42.1,-10.5 60.7,-21.2 101.1,-58.5 123.7,-221.1 205.7,-303.1 14.3,-14.3 31,-26.7 49.2,-38.1 m -1858.4,31.2 c 2.5,2.2 4.9,4.5 7.3,6.9 82,82 104.7,244.6 205.7,303.1 10.9,6.3 22.3,11.1 34.2,14.8 -2.2,-1.1 -4.4,-2.3 -6.6,-3.6 -95,-54.9 -116.3,-207.6 -193.3,-284.7 -13.7,-13.7 -29.8,-25.6 -47.3,-36.5 m 1183.7,359 c -90.1,42.1 -176,137 -275.4,137 -2.5,0 -4.9,0 -7.3,-0.1 -0.2,0 -0.3,0 -0.5,0 2.6,0.1 5.2,0.2 7.8,0.2 27.5,0 54.1,-7 80,-18 67.5,-28.7 130.6,-85.1 195.4,-119.1"
         id="path7131" />
    </clipPath>
    <linearGradient
       x1="0"
       y1="0"
       x2="1"
       y2="0"
       gradientUnits="userSpaceOnUse"
       gradientTransform="matrix(866.141,-1967.81,-1967.81,-866.141,21337.2,4332.9)"
       spreadMethod="pad"
       id="linearGradient7143">
      <stop
         style="stop-opacity:1;stop-color:#f8a45b"
         offset="0"
         id="stop7137" />
      <stop
         style="stop-opacity:1;stop-color:#562500"
         offset="0.70902877"
         id="stop7139" />
      <stop
         style="stop-opacity:1;stop-color:#562500"
         offset="1"
         id="stop7141" />
    </linearGradient>
    <clipPath
       clipPathUnits="userSpaceOnUse"
       id="clipPath7153">
      <path
         d="m 21610.8,2460.5 c -113.4,0 -209,123.1 -313.5,151.1 -24.2,6.4 -50.2,8.5 -77,8.5 -25.4,0 -51.5,-1.8 -77.6,-3.7 -26,-1.9 -52.1,-3.8 -77.2,-3.8 -42.1,0 -81.7,5.3 -115.2,24.6 -96,55.5 -117.5,210 -195.5,288 -77.9,77.8 -232.4,99.4 -287.9,195.4 -2.2,3.8 -4.3,7.6 -6.1,11.6 2.5,1.5 5.1,3 7.6,4.5 57.6,-90.1 205.8,-112.1 281.4,-187.6 77,-77.1 98.3,-229.8 193.3,-284.8 33.1,-19.1 72.2,-24.3 113.8,-24.3 24.9,0 50.7,1.9 76.5,3.7 25.8,1.9 51.6,3.8 76.7,3.8 26.6,0 52.3,-2.1 76.2,-8.5 103.3,-27.7 197.9,-149.5 310,-149.5 112,0 206.5,121.8 309.9,149.5 23.9,6.4 49.6,8.5 76.1,8.5 25.1,0 51,-1.9 76.8,-3.8 25.8,-1.8 51.6,-3.7 76.5,-3.7 41.5,0 80.7,5.2 113.8,24.3 95,55 116.2,207.7 193.3,284.7 77.1,77.2 229.9,98.5 284.8,193.4 54.1,93.7 -3.3,236.3 25.3,343.3 12,44.8 41.9,88.1 71.7,131.9 13.4,0.4 26.8,0.8 40.2,1.2 -33.9,-50.4 -70.7,-99.6 -84.5,-151.1 -18.8,-70.4 -0.8,-156.1 -1,-233.5 -0.1,-41.4 -5.5,-80.6 -24.6,-113.6 -5.8,-9.9 -12.5,-19 -20.3,-27.4 -66.2,-73.7 -197.8,-98.2 -267.7,-168 -77.8,-78 -99.4,-232.5 -195.4,-288 -33.5,-19.3 -73.1,-24.6 -115.2,-24.6 -25.1,0 -51.2,1.9 -77.2,3.8 -26.1,1.9 -52.3,3.7 -77.6,3.7 -26.9,0 -52.9,-2.1 -77.1,-8.5 -104.4,-28 -200,-151.1 -313.3,-151.1 m -1163.5,975.8 c -1.4,10.7 -3.3,21.2 -6,31.4 -27.9,104.4 -151.1,200 -151.1,313.3 0,2.5 0,4.9 0.1,7.3 5.1,-108.8 122.2,-201.6 149.3,-302.6 4.2,-15.8 6.6,-32.4 7.7,-49.4 m 2431.6,269.7 c 14.1,28.9 23.4,58.5 23.4,89.5 0,112.1 -121.8,206.7 -149.5,310 -28.6,107 28.8,249.6 -25.3,343.2 -15.5,26.9 -38.9,47.9 -66.2,65.9 -69.1,45.6 -163.3,72.2 -218.5,127.5 -3.6,3.5 -7,7.2 -10.1,11 -69.1,79.8 -92.7,221.3 -183.3,273.7 -21.9,12.7 -46.5,19.3 -72.6,22.3 24.1,-1.2 47.2,-4.7 68.5,-12.3 9,-3.2 17.6,-7.1 25.9,-11.9 93.4,-54 116.3,-201.5 189,-281.2 2.1,-2.3 4.3,-4.6 6.4,-6.7 25.4,-25.4 58.8,-44.7 94.3,-62.6 40.1,-20.3 83,-38.7 119.7,-61.8 2.4,-1.6 4.9,-3.2 7.3,-4.7 27.5,-18.2 51,-39.3 66.7,-66.4 54.8,-94.7 -3.3,-238.9 25.6,-347 27.9,-104.5 151.1,-200.1 151.1,-313.5 0,-25.3 -6.1,-49.7 -16,-73.6 v 0 c -11.5,-0.4 -23.7,-0.9 -36.4,-1.4 m -923.4,1238.5 c -17.1,1.1 -33.6,3.5 -49.3,7.7 -101.1,27.1 -193.9,144.2 -302.7,149.3 2.4,0.1 4.8,0.1 7.3,0.1 99.4,0 185.3,-94.9 275.4,-137 12.6,-5.8 25.2,-10.7 37.9,-14.1 10.2,-2.7 20.6,-4.6 31.4,-6"
         id="path7151" />
    </clipPath>
    <linearGradient
       x1="0"
       y1="0"
       x2="1"
       y2="0"
       gradientUnits="userSpaceOnUse"
       gradientTransform="matrix(-2666.8,2034.29,2034.29,2666.8,23720.5,2171.7)"
       spreadMethod="pad"
       id="linearGradient7163">
      <stop
         style="stop-opacity:1;stop-color:#f8a45b"
         offset="0"
         id="stop7157" />
      <stop
         style="stop-opacity:1;stop-color:#96440c"
         offset="0.83257708"
         id="stop7159" />
      <stop
         style="stop-opacity:1;stop-color:#96440c"
         offset="1"
         id="stop7161" />
    </linearGradient>
    <clipPath
       clipPathUnits="userSpaceOnUse"
       id="clipPath7173">
      <path
         d="m 21596.3,2489.5 c -112.1,0 -206.7,121.8 -310,149.5 -23.9,6.4 -49.6,8.5 -76.2,8.5 -25.1,0 -50.9,-1.9 -76.7,-3.8 -25.8,-1.8 -51.6,-3.7 -76.5,-3.7 -41.6,0 -80.7,5.2 -113.8,24.3 -95,55 -116.3,207.7 -193.3,284.8 -75.6,75.5 -223.8,97.5 -281.4,187.6 146,85.8 370,186.5 705.6,274 l 372.7,-215.2 c 20.1,-11.6 42.8,-17.8 65.6,-17.8 72.6,0 131.6,59.1 131.6,131.7 v 69.4 h 521.4 c 64.1,0 116.2,52.1 116.2,116.1 v 99.9 c 138.9,10.1 286.4,17.8 443,22.8 -29.8,-43.8 -59.7,-87.1 -71.7,-131.9 -28.6,-107 28.8,-249.6 -25.3,-343.3 -54.9,-94.9 -207.7,-116.2 -284.8,-193.4 -77.1,-77 -98.3,-229.7 -193.3,-284.7 -33.1,-19.1 -72.3,-24.3 -113.8,-24.3 -24.9,0 -50.7,1.9 -76.5,3.7 -25.8,1.9 -51.7,3.8 -76.8,3.8 -26.5,0 -52.2,-2.1 -76.1,-8.5 -103.4,-27.7 -197.9,-149.5 -309.9,-149.5 m -1153.5,725 c -8.1,69.4 9.1,150 4.5,221.8 -1.1,17 -3.5,33.6 -7.7,49.4 -27.1,101 -144.2,193.8 -149.3,302.6 -0.1,2.4 -0.1,4.8 -0.1,7.2 0,58.2 32.8,111.6 68.2,164.1 24.1,35.5 49.2,70.6 66.3,106.4 6.2,13.1 11.4,26.3 14.9,39.5 28.6,107 -28.8,249.6 25.4,343.2 9.1,15.9 21.1,29.7 34.9,42.1 54.3,48.5 138.1,74.6 202.6,114.8 17.5,10.9 33.6,22.8 47.3,36.5 77,77.1 98.3,229.8 193.3,284.7 2.2,1.3 4.4,2.5 6.6,3.6 23.9,12.3 50.6,17.8 79,19.9 9.2,0.6 18.7,0.9 28.2,0.9 7.2,0 14.5,-0.2 21.8,-0.4 18,-0.7 36.3,-2 54.6,-3.4 25.9,-1.8 51.7,-3.7 76.8,-3.7 26.6,0 52.3,2.1 76.2,8.5 78.6,21 152.2,96.6 232.3,131.5 25.1,11 50.9,17.9 77.7,17.9 2.2,0 4.5,0 6.7,-0.1 0.2,0 0.3,0 0.5,0 108.8,-5.1 201.6,-122.2 302.7,-149.3 15.7,-4.2 32.2,-6.6 49.3,-7.7 8.8,-0.5 17.7,-0.8 26.8,-0.8 25.1,0 51,1.9 76.8,3.7 19,1.4 38,2.8 56.6,3.4 6.7,0.3 13.3,0.4 19.9,0.4 10.2,0 20.2,-0.3 30.1,-1.1 3.7,-0.3 7.4,-0.6 11.1,-1 26.1,-3 50.7,-9.6 72.6,-22.3 90.6,-52.4 114.2,-193.9 183.3,-273.7 3.1,-3.8 6.5,-7.5 10.1,-11 55.2,-55.3 149.4,-81.9 218.5,-127.5 27.3,-18 50.7,-39 66.2,-65.9 54.1,-93.6 -3.3,-236.2 25.3,-343.2 27.7,-103.3 149.5,-197.9 149.5,-310 0,-31 -9.3,-60.6 -23.4,-89.5 -120.2,-5 -293.6,-14 -497.4,-30.5 v 210.7 c 0,64 -52.1,116.1 -116.2,116.1 h -521.4 v 69.4 c 0,72.6 -59,131.6 -131.6,131.6 -22.8,0 -45.5,-6.1 -65.6,-17.7 l -660.2,-381.2 c -41.2,-23.8 -65.8,-66.3 -65.8,-113.9 0,-47.5 24.6,-90.1 65.8,-113.8 l 166.1,-95.9 c -189.6,-44.7 -371.5,-97.9 -534.5,-161.3 -27.7,-32.1 -52.9,-61.4 -75.7,-88.3 0,-5.6 0.1,-11.2 0.4,-16.7"
         id="path7171" />
    </clipPath>
    <linearGradient
       x1="0"
       y1="0"
       x2="1"
       y2="0"
       gradientUnits="userSpaceOnUse"
       gradientTransform="matrix(984.348,-1983.72,-1983.72,-984.348,21241.6,4510.3)"
       spreadMethod="pad"
       id="linearGradient7183">
      <stop
         style="stop-opacity:1;stop-color:#f8a45b"
         offset="0"
         id="stop7177" />
      <stop
         style="stop-opacity:1;stop-color:#96440c"
         offset="0.83257708"
         id="stop7179" />
      <stop
         style="stop-opacity:1;stop-color:#96440c"
         offset="1"
         id="stop7181" />
    </linearGradient>
    <clipPath
       clipPathUnits="userSpaceOnUse"
       id="clipPath7193">
      <path
         d="m 20921.7,4009.8 c -184,-29.4 -413.3,-43.6 -563.3,-50.2 24.1,35.5 49.2,70.6 66.3,106.4 131,-8.3 310.2,-15 491.9,-6.9 31.3,1.4 36,-44.3 5.1,-49.3 z"
         id="path7191" />
    </clipPath>
    <linearGradient
       x1="0"
       y1="0"
       x2="1"
       y2="0"
       gradientUnits="userSpaceOnUse"
       gradientTransform="matrix(15.1955,-201.34,-201.34,-15.1955,20642.5,4104)"
       spreadMethod="pad"
       id="linearGradient7207">
      <stop
         style="stop-opacity:1;stop-color:#96440c"
         offset="0"
         id="stop7197" />
      <stop
         style="stop-opacity:1;stop-color:#96440c"
         offset="0.384357"
         id="stop7199" />
      <stop
         style="stop-opacity:1;stop-color:#b76427"
         offset="0.49308009"
         id="stop7201" />
      <stop
         style="stop-opacity:1;stop-color:#b76427"
         offset="0.50391"
         id="stop7203" />
      <stop
         style="stop-opacity:1;stop-color:#b76427"
         offset="1"
         id="stop7205" />
    </linearGradient>
    <clipPath
       clipPathUnits="userSpaceOnUse"
       id="clipPath7217">
      <path
         d="m 20460.8,3132.2 c -11.6,24.9 -16.6,52.8 -18,82.3 -0.3,5.5 -0.4,11.1 -0.4,16.7 22.8,26.9 48,56.2 75.7,88.3 163,63.4 344.9,116.6 534.5,161.3 l 121.4,-70.1 c -335.6,-87.5 -559.6,-188.2 -705.6,-274 -2.5,-1.5 -5.1,-3 -7.6,-4.5 v 0 m 1920.7,462.6 v 80.7 c 203.8,16.5 377.2,25.5 497.4,30.5 12.7,0.5 24.9,1 36.4,1.4 v 0 c -12.5,-30.3 -31,-59.6 -50.6,-88.6 v 0 c -13.4,-0.4 -26.8,-0.8 -40.2,-1.2 -156.6,-5 -304.1,-12.7 -443,-22.8"
         id="path7215" />
    </clipPath>
    <linearGradient
       x1="0"
       y1="0"
       x2="1"
       y2="0"
       gradientUnits="userSpaceOnUse"
       gradientTransform="matrix(37.9886,-284.915,-284.915,-37.9886,21653.5,3647.7)"
       spreadMethod="pad"
       id="linearGradient7231">
      <stop
         style="stop-opacity:1;stop-color:#96440c"
         offset="0"
         id="stop7221" />
      <stop
         style="stop-opacity:1;stop-color:#96440c"
         offset="0.384357"
         id="stop7223" />
      <stop
         style="stop-opacity:1;stop-color:#b76427"
         offset="0.49308009"
         id="stop7225" />
      <stop
         style="stop-opacity:1;stop-color:#b76427"
         offset="0.50391"
         id="stop7227" />
      <stop
         style="stop-opacity:1;stop-color:#b76427"
         offset="1"
         id="stop7229" />
    </linearGradient>
    <clipPath
       clipPathUnits="userSpaceOnUse"
       id="clipPath7241">
      <path
         d="m 22779.2,3234.2 c -0.1,-41.4 -5.5,-80.6 -24.6,-113.6 -5.8,-9.9 -12.5,-19 -20.3,-27.4 -135.5,-34.9 -482.6,-118.2 -816.8,-151.3 -23.3,-2.3 -28.2,32.1 -5.1,36.4 341,62.9 683.6,184.8 866.8,255.9 z"
         id="path7239" />
    </clipPath>
    <linearGradient
       x1="0"
       y1="0"
       x2="1"
       y2="0"
       gradientUnits="userSpaceOnUse"
       gradientTransform="matrix(45.9233,-200.914,-200.914,-45.9233,22329.3,3135.8)"
       spreadMethod="pad"
       id="linearGradient7255">
      <stop
         style="stop-opacity:1;stop-color:#96440c"
         offset="0"
         id="stop7245" />
      <stop
         style="stop-opacity:1;stop-color:#96440c"
         offset="0.384357"
         id="stop7247" />
      <stop
         style="stop-opacity:1;stop-color:#b76427"
         offset="0.49308009"
         id="stop7249" />
      <stop
         style="stop-opacity:1;stop-color:#b76427"
         offset="0.50391"
         id="stop7251" />
      <stop
         style="stop-opacity:1;stop-color:#b76427"
         offset="1"
         id="stop7253" />
    </linearGradient>
    <clipPath
       clipPathUnits="userSpaceOnUse"
       id="clipPath7265">
      <path
         d="m 22687.9,4507.9 c -174,-46.3 -671.5,-168.1 -1099.6,-169.8 -26.6,-0.2 -30.4,38.4 -4.2,43.3 341.5,64.2 688.8,189 876.1,262.3 2.1,-2.3 4.3,-4.5 6.4,-6.7 56,-56 151.4,-82.8 221.3,-129.1 z"
         id="path7263" />
    </clipPath>
    <linearGradient
       x1="0"
       y1="0"
       x2="1"
       y2="0"
       gradientUnits="userSpaceOnUse"
       gradientTransform="matrix(56.983,-273.518,-273.518,-56.983,22094.3,4590.1)"
       spreadMethod="pad"
       id="linearGradient7279">
      <stop
         style="stop-opacity:1;stop-color:#96440c"
         offset="0"
         id="stop7269" />
      <stop
         style="stop-opacity:1;stop-color:#96440c"
         offset="0.384357"
         id="stop7271" />
      <stop
         style="stop-opacity:1;stop-color:#b76427"
         offset="0.49308009"
         id="stop7273" />
      <stop
         style="stop-opacity:1;stop-color:#b76427"
         offset="0.50391"
         id="stop7275" />
      <stop
         style="stop-opacity:1;stop-color:#b76427"
         offset="1"
         id="stop7277" />
    </linearGradient>
    <clipPath
       clipPathUnits="userSpaceOnUse"
       id="clipPath7289">
      <path
         d="m 21612.3,3230.6 c -13.1,0 -26.5,3.3 -39.2,10.6 l -660.2,381.2 c -32.7,18.9 -45,55.4 -37,87.6 4.8,-17.6 16.3,-33.7 34.8,-44.1 l 191.2,-107 v 0 l 433.6,-242.6 c 11.9,-6.7 24.7,-9.8 37.1,-9.8 38.8,0 74.5,30.1 74.5,72.3 v 112.1 h 543.2 c 33.1,0 59.9,26.1 59.9,58.1 v 359 0 c 0,16.2 -6.9,31 -18,41.5 h 33.1 c 35,0 63.3,-28.4 63.3,-63.3 v -391.3 c 0,-35 -28.3,-63.3 -63.3,-63.3 h -574.2 v -122.2 c 0,-46 -37.7,-78.8 -78.8,-78.8 m 78.8,735.5 h -44 v 112.1 c 0,34.9 -24.4,61.5 -54.8,69.7 6.7,1.8 13.4,2.6 20,2.6 41.1,0 78.8,-32.8 78.8,-78.8 v -105.6"
         id="path7287" />
    </clipPath>
    <linearGradient
       x1="0"
       y1="0"
       x2="1"
       y2="0"
       gradientUnits="userSpaceOnUse"
       gradientTransform="matrix(378.083,-761.939,-761.939,-378.083,21529.4,3930.8)"
       spreadMethod="pad"
       id="linearGradient7299">
      <stop
         style="stop-opacity:1;stop-color:#318063"
         offset="0"
         id="stop7293" />
      <stop
         style="stop-opacity:1;stop-color:#124933"
         offset="0.70902877"
         id="stop7295" />
      <stop
         style="stop-opacity:1;stop-color:#124933"
         offset="1"
         id="stop7297" />
    </linearGradient>
    <clipPath
       clipPathUnits="userSpaceOnUse"
       id="clipPath7313">
      <path
         d="m 21101.9,3558.9 v 0 l -191.2,107 c -18.5,10.4 -30,26.5 -34.8,44.1 -8,29.7 3.6,63.6 34.8,81.1 l 624.8,349.6 c 11.9,6.7 24.7,9.8 37.1,9.8 6.7,0 13.3,-0.9 19.7,-2.6 30.4,-8.2 54.8,-34.8 54.8,-69.7 v -112.1 h 44 499.2 c 8,0 15.4,-1.5 22.2,-4.3 7.4,-2.8 14.1,-7 19.7,-12.3 11.1,-10.5 18,-25.3 18,-41.5 v 0 c 0,24.4 -15.5,45.4 -37.7,53.8 -160.7,-135.2 -502.4,-346.1 -1110.6,-402.9"
         id="path7311" />
    </clipPath>
    <linearGradient
       x1="0"
       y1="0"
       x2="1"
       y2="0"
       gradientUnits="userSpaceOnUse"
       gradientTransform="matrix(332.014,-669.096,-669.096,-332.014,21503.4,3934.3)"
       spreadMethod="pad"
       id="linearGradient7325">
      <stop
         style="stop-opacity:1;stop-color:#95d543"
         offset="0"
         id="stop7317" />
      <stop
         style="stop-opacity:1;stop-color:#95d543"
         offset="0.00000027"
         id="stop7319" />
      <stop
         style="stop-opacity:1;stop-color:#e3ffbb"
         offset="0.70902885"
         id="stop7321" />
      <stop
         style="stop-opacity:1;stop-color:#e3ffbb"
         offset="1"
         id="stop7323" />
    </linearGradient>
    <clipPath
       clipPathUnits="userSpaceOnUse"
       id="clipPath7335">
      <path
         d="m 21572.6,3306.5 c -12.4,0 -25.2,3.1 -37.1,9.8 l -433.6,242.6 c 608.2,56.8 949.9,267.7 1110.6,402.9 22.2,-8.4 37.7,-29.4 37.7,-53.8 v -359 c 0,-32 -26.8,-58.1 -59.9,-58.1 h -543.2 v -112.1 c 0,-42.2 -35.7,-72.3 -74.5,-72.3"
         id="path7333" />
    </clipPath>
    <linearGradient
       x1="0"
       y1="0"
       x2="1"
       y2="0"
       gradientUnits="userSpaceOnUse"
       gradientTransform="matrix(332.014,-669.096,-669.096,-332.014,21503.4,3934.3)"
       spreadMethod="pad"
       id="linearGradient7347">
      <stop
         style="stop-opacity:1;stop-color:#7cc04b"
         offset="0"
         id="stop7339" />
      <stop
         style="stop-opacity:1;stop-color:#7cc04b"
         offset="0.00000027"
         id="stop7341" />
      <stop
         style="stop-opacity:1;stop-color:#b6dfa5"
         offset="0.70902885"
         id="stop7343" />
      <stop
         style="stop-opacity:1;stop-color:#b6dfa5"
         offset="1"
         id="stop7345" />
    </linearGradient>
  </defs>
  <g
     inkscape:label="Layer 1"
     inkscape:groupmode="layer"
     id="layer1"
     transform="translate(-47.51861,-96.637939)">
    <g
       id="g10965">
      <g
         id="g7023"
         transform="matrix(0.03527778,0,0,-0.03527778,-662.97664,281.49991)">
        <g
           id="g7025"
           clip-path="url(#clipPath7029)">
          <g
             id="g7031"
             transform="scale(1.32393)">
            <path
               d="m 15511.5,2605.06 1.4,0.07 c 4,0 7.8,-1.66 10.5,-4.53 l 772.7,-830.11 c 2.4,-2.64 3.8,-6.04 3.8,-9.51 0,-1.44 0.3,-34.45 -3.7,-68.51 -6.2,-53.56 -19.4,-79.54 -41.4,-81.8 l -1.7,-0.16 c -3.9,-0.15 -7.6,1.29 -10.4,4.01 -2.8,2.72 -4.4,6.42 -4.3,10.27 0.3,27.19 -11,59.59 -22.3,85.05 0.4,-31.42 5.1,-76.74 22.3,-131.66 1.9,-6.19 -0.6,-12.91 -6.2,-16.31 -1.8,-1.13 -3.8,-1.81 -5.8,-2.04 -4.1,-0.38 -8.4,0.98 -11.4,4.01 -32.4,32.02 -45.9,72.2 -59,111.03 -4.9,14.35 -9.8,28.93 -15.7,43.35 -8.4,-36.03 -28.7,-65.56 -30,-67.52 -2.5,-3.48 -6.2,-5.59 -10.2,-5.97 -2,-0.23 -4.1,0 -6.2,0.68 -5.9,2.11 -9.8,7.93 -9.4,14.28 0,0.22 0.5,13.67 -6.3,38.37 -0.5,-21.46 -2.6,-36.94 -2.8,-38.53 -0.9,-6.49 -6.2,-11.48 -12.6,-12.16 l -1,-0.07 c -7,-0.15 -13,4.76 -14.3,11.55 -8.8,45.78 -40,83.62 -60.1,103.94 -12.6,-44.27 -40.9,-88.08 -42.3,-90.26 -2.4,-3.78 -6.3,-5.97 -10.5,-6.42 -3,-0.31 -6.2,0.37 -9,2.18 -6.6,4.24 -8.5,12.92 -4.3,19.49 0.7,1.36 18.4,31.88 -8.7,78.26 -6.8,-32.79 4.7,-93.59 17.9,-134.76 2.2,-6.94 -1.3,-14.5 -8.1,-17.37 -1.3,-0.53 -2.6,-0.9 -4,-0.98 -5.6,-0.6 -11.2,2.27 -14,7.48 -1,2.04 -25.5,48.94 -80.8,177.65 -13.8,-25.68 -0.7,-66.16 -0.4,-66.7 2.4,-7.32 -1.5,-15.18 -8.7,-17.82 -1.2,-0.38 -2.3,-0.6 -3.3,-0.75 -6.3,-0.61 -12.4,2.94 -14.7,9.06 -0.8,1.81 -14.9,39.8 -16.6,112.69 -27.1,-23.71 -68.4,-45.99 -103.2,-49.62 -19,-1.97 -35,1.58 -47.4,10.72 -4.3,3.18 -6.5,8.46 -5.5,13.75 0.9,5.29 4.7,9.67 9.8,11.18 26.5,8.01 44.2,22.21 54.2,43.35 15.6,33.32 8.2,76.22 1,102.43 -16.3,-22.28 -39.9,-60.5 -43.4,-98.19 -0.6,-6.12 -5,-11.18 -11.1,-12.54 l -1.6,-0.23 c -5.4,-0.6 -10.8,2.12 -13.6,6.87 -23.1,39.28 -16,103.33 -7.2,146.54 -33.2,-32.56 -72.8,-80.6 -73.3,-120.1 -0.1,-6.04 -4,-11.4 -9.8,-13.29 -1,-0.31 -2,-0.53 -2.9,-0.61 -4.9,-0.52 -9.8,1.59 -12.8,5.59 -64.4,85.5 -24.5,179.54 7.6,230.91 -15.1,-4.39 -32.6,-8.39 -50.9,-10.28 -38.1,-3.92 -68.9,2.42 -91.8,18.81 -4.9,3.48 -7.1,9.44 -5.5,15.18 1.5,5.67 6.4,9.82 12.2,10.43 26.7,2.79 57.5,30.81 83.9,62.09 -19.3,-11.87 -40.7,-22.59 -62.5,-28.93 -0.9,-0.23 -1.7,-0.38 -2.5,-0.46 -3,-0.3 -5.9,0.31 -8.5,1.82 -3.4,1.88 -5.7,5.06 -6.7,8.83 -1.4,5.52 -1.1,11.94 0.4,18.96 -12.8,-20.92 -25.1,-44.64 -36.2,-71.38 -2,-4.83 -6.5,-8.15 -11.6,-8.68 l -1.2,-0.08 c -5.6,-0.07 -10.7,3.1 -13.1,8.16 -40,85.96 19.5,205.6 53.7,262.63 -18.6,-4.76 -42.1,-9.82 -65.9,-12.24 -45,-4.68 -77.7,1.51 -97.3,18.2 -4.9,4.23 -6.3,11.18 -3.4,17 2.2,4.46 6.5,7.4 11.2,7.85 1.4,0.16 2.8,0.08 4.2,-0.22 7.3,-1.44 15.4,-1.74 24,-0.83 100.9,10.42 247.8,170.7 249.3,172.29 2.4,2.64 5.6,4.23 9,4.61"
               style="fill:url(#linearGradient7041);fill-opacity:1;fill-rule:nonzero;stroke:none"
               id="path7043" />
          </g>
        </g>
      </g>
      <g
         id="g7045"
         transform="matrix(0.0465716,0,0,-0.0465716,-662.97664,281.49991)">
        <path
           d="m 15515.2,2418.77 c 0,0 -110.8,-155.21 -65.7,-252.17 59.3,142.86 154.4,191.8 154.4,191.8 0,0 -107.5,-109.92 -98.2,-146.51 60.2,17.5 118.9,75.91 118.9,75.91 0,0 -71.4,-124.16 -133.3,-130.52 54.8,-39.31 155.6,8.26 155.6,8.26 0,0 -110.6,-120.82 -31.5,-225.97 1,66.51 100.9,144.54 100.9,144.54 0,0 -35.3,-110.37 -5,-161.96 5.4,57.19 56.3,113.25 56.3,113.25 0,0 57.9,-136.58 -50.4,-169.3 39.7,-29.09 131.5,32.65 140.6,60.98 -3.5,-87.8 13.7,-132.95 13.7,-132.95 0,0 -20.9,62.27 16.6,86.66 55.4,-129.98 79.7,-176.34 79.7,-176.34 0,0 -37.5,117.26 -5.7,149.83 47.2,-59.54 20.3,-102.04 20.3,-102.04 0,0 35.7,55.08 40.8,98.63 0,0 61.4,-48.4 74.2,-115.44 0,0 11.2,81.28 -12.9,125.67 49.3,-80.9 46.4,-128.02 46.4,-128.02 0,0 43.7,62.65 21.7,108.48 45.8,-62.5 41.6,-135.14 91.6,-184.68 -32,102.18 -17.3,168.09 -17.3,168.09 0,0 42.7,-69.77 42.1,-122.57 31,1.21 29.9,122.19 29.9,122.19 l -693.8,745.22 c 0,0 -161.2,-177.17 -257.1,-157.78 42.7,-36.67 167.2,6.74 167.2,6.74"
           style="fill:#318063;fill-opacity:1;fill-rule:nonzero;stroke:none"
           id="path7047" />
      </g>
      <g
         id="g7049"
         transform="matrix(0.03527778,0,0,-0.03527778,-662.97664,281.49991)">
        <g
           id="g7051"
           clip-path="url(#clipPath7055)">
          <g
             id="g7057"
             transform="scale(1.41487)">
            <path
               d="m 15198.3,1802 0.3,1.28 c 0.7,3.6 3,6.71 6.2,8.55 l 917.1,534.11 c 2.9,1.62 6.2,2.19 9.5,1.48 1.2,-0.28 31.4,-6.85 61.7,-17.45 47.6,-16.75 68.6,-34.14 66.1,-54.71 l -0.2,-1.56 c -0.6,-3.6 -2.8,-6.71 -5.8,-8.69 -3,-2.05 -6.8,-2.68 -10.3,-1.83 -24.7,5.93 -56.6,2.33 -82.2,-2.76 28.8,-6.15 71.2,-11.17 124.8,-6.79 6.1,0.5 11.7,-3.25 13.7,-8.97 0.6,-1.91 0.8,-3.89 0.5,-5.8 -0.4,-3.89 -2.6,-7.42 -6,-9.61 -35.8,-22.9 -75.3,-27 -113.5,-30.96 -14.1,-1.41 -28.4,-2.9 -42.8,-5.3 31.1,-15.12 54,-39.72 55.5,-41.41 2.6,-2.9 3.8,-6.79 3.3,-10.47 -0.2,-1.9 -0.8,-3.74 -1.9,-5.44 -3.1,-5.09 -9.2,-7.42 -14.9,-5.72 -0.3,0.07 -12.4,3.25 -36.4,2.19 19.5,-4.95 33.2,-10.04 34.6,-10.53 5.8,-2.12 9.2,-7.99 8.5,-14 l -0.2,-0.99 c -1.2,-6.36 -6.9,-10.88 -13.4,-10.67 -43.6,1.49 -84.6,-19.22 -107.3,-33.36 37.8,-20.64 72,-55.48 73.7,-57.25 2.9,-2.97 4.1,-6.93 3.6,-10.81 -0.3,-2.9 -1.6,-5.66 -3.8,-7.85 -5.1,-5.09 -13.6,-5.09 -18.6,0.07 -1.1,0.99 -25.4,23.4 -73.3,8.27 28.5,-13 86.5,-15.05 126.7,-11.52 6.8,0.57 13,-4.17 14.2,-10.88 0.2,-1.34 0.3,-2.62 0.1,-3.89 -0.6,-5.23 -4.3,-9.82 -9.7,-11.24 -2.1,-0.56 -50,-13.21 -178.8,-37.1 20.5,-17.88 60.3,-14.28 60.7,-14.21 7.2,0.71 13.6,-4.45 14.5,-11.59 0.1,-1.06 0.1,-2.12 0,-3.18 -0.7,-5.8 -5.2,-10.67 -11.3,-11.52 -1.8,-0.29 -39.4,-5.37 -106.3,8.13 16.1,-29.62 27.9,-71.88 24.1,-104.47 -2.2,-17.73 -8.7,-31.52 -19.6,-40.99 -3.8,-3.25 -9.1,-4.17 -13.7,-2.26 -4.7,1.98 -7.8,6.36 -8.2,11.31 -1.8,25.8 -11.1,44.88 -28.4,58.38 -27.2,21.13 -67.9,23.25 -93.3,22.05 17.1,-19.44 47,-48.84 80.7,-59.86 5.5,-1.77 9.2,-6.93 9.2,-12.66 l -0.2,-1.55 c -0.5,-5.09 -4.1,-9.4 -9.1,-11.02 -40.6,-12.94 -97.5,6.71 -135.2,23.67 22.9,-37.03 58.6,-83.05 94.5,-91.67 5.5,-1.34 9.6,-6.01 10.1,-11.66 0.1,-0.99 0.1,-1.91 0,-2.83 -0.6,-4.52 -3.5,-8.55 -7.7,-10.53 -91.4,-41.13 -169,14.7 -209.2,54.57 0.8,-14.63 0.9,-31.53 -1.1,-48.56 -4.3,-35.48 -16.4,-62.41 -36.2,-79.94 -4.1,-3.67 -10.1,-4.38 -14.9,-1.83 -4.9,2.54 -7.7,7.84 -7,13.28 2.9,24.88 -16.3,58.88 -39.4,89.34 6.9,-20 12.2,-41.77 13.5,-62.98 0,-0.84 0,-1.62 -0.1,-2.4 -0.3,-2.75 -1.5,-5.3 -3.4,-7.35 -2.4,-2.68 -5.8,-4.24 -9.4,-4.31 -5.3,-0.14 -11.1,1.41 -17.3,4.24 16.5,-15.97 35.6,-32.09 57.8,-47.71 3.9,-2.82 6,-7.63 5.5,-12.36 l -0.2,-1.14 c -1.1,-5.16 -5.1,-9.18 -10.2,-10.24 -86.7,-18.73 -183.6,60.22 -228.6,103.12 0.5,-17.89 0.2,-40.36 -2.4,-62.63 -5.1,-42.05 -17.4,-70.6 -36.7,-85.02 -4.8,-3.6 -11.5,-3.46 -16.2,0.28 -3.7,2.97 -5.4,7.49 -4.9,11.95 0.1,1.27 0.5,2.61 1.1,3.81 2.8,6.29 4.8,13.57 5.7,21.63 11.3,94.28 -104.7,261.44 -105.8,263.13 -1.9,2.69 -2.7,5.94 -2.4,9.19"
               style="fill:url(#linearGradient7067);fill-opacity:1;fill-rule:nonzero;stroke:none"
               id="path7069" />
          </g>
        </g>
      </g>
      <g
         id="g7071"
         transform="matrix(0.04963654,0,0,-0.04963654,-662.97664,281.49991)">
        <path
           d="m 15452,1734.58 c 0,0 119.1,-133.54 217.2,-112.36 -118.5,83.86 -143.6,180.95 -143.6,180.95 0,0 78.3,-120.97 113.7,-120.11 -3.5,58.77 -44.8,124.51 -44.8,124.51 0,0 98.8,-91.04 91.9,-148.96 47.2,42.07 24.6,144.13 24.6,144.13 0,0 87.7,-126.29 200.2,-75.55 -60.7,14.57 -111.3,122.24 -111.3,122.24 0,0 93.6,-55.15 147.1,-38.09 -51.2,16.77 -92,74.91 -92,74.91 0,0 137,24.73 144.5,-81.16 34.8,30.27 -2.6,127.07 -26.6,141.29 79.6,-21.4 124.4,-14.93 124.4,-14.93 0,0 -61.3,-6.32 -75.9,33.12 130.4,23.81 177.9,36.46 177.9,36.46 0,0 -115.1,-10.09 -138.3,25.8 64.2,30.85 97.6,-2.56 97.6,-2.56 0,0 -43,44.14 -81.8,57.71 0,0 56.9,46.27 120.9,44.07 0,0 -72,27 -117.6,14.14 84.2,28.43 126.7,15.99 126.7,15.99 0,0 -48.2,53.02 -94.7,42.29 66.6,29.07 132.3,10.16 187.9,45.7 -100.1,-8.17 -157.4,18.91 -157.4,18.91 0,0 72.7,24.66 120.9,13.21 5.2,28.57 -105.7,52.53 -105.7,52.53 l -825.4,-480.66 c 0,0 128.7,-184.29 91.1,-268.09 42.4,31.56 28.5,154.51 28.5,154.51"
           style="fill:#318063;fill-opacity:1;fill-rule:nonzero;stroke:none"
           id="path7073" />
      </g>
      <g
         id="g7075"
         transform="matrix(0.03527778,0,0,-0.03527778,-662.97664,281.49991)">
        <g
           id="g7077"
           clip-path="url(#clipPath7081)">
          <g
             id="g7083"
             transform="scale(1.32393)">
            <path
               d="m 15511.5,2912.78 1.4,-0.08 c 4,0 7.8,1.66 10.5,4.53 l 772.7,830.11 c 2.4,2.64 3.8,6.04 3.8,9.52 0,1.43 0.3,34.44 -3.7,68.5 -6.2,53.56 -19.4,79.54 -41.4,81.81 l -1.7,0.15 c -3.9,0.15 -7.6,-1.29 -10.4,-4.01 -2.8,-2.71 -4.4,-6.42 -4.3,-10.27 0.3,-27.19 -11,-59.52 -22.3,-85.05 0.4,31.42 5.1,76.74 22.3,131.66 1.9,6.19 -0.6,12.91 -6.2,16.31 -1.8,1.14 -3.8,1.81 -5.8,2.04 -4.1,0.38 -8.4,-0.98 -11.4,-4.08 -32.4,-31.95 -45.9,-72.13 -59,-110.96 -4.9,-14.35 -9.8,-28.93 -15.7,-43.35 -8.4,36.03 -28.7,65.56 -30,67.52 -2.5,3.48 -6.2,5.59 -10.2,5.97 -2,0.23 -4.1,0 -6.2,-0.68 -5.9,-2.11 -9.8,-7.93 -9.4,-14.27 0,-0.23 0.5,-13.68 -6.3,-38.37 -0.5,21.45 -2.6,36.93 -2.8,38.52 -0.9,6.49 -6.2,11.48 -12.6,12.16 l -1,0.07 c -7,0.15 -13,-4.76 -14.3,-11.55 -8.8,-45.78 -40,-83.62 -60.1,-103.94 -12.6,44.27 -40.9,88.07 -42.3,90.26 -2.4,3.78 -6.3,5.97 -10.5,6.42 -3,0.31 -6.2,-0.37 -9,-2.19 -6.6,-4.23 -8.5,-12.91 -4.3,-19.48 0.7,-1.36 18.4,-31.88 -8.7,-78.25 -6.8,32.78 4.7,93.58 17.9,134.75 2.2,6.94 -1.3,14.5 -8.1,17.37 -1.3,0.53 -2.6,0.9 -4,0.98 -5.6,0.61 -11.2,-2.27 -14,-7.48 -1,-2.04 -25.5,-48.94 -80.8,-177.65 -13.8,25.68 -0.7,66.24 -0.4,66.69 2.4,7.33 -1.5,15.26 -8.7,17.83 -1.2,0.38 -2.3,0.61 -3.3,0.76 -6.3,0.6 -12.4,-2.95 -14.7,-9.07 -0.8,-1.81 -14.9,-39.8 -16.6,-112.69 -27.1,23.71 -68.4,46.07 -103.2,49.62 -19,1.96 -35,-1.58 -47.4,-10.72 -4.3,-3.18 -6.5,-8.46 -5.5,-13.75 0.9,-5.29 4.7,-9.67 9.8,-11.18 26.5,-8.01 44.2,-22.21 54.2,-43.36 15.6,-33.31 8.2,-76.21 1,-102.42 -16.3,22.29 -39.9,60.5 -43.4,98.19 -0.6,6.12 -5,11.18 -11.1,12.54 l -1.6,0.23 c -5.4,0.6 -10.8,-2.04 -13.6,-6.87 -23.1,-39.28 -16,-103.33 -7.2,-146.54 -33.2,32.56 -72.8,80.6 -73.3,120.1 -0.1,6.04 -4,11.41 -9.8,13.29 -1,0.3 -2,0.53 -2.9,0.61 -4.9,0.53 -9.8,-1.51 -12.8,-5.59 -64.4,-85.51 -24.5,-179.54 7.6,-230.91 -15.1,4.39 -32.6,8.39 -50.9,10.28 -38.1,3.92 -68.9,-2.42 -91.8,-18.81 -4.9,-3.4 -7.1,-9.44 -5.5,-15.18 1.5,-5.67 6.4,-9.82 12.2,-10.43 26.7,-2.72 57.5,-30.74 83.9,-62.08 -19.3,11.85 -40.7,22.58 -62.5,28.92 -0.9,0.23 -1.7,0.38 -2.5,0.46 -3,0.3 -5.9,-0.3 -8.5,-1.81 -3.4,-1.89 -5.7,-5.06 -6.7,-8.84 -1.4,-5.52 -1.1,-11.94 0.4,-18.88 -12.8,20.84 -25.1,44.56 -36.2,71.3 -2,4.83 -6.5,8.16 -11.6,8.68 l -1.2,0.08 c -5.6,0.15 -10.7,-3.1 -13.1,-8.16 -40,-85.95 19.5,-205.6 53.7,-262.62 -18.6,4.75 -42.1,9.81 -65.9,12.23 -45,4.68 -77.7,-1.44 -97.3,-18.2 -4.9,-4.23 -6.3,-11.18 -3.4,-17 2.2,-4.45 6.5,-7.4 11.2,-7.85 1.4,-0.15 2.8,-0.08 4.2,0.22 7.3,1.44 15.4,1.74 24,0.83 100.9,-10.42 247.8,-170.7 249.3,-172.29 2.4,-2.64 5.6,-4.23 9,-4.6"
               style="fill:url(#linearGradient7093);fill-opacity:1;fill-rule:nonzero;stroke:none"
               id="path7095" />
          </g>
        </g>
      </g>
      <g
         id="g7097"
         transform="matrix(0.0465716,0,0,-0.0465716,-662.97664,281.49991)">
        <path
           d="m 15515.2,3114.91 c 0,0 -110.8,155.29 -65.7,252.17 59.3,-142.86 154.4,-191.8 154.4,-191.8 0,0 -107.5,109.91 -98.2,146.5 60.2,-17.5 118.9,-75.9 118.9,-75.9 0,0 -71.4,124.16 -133.3,130.52 54.8,39.31 155.6,-8.26 155.6,-8.26 0,0 -110.6,120.82 -31.5,225.96 1,-66.51 100.9,-144.53 100.9,-144.53 0,0 -35.3,110.37 -5,161.95 5.4,-57.19 56.3,-113.24 56.3,-113.24 0,0 57.9,136.58 -50.4,169.3 39.7,29.09 131.5,-32.65 140.6,-60.98 -3.5,87.8 13.7,132.94 13.7,132.94 0,0 -20.9,-62.26 16.6,-86.66 55.4,129.99 79.7,176.27 79.7,176.27 0,0 -37.5,-117.18 -5.7,-149.75 47.2,59.53 20.3,102.03 20.3,102.03 0,0 35.7,-55.07 40.8,-98.62 0,0 61.4,48.4 74.2,115.44 0,0 11.2,-81.28 -12.9,-125.67 49.3,80.9 46.4,128.02 46.4,128.02 0,0 43.7,-62.65 21.7,-108.48 45.8,62.5 41.6,135.14 91.6,184.68 -32,-102.19 -17.3,-168.09 -17.3,-168.09 0,0 42.7,69.77 42.1,122.57 31,-1.22 29.9,-122.19 29.9,-122.19 l -693.8,-745.23 c 0,0 -161.2,177.26 -257.1,157.79 42.7,36.66 167.2,-6.74 167.2,-6.74"
           style="fill:#318063;fill-opacity:1;fill-rule:nonzero;stroke:none"
           id="path7099" />
      </g>
      <g
         id="g7101"
         transform="matrix(0.03527778,0,0,-0.03527778,-662.97664,281.49991)">
        <g
           id="g7103"
           clip-path="url(#clipPath7107)">
          <g
             id="g7109"
             transform="scale(1.41487)">
            <path
               d="m 15198.3,3361.15 0.3,-1.27 c 0.7,-3.6 3,-6.71 6.2,-8.55 l 917.1,-534.11 c 2.9,-1.63 6.2,-2.19 9.5,-1.49 1.2,0.29 31.4,6.86 61.7,17.53 47.6,16.68 68.6,34.07 66.1,54.64 l -0.2,1.55 c -0.6,3.61 -2.8,6.71 -5.8,8.69 -3,2.05 -6.8,2.69 -10.3,1.84 -24.7,-5.94 -56.6,-2.26 -82.2,2.76 28.8,6.15 71.2,11.24 124.8,6.78 6.1,-0.49 11.7,3.25 13.7,8.98 0.6,1.91 0.8,3.89 0.5,5.79 -0.4,3.89 -2.6,7.43 -6,9.62 -35.8,22.9 -75.3,27 -113.5,30.95 -14.1,1.42 -28.4,2.9 -42.8,5.37 31.1,15.06 54,39.73 55.5,41.35 2.6,2.9 3.8,6.79 3.3,10.46 -0.2,1.91 -0.8,3.75 -1.9,5.44 -3.1,5.09 -9.2,7.42 -14.9,5.73 -0.3,-0.07 -12.4,-3.25 -36.4,-2.19 19.5,4.95 33.2,10.03 34.6,10.53 5.8,2.12 9.2,7.98 8.5,13.99 l -0.2,0.99 c -1.2,6.36 -6.9,10.89 -13.4,10.67 -43.6,-1.48 -84.6,19.23 -107.3,33.36 37.8,20.64 72,55.49 73.7,57.26 2.9,2.96 4.1,6.99 3.6,10.81 -0.3,2.9 -1.6,5.65 -3.8,7.84 -5.1,5.09 -13.6,5.09 -18.6,-0.07 -1.1,-0.99 -25.4,-23.39 -73.3,-8.27 28.5,13.01 86.5,15.06 126.7,11.52 6.8,-0.56 13,4.17 14.2,10.89 0.2,1.34 0.3,2.61 0.1,3.88 -0.6,5.24 -4.3,9.83 -9.7,11.24 -2.1,0.57 -50,13.22 -178.8,37.11 20.5,17.88 60.3,14.28 60.7,14.2 7.2,-0.7 13.6,4.46 14.5,11.6 0.1,1.06 0.1,2.12 0,3.18 -0.7,5.79 -5.2,10.67 -11.3,11.52 -1.8,0.28 -39.4,5.37 -106.3,-8.13 16.1,29.61 27.9,71.88 24.1,104.46 -2.2,17.74 -8.7,31.52 -19.6,40.99 -3.8,3.26 -9.1,4.17 -13.7,2.27 -4.7,-1.98 -7.8,-6.36 -8.2,-11.31 -1.8,-25.8 -11.1,-44.88 -28.4,-58.38 -27.2,-21.14 -67.9,-23.25 -93.3,-22.05 17.1,19.43 47,48.83 80.7,59.86 5.5,1.84 9.2,6.93 9.2,12.65 l -0.2,1.56 c -0.5,5.09 -4.1,9.4 -9.1,11.02 -40.6,12.94 -97.5,-6.71 -135.2,-23.68 22.9,37.04 58.6,83.05 94.5,91.67 5.5,1.35 9.6,6.01 10.1,11.67 0.1,0.99 0.1,1.91 0,2.82 -0.6,4.53 -3.5,8.56 -7.7,10.53 -91.4,41.14 -169,-14.7 -209.2,-54.56 0.8,14.63 0.9,31.52 -1.1,48.56 -4.3,35.48 -16.4,62.41 -36.2,79.93 -4.1,3.68 -10.1,4.38 -14.9,1.84 -4.9,-2.54 -7.7,-7.85 -7,-13.29 2.9,-24.88 -16.3,-58.87 -39.4,-89.33 6.9,20 12.2,41.77 13.5,62.97 0,0.85 0,1.63 -0.1,2.4 -0.3,2.76 -1.5,5.31 -3.4,7.35 -2.4,2.69 -5.8,4.24 -9.4,4.32 -5.3,0.14 -11.1,-1.42 -17.3,-4.24 16.5,15.97 35.6,32.08 57.8,47.7 3.9,2.83 6,7.63 5.5,12.37 l -0.2,1.13 c -1.1,5.16 -5.1,9.19 -10.2,10.25 -86.7,18.73 -183.6,-60.22 -228.6,-103.12 0.5,17.88 0.2,40.36 -2.4,62.62 -5.1,42.05 -17.4,70.61 -36.7,85.03 -4.8,3.6 -11.5,3.46 -16.2,-0.29 -3.7,-2.96 -5.4,-7.49 -4.9,-11.94 0.1,-1.27 0.5,-2.54 1.1,-3.82 2.8,-6.29 4.8,-13.57 5.7,-21.69 11.3,-94.22 -104.7,-261.37 -105.8,-263.07 -1.9,-2.68 -2.7,-5.94 -2.4,-9.19"
               style="fill:url(#linearGradient7119);fill-opacity:1;fill-rule:nonzero;stroke:none"
               id="path7121" />
          </g>
        </g>
      </g>
      <g
         id="g7123"
         transform="matrix(0.04963654,0,0,-0.04963654,-662.97664,281.49991)">
        <path
           d="m 15452,3457.37 c 0,0 119.1,133.54 217.2,112.36 -118.5,-83.86 -143.6,-180.95 -143.6,-180.95 0,0 78.3,120.97 113.7,120.12 -3.5,-58.78 -44.8,-124.53 -44.8,-124.53 0,0 98.8,91.05 91.9,148.97 47.2,-42.07 24.6,-144.13 24.6,-144.13 0,0 87.7,126.3 200.2,75.55 -60.7,-14.57 -111.3,-122.25 -111.3,-122.25 0,0 93.6,55.16 147.1,38.1 -51.2,-16.77 -92,-74.91 -92,-74.91 0,0 137,-24.73 144.5,81.17 34.8,-30.28 -2.6,-127.08 -26.6,-141.3 79.6,21.39 124.4,14.93 124.4,14.93 0,0 -61.3,6.32 -75.9,-33.12 130.4,-23.81 177.9,-36.46 177.9,-36.46 0,0 -115.1,10.09 -138.3,-25.8 64.2,-30.85 97.6,2.56 97.6,2.56 0,0 -43,-44.07 -81.8,-57.71 0,0 56.9,-46.27 120.9,-44.07 0,0 -72,-27 -117.6,-14.14 84.2,-28.43 126.7,-15.99 126.7,-15.99 0,0 -48.2,-53.02 -94.7,-42.29 66.6,-29.07 132.3,-10.16 187.9,-45.7 -100.1,8.18 -157.4,-18.9 -157.4,-18.9 0,0 72.7,-24.67 120.9,-13.22 5.2,-28.58 -105.7,-52.53 -105.7,-52.53 l -825.4,480.66 c 0,0 128.7,184.29 91.1,268.09 42.4,-31.56 28.5,-154.51 28.5,-154.51"
           style="fill:#318063;fill-opacity:1;fill-rule:nonzero;stroke:none"
           id="path7125" />
      </g>
      <g
         id="g7127"
         transform="matrix(0.03527778,0,0,-0.03527778,-662.97664,281.49991)">
        <g
           id="g7129"
           clip-path="url(#clipPath7133)">
          <g
             id="g7135"
             transform="scale(1.4111)">
            <path
               d="m 15314.9,1645.1 c -84.6,0 -155.9,91.84 -233.9,112.75 -18,4.82 -37.4,6.38 -57.4,6.38 -18.9,0 -38.5,-1.42 -57.9,-2.84 -9.3,-0.7 -18.7,-1.34 -27.9,-1.84 -10.1,-0.56 -20,-0.99 -29.8,-0.99 -1.9,0 -3.7,0 -5.6,0.07 -29.3,0.42 -56.8,4.75 -80.3,18.29 -71.5,41.45 -87.6,156.68 -145.7,214.79 -30.3,30.26 -76,49.11 -118.8,70.37 -21.4,10.63 -42,21.9 -59.7,35.44 -14.7,11.33 -27.3,24.38 -36.3,40.04 -40.9,70.65 2.4,178.23 -19.2,258.87 -20.8,77.96 -112.7,149.25 -112.7,233.79 0,72.99 68.5,136.14 100.6,202.18 5.1,10.42 9.3,20.98 12.1,31.61 0.4,1.28 0.7,2.55 1,3.83 19.2,80.22 -22.1,185.53 18.2,255.05 14.6,25.44 38.6,43.79 66,59.6 -9.8,-8.79 -18.3,-18.57 -24.7,-29.84 -38.4,-66.33 2.3,-167.39 -18,-243.21 -2.5,-9.36 -6.2,-18.71 -10.6,-28 -12.1,-25.37 -29.9,-50.24 -47,-75.4 -25,-37.2 -48.3,-75.05 -48.3,-116.29 0,-1.7 0,-3.4 0.1,-5.1 -0.1,-1.71 -0.1,-3.41 -0.1,-5.18 0,-80.29 87.3,-148.04 107.1,-222.02 1.9,-7.23 3.3,-14.67 4.2,-22.25 3.3,-50.89 -8.9,-108 -3.1,-157.19 0.9,-20.9 4.5,-40.67 12.7,-58.32 v 0 c 1.3,-2.84 2.8,-5.53 4.3,-8.22 39.4,-68.03 148.9,-83.34 204.1,-138.48 55.2,-55.27 70.5,-164.76 138.5,-204.09 23.7,-13.68 51.8,-17.43 81.6,-17.43 17.8,0 36.3,1.34 54.8,2.69 18.4,1.35 36.9,2.62 54.9,2.62 19,0 37.5,-1.49 54.6,-6.02 74.1,-19.84 141.8,-107.08 222.2,-107.08 80.3,0 148,87.24 222,107.08 17.2,4.53 35.6,6.02 54.6,6.02 18,0 36.5,-1.27 55,-2.62 18.5,-1.35 37,-2.69 54.7,-2.69 29.9,0 57.9,3.75 81.7,17.43 68,39.33 83.3,148.82 138.5,204.09 49.5,49.47 142.8,66.83 189.7,119.06 5.5,5.96 10.2,12.4 14.4,19.42 13.5,23.39 17.3,51.17 17.4,80.51 0.1,54.85 -12.6,115.58 0.7,165.47 9.8,36.5 35.9,71.36 59.9,107.08 v 0 c 13.9,20.55 27,41.31 35.8,62.79 v 0 0 c 7.1,16.93 11.4,34.22 11.4,52.15 0,80.36 -87.3,148.11 -107.1,222.17 -20.5,76.61 20.7,178.8 -18.1,245.91 -11.2,19.2 -27.8,34.16 -47.3,47.06 -1.7,1.06 -3.5,2.19 -5.2,3.33 39,-19.49 75.4,-40.97 95.1,-75.05 40.3,-69.52 -1,-174.83 18.2,-255.05 0.3,-1.28 0.6,-2.55 0.9,-3.83 2.9,-10.63 7.1,-21.19 12.2,-31.61 32.1,-66.04 100.6,-129.19 100.6,-202.18 0,-84.54 -91.9,-155.83 -112.8,-233.79 -21.5,-80.64 21.8,-188.22 -19.1,-258.87 -9.1,-15.66 -21.6,-28.71 -36.3,-40.04 -17.7,-13.54 -38.3,-24.81 -59.7,-35.44 -42.7,-21.26 -88.5,-40.11 -118.8,-70.37 -58.1,-58.11 -74.2,-173.34 -145.8,-214.79 -24.9,-14.39 -54.5,-18.36 -85.8,-18.36 -4.5,0 -9,0.07 -13.6,0.21 -11.7,0.36 -23.5,1.14 -35.4,1.99 -2.9,0.21 -5.8,0.42 -8.7,0.63 -19.4,1.42 -39,2.84 -57.9,2.84 -20,0 -39.4,-1.56 -57.4,-6.38 -78,-20.91 -149.3,-112.75 -233.8,-112.75 m 673.3,1596.63 c -25.2,12.69 -48.8,26.36 -66.8,44.36 -1.5,1.49 -3.1,3.12 -4.6,4.75 -51.5,56.48 -67.7,161.01 -133.9,199.28 -5.9,3.4 -12,6.16 -18.4,8.43 15.4,-2.69 29.9,-7.44 43,-15.02 71.7,-41.46 87.7,-156.69 145.8,-214.8 10.2,-10.13 22,-18.92 34.9,-27 m -1317,22.11 c 1.8,1.56 3.5,3.19 5.2,4.89 58.1,58.11 74.2,173.34 145.7,214.8 7.8,4.46 15.8,7.86 24.3,10.49 -1.6,-0.78 -3.1,-1.63 -4.7,-2.55 -67.3,-38.91 -82.4,-147.13 -137,-201.76 -9.7,-9.71 -21.1,-18.15 -33.5,-25.87 m 838.8,254.41 c -63.8,29.84 -124.7,97.09 -195.1,97.09 -1.8,0 -3.5,0 -5.2,-0.07 -0.1,0 -0.2,0 -0.3,0 1.8,0.07 3.6,0.14 5.5,0.14 19.5,0 38.3,-4.96 56.7,-12.76 47.8,-20.33 92.5,-60.3 138.4,-84.4"
               style="fill:url(#linearGradient7143);fill-opacity:1;fill-rule:nonzero;stroke:none"
               id="path7145" />
          </g>
        </g>
      </g>
      <g
         id="g7147"
         transform="matrix(0.03527778,0,0,-0.03527778,-662.97664,281.49991)">
        <g
           id="g7149"
           clip-path="url(#clipPath7153)">
          <g
             id="g7155"
             transform="scale(1.40683)">
            <path
               d="m 15361.4,1748.97 c -80.6,0 -148.6,87.5 -222.9,107.41 -17.2,4.54 -35.7,6.04 -54.7,6.04 -18.1,0 -36.6,-1.28 -55.2,-2.63 -18.5,-1.35 -37,-2.7 -54.8,-2.7 -30,0 -58.1,3.76 -81.9,17.48 -68.3,39.45 -83.6,149.27 -139,204.72 -55.4,55.3 -165.2,70.65 -204.6,138.89 -1.6,2.7 -3.1,5.4 -4.4,8.25 1.8,1.06 3.6,2.13 5.4,3.2 41,-64.05 146.3,-79.69 200,-133.35 54.8,-54.81 69.9,-163.35 137.5,-202.44 23.5,-13.58 51.3,-17.28 80.8,-17.28 17.7,0 36.1,1.35 54.4,2.63 18.4,1.35 36.7,2.7 54.5,2.7 18.9,0 37.2,-1.49 54.2,-6.04 73.4,-19.69 140.7,-106.27 220.4,-106.27 79.6,0 146.7,86.58 220.2,106.27 17,4.55 35.3,6.04 54.1,6.04 17.9,0 36.3,-1.35 54.6,-2.7 18.4,-1.28 36.7,-2.63 54.4,-2.63 29.5,0 57.4,3.7 80.9,17.28 67.5,39.09 82.6,147.63 137.4,202.36 54.8,54.88 163.4,70.02 202.4,137.48 38.5,66.6 -2.3,167.96 18,244.02 8.5,31.85 29.8,62.62 51,93.76 9.5,0.28 19,0.57 28.6,0.85 -24.1,-35.82 -50.3,-70.79 -60.1,-107.4 -13.4,-50.04 -0.6,-110.96 -0.7,-165.98 -0.1,-29.43 -3.9,-57.29 -17.5,-80.75 -4.1,-7.04 -8.9,-13.5 -14.4,-19.48 -47.1,-52.38 -140.6,-69.8 -190.3,-119.41 -55.3,-55.45 -70.7,-165.27 -138.9,-204.72 -23.8,-13.72 -52,-17.48 -81.9,-17.48 -17.8,0 -36.4,1.35 -54.9,2.7 -18.5,1.35 -37.1,2.63 -55.1,2.63 -19.2,0 -37.6,-1.5 -54.8,-6.04 -74.2,-19.91 -142.2,-107.41 -222.7,-107.41 m -827.1,693.62 c -1,7.6 -2.3,15.07 -4.2,22.32 -19.9,74.21 -107.4,142.16 -107.4,222.7 0,1.77 0,3.48 0,5.19 3.7,-77.34 86.9,-143.3 106.2,-215.1 2.9,-11.23 4.6,-23.03 5.4,-35.11 m 1728.5,191.7 c 10,20.55 16.6,41.59 16.6,63.62 0,79.69 -86.6,146.93 -106.3,220.36 -20.3,76.05 20.5,177.42 -18,243.95 -11,19.12 -27.6,34.05 -47,46.84 -49.1,32.42 -116.1,51.32 -155.3,90.63 -2.6,2.49 -5,5.12 -7.2,7.82 -49.1,56.73 -65.9,157.3 -130.3,194.55 -15.6,9.03 -33.1,13.72 -51.6,15.85 17.1,-0.85 33.5,-3.34 48.7,-8.74 6.4,-2.27 12.5,-5.05 18.4,-8.46 66.4,-38.38 82.7,-143.23 134.3,-199.88 1.5,-1.63 3.1,-3.27 4.6,-4.76 18,-18.06 41.8,-31.78 67,-44.5 28.5,-14.43 59,-27.51 85.1,-43.93 1.7,-1.14 3.5,-2.27 5.2,-3.34 19.5,-12.94 36.2,-27.93 47.4,-47.2 38.9,-67.31 -2.3,-169.81 18.2,-246.65 19.8,-74.28 107.4,-142.24 107.4,-222.84 0,-17.99 -4.3,-35.33 -11.4,-52.32 v 0 c -8.1,-0.28 -16.8,-0.64 -25.8,-1 m -656.4,880.35 c -12.2,0.79 -23.9,2.49 -35.1,5.48 -71.8,19.26 -137.8,102.5 -215.1,106.12 1.7,0.07 3.4,0.07 5.2,0.07 70.6,0 131.7,-67.45 195.7,-97.38 9,-4.12 17.9,-7.6 27,-10.02 7.2,-1.92 14.6,-3.27 22.3,-4.27"
               style="fill:url(#linearGradient7163);fill-opacity:1;fill-rule:nonzero;stroke:none"
               id="path7165" />
          </g>
        </g>
      </g>
      <g
         id="g7167"
         transform="matrix(0.03527778,0,0,-0.03527778,-662.97664,281.49991)">
        <g
           id="g7169"
           clip-path="url(#clipPath7173)">
          <g
             id="g7175"
             transform="scale(1.40505)">
            <path
               d="m 15370.5,1771.82 c -79.8,0 -147.1,86.69 -220.6,106.41 -17,4.55 -35.3,6.05 -54.3,6.05 -17.8,0 -36.2,-1.36 -54.6,-2.71 -18.3,-1.28 -36.7,-2.63 -54.4,-2.63 -29.6,0 -57.4,3.7 -81,17.29 -67.6,39.15 -82.8,147.83 -137.6,202.7 -53.8,53.74 -159.3,69.39 -200.3,133.52 104,61.06 263.4,132.73 502.2,195.01 l 265.3,-153.16 c 14.3,-8.26 30.5,-12.67 46.7,-12.67 51.7,0 93.6,42.06 93.6,93.73 v 49.4 h 371.1 c 45.7,0 82.7,37.08 82.7,82.63 v 71.1 c 98.9,7.19 203.9,12.67 315.3,16.23 -21.2,-31.18 -42.5,-62 -51,-93.88 -20.4,-76.16 20.5,-177.65 -18,-244.33 -39.1,-67.55 -147.8,-82.71 -202.7,-137.65 -54.9,-54.8 -70,-163.48 -137.6,-202.63 -23.5,-13.59 -51.4,-17.29 -81,-17.29 -17.7,0 -36.1,1.35 -54.4,2.63 -18.4,1.35 -36.8,2.71 -54.7,2.71 -18.8,0 -37.1,-1.5 -54.1,-6.05 -73.6,-19.72 -140.9,-106.41 -220.6,-106.41 m -821,516 c -5.7,49.4 6.5,106.76 3.2,157.86 -0.8,12.1 -2.5,23.92 -5.4,35.16 -19.3,71.88 -102.7,137.93 -106.3,215.37 -0.1,1.7 -0.1,3.41 -0.1,5.12 0,41.42 23.4,79.43 48.6,116.79 17.1,25.27 35,50.25 47.1,75.73 4.5,9.32 8.2,18.72 10.7,28.11 20.3,76.16 -20.5,177.65 18,244.26 6.5,11.32 15,21.14 24.9,29.97 38.6,34.52 98.3,53.09 144.2,81.7 12.4,7.76 23.9,16.23 33.6,25.98 54.8,54.87 70,163.55 137.6,202.63 1.6,0.92 3.1,1.78 4.7,2.56 17,8.75 36,12.67 56.2,14.16 6.6,0.43 13.3,0.64 20.1,0.64 5.1,0 10.3,-0.14 15.5,-0.28 12.8,-0.5 25.8,-1.42 38.9,-2.42 18.4,-1.28 36.8,-2.64 54.6,-2.64 19,0 37.3,1.5 54.3,6.05 55.9,14.95 108.3,68.76 165.3,93.59 17.9,7.83 36.2,12.75 55.3,12.75 1.6,0 3.2,0 4.8,-0.08 0.1,0 0.2,0 0.3,0 77.5,-3.62 143.5,-86.97 215.5,-106.26 11.1,-2.98 22.9,-4.69 35,-5.48 6.3,-0.35 12.6,-0.57 19.1,-0.57 17.9,0 36.3,1.36 54.7,2.64 13.5,1 27,1.99 40.3,2.42 4.7,0.21 9.4,0.28 14.1,0.28 7.3,0 14.4,-0.21 21.5,-0.78 2.6,-0.21 5.2,-0.43 7.8,-0.71 18.6,-2.14 36.1,-6.83 51.7,-15.87 64.5,-37.3 81.3,-138 130.5,-194.8 2.2,-2.7 4.6,-5.34 7.2,-7.83 39.3,-39.36 106.3,-58.29 155.5,-90.74 19.4,-12.81 36.1,-27.76 47.1,-46.91 38.5,-66.61 -2.4,-168.1 18,-244.26 19.7,-73.52 106.4,-140.85 106.4,-220.63 0,-22.06 -6.6,-43.13 -16.7,-63.7 -85.5,-3.56 -208.9,-9.96 -354,-21.71 v 149.96 c 0,45.55 -37,82.63 -82.7,82.63 h -371.1 v 49.4 c 0,51.67 -41.9,93.66 -93.6,93.66 -16.2,0 -32.4,-4.34 -46.7,-12.6 l -469.9,-271.31 c -29.3,-16.93 -46.8,-47.18 -46.8,-81.06 0,-33.81 17.5,-64.13 46.8,-80.99 l 118.2,-68.26 c -134.9,-31.81 -264.4,-69.67 -380.4,-114.8 -19.7,-22.84 -37.6,-43.7 -53.9,-62.84 0,-3.99 0.1,-7.98 0.3,-11.89"
               style="fill:url(#linearGradient7183);fill-opacity:1;fill-rule:nonzero;stroke:none"
               id="path7185" />
          </g>
        </g>
      </g>
      <g
         id="g7187"
         transform="matrix(0.03527778,0,0,-0.03527778,-662.97664,281.49991)">
        <g
           id="g7189"
           clip-path="url(#clipPath7193)">
          <g
             id="g7195"
             transform="scale(1.28485)">
            <path
               d="m 16283.4,3120.84 c -143.2,-22.88 -321.6,-33.94 -438.4,-39.07 18.8,27.63 38.3,54.95 51.6,82.81 102,-6.46 241.4,-11.67 382.9,-5.37 24.3,1.09 28,-34.48 3.9,-38.37"
               style="fill:url(#linearGradient7207);fill-opacity:1;fill-rule:nonzero;stroke:none"
               id="path7209" />
          </g>
        </g>
      </g>
      <g
         id="g7211"
         transform="matrix(0.03527778,0,0,-0.03527778,-662.97664,281.49991)">
        <g
           id="g7213"
           clip-path="url(#clipPath7217)">
          <g
             id="g7219"
             transform="scale(1.40585)">
            <path
               d="m 14554.1,2227.98 c -8.3,17.71 -11.8,37.56 -12.8,58.54 -0.2,3.91 -0.3,7.9 -0.3,11.88 16.2,19.14 34.1,39.98 53.8,62.81 116,45.1 245.4,82.94 380.2,114.74 l 86.4,-49.87 c -238.7,-62.24 -398.1,-133.87 -501.9,-194.9 -1.8,-1.07 -3.6,-2.13 -5.4,-3.2 v 0 m 1366.2,329.06 v 57.4 c 145,11.74 268.3,18.14 353.8,21.69 9,0.36 17.7,0.72 25.9,1 v 0 c -8.9,-21.55 -22.1,-42.39 -36,-63.02 v 0 c -9.5,-0.29 -19.1,-0.57 -28.6,-0.86 -111.4,-3.55 -216.3,-9.03 -315.1,-16.21"
               style="fill:url(#linearGradient7231);fill-opacity:1;fill-rule:nonzero;stroke:none"
               id="path7233" />
          </g>
        </g>
      </g>
      <g
         id="g7235"
         transform="matrix(0.03527778,0,0,-0.03527778,-662.97664,281.49991)">
        <g
           id="g7237"
           clip-path="url(#clipPath7241)">
          <g
             id="g7243"
             transform="scale(1.3975)">
            <path
               d="m 16300,2314.28 c -0.1,-29.62 -3.9,-57.67 -17.6,-81.29 -4.2,-7.08 -8.9,-13.59 -14.5,-19.6 -97,-24.98 -345.4,-84.58 -584.5,-108.27 -16.7,-1.64 -20.2,22.97 -3.7,26.05 244.1,45.01 489.2,132.24 620.3,183.11"
               style="fill:url(#linearGradient7255);fill-opacity:1;fill-rule:nonzero;stroke:none"
               id="path7257" />
          </g>
        </g>
      </g>
      <g
         id="g7259"
         transform="matrix(0.03527778,0,0,-0.03527778,-662.97664,281.49991)">
        <g
           id="g7261"
           clip-path="url(#clipPath7265)">
          <g
             id="g7267"
             transform="scale(1.3919)">
            <path
               d="m 16300,3238.68 c -125,-33.27 -482.4,-120.77 -790,-121.99 -19.1,-0.15 -21.8,27.58 -3,31.1 245.3,46.13 494.8,135.79 629.4,188.45 1.5,-1.65 3.1,-3.23 4.6,-4.81 40.2,-40.24 108.8,-59.49 159,-92.75"
               style="fill:url(#linearGradient7279);fill-opacity:1;fill-rule:nonzero;stroke:none"
               id="path7281" />
          </g>
        </g>
      </g>
      <g
         id="g7283"
         transform="matrix(0.03527778,0,0,-0.03527778,-662.97664,281.49991)">
        <g
           id="g7285"
           clip-path="url(#clipPath7289)">
          <g
             id="g7291"
             transform="scale(1.36985)">
            <path
               d="m 15777.1,2358.36 c -9.6,0 -19.3,2.41 -28.6,7.73 l -482,278.28 c -23.8,13.8 -32.8,40.44 -27,63.95 3.5,-12.85 11.9,-24.6 25.4,-32.19 l 139.6,-78.11 v 0 l 316.5,-177.1 c 8.7,-4.89 18.1,-7.16 27.1,-7.16 28.3,0 54.4,21.98 54.4,52.78 v 81.84 h 396.5 c 24.2,0 43.8,19.05 43.8,42.41 v 262.07 0 c 0,11.83 -5.1,22.63 -13.2,30.3 h 24.2 c 25.5,0 46.2,-20.73 46.2,-46.21 V 2551.3 c 0,-25.55 -20.7,-46.21 -46.2,-46.21 h -419.2 v -89.21 c 0,-33.58 -27.5,-57.52 -57.5,-57.52 m 57.5,536.92 h -32.1 v 81.83 c 0,25.48 -17.8,44.89 -40,50.88 4.9,1.31 9.8,1.9 14.6,1.9 30,0 57.5,-23.95 57.5,-57.53 v -77.08"
               style="fill:url(#linearGradient7299);fill-opacity:1;fill-rule:nonzero;stroke:none"
               id="path7301" />
          </g>
        </g>
      </g>
      <g
         id="g7303"
         transform="matrix(0.04843992,0,0,-0.04843992,-662.97664,281.49991)">
        <path
           d="m 15739.8,3061.18 c -16.6,0 -33.1,-4.44 -47.8,-12.89 l -480.8,-277.62 c -30,-17.33 -47.9,-48.29 -47.9,-82.95 0,-34.6 17.9,-65.62 47.9,-82.88 l 480.8,-277.62 c 14.7,-8.45 31.2,-12.97 47.8,-12.97 52.9,0 95.8,43.05 95.8,95.92 v 50.54 h 379.8 c 46.7,0 84.6,37.95 84.6,84.56 v 284.97 c 0,46.61 -37.9,84.56 -84.6,84.56 h -379.8 v 50.54 c 0,52.87 -42.9,95.84 -95.8,95.84 m 0,-38.45 c 29.9,0 57.4,-23.89 57.4,-57.39 v -89 h 418.2 c 25.5,0 46.1,-20.68 46.1,-46.1 v -284.97 c 0,-25.49 -20.6,-46.1 -46.1,-46.1 h -418.2 v -89 c 0,-33.5 -27.5,-57.39 -57.4,-57.39 -9.5,0 -19.3,2.41 -28.5,7.72 l -480.9,277.62 c -38.2,22.07 -38.2,77.2 0,99.27 l 480.9,277.62 c 9.2,5.31 19,7.72 28.5,7.72"
           style="fill:#5a2903;fill-opacity:1;fill-rule:nonzero;stroke:none"
           id="path7305" />
      </g>
      <g
         id="g7307"
         transform="matrix(0.03527778,0,0,-0.03527778,-662.97664,281.49991)">
        <g
           id="g7309"
           clip-path="url(#clipPath7313)">
          <g
             id="g7315"
             transform="scale(1.36504)">
            <path
               d="m 15458.8,2607.17 v 0 l -140.1,78.39 c -13.5,7.62 -22,19.41 -25.5,32.3 -5.8,21.76 2.7,46.6 25.5,59.42 l 457.7,256.1 c 8.7,4.91 18.1,7.18 27.2,7.18 4.9,0 9.8,-0.65 14.4,-1.9 22.3,-6.01 40.2,-25.49 40.2,-51.06 v -82.12 h 32.2 365.7 c 5.9,0 11.3,-1.1 16.3,-3.15 5.4,-2.05 10.3,-5.13 14.4,-9.01 8.1,-7.7 13.2,-18.54 13.2,-30.41 v 0 c 0,17.88 -11.4,33.26 -27.6,39.42 -117.7,-99.05 -368.1,-253.55 -813.6,-295.16"
               style="fill:url(#linearGradient7325);fill-opacity:1;fill-rule:nonzero;stroke:none"
               id="path7327" />
          </g>
        </g>
      </g>
      <g
         id="g7329"
         transform="matrix(0.03527778,0,0,-0.03527778,-662.97664,281.49991)">
        <g
           id="g7331"
           clip-path="url(#clipPath7335)">
          <g
             id="g7337"
             transform="scale(1.36504)">
            <path
               d="m 15803.6,2422.27 c -9.1,0 -18.5,2.27 -27.2,7.18 l -317.6,177.72 c 445.5,41.61 695.9,196.11 813.6,295.16 16.2,-6.16 27.6,-21.54 27.6,-39.42 v -262.99 c 0,-23.44 -19.6,-42.56 -43.9,-42.56 h -397.9 v -82.13 c 0,-30.91 -26.2,-52.96 -54.6,-52.96"
               style="fill:url(#linearGradient7347);fill-opacity:1;fill-rule:nonzero;stroke:none"
               id="path7349" />
          </g>
        </g>
      </g>
    </g>
  </g>
</svg>
