<?xml version="1.0" encoding="UTF-8" standalone="no"?>
<!-- Created with Inkscape (http://www.inkscape.org/) -->

<svg
   width="230.0px"
   height="230.0px"
   viewBox="0 0 230.0 230.0"
   version="1.1"
   id="SVGRoot"
   inkscape:version="1.2.2 (1:1.2.2+202212051550+b0a8486541)"
   xmlns:inkscape="http://www.inkscape.org/namespaces/inkscape"
   xmlns="http://www.w3.org/2000/svg"
   xmlns:svg="http://www.w3.org/2000/svg">
  <defs
     id="defs8589">
    <clipPath
       clipPathUnits="userSpaceOnUse"
       id="clipPath4679">
      <path
         d="m 5470.45,17541.7 c 108.91,0 172.7,-29.6 191.37,-88.7 9.31,-24.9 14,-68.5 14,-130.7 0,-62.2 -20.27,-139.6 -60.71,-232.1 -40.44,-92.6 -89.05,-184 -145.79,-274.2 -56.8,-90.2 -113.95,-181.2 -171.52,-273 -136.9,-222.4 -205.32,-401.3 -205.32,-536.6 0,-34.2 -1.54,-59.5 -4.68,-75.9 -3.14,-16.3 -10.91,-33.4 -23.3,-51.3 -12.51,-17.9 -33.08,-29.9 -61.84,-36.2 -28.81,-6.2 -68.07,-9.3 -117.86,-9.3 -49.8,0 -89.05,3.1 -117.81,9.3 -28.81,6.3 -49.39,18.7 -61.84,37.4 -12.45,18.7 -19.8,36.1 -22.17,52.5 -2.32,16.3 -3.5,42.3 -3.5,78.1 0,101.1 17.13,204.9 51.35,311.5 34.2,106.6 75.41,201.9 123.67,285.9 48.2,84 96.4,161.3 144.66,232.2 48.2,70.7 89.41,131.3 123.67,181.9 34.16,50.5 51.3,86 51.3,106.2 h -531.95 c -62.24,0 -107.36,7.8 -135.35,23.3 -27.98,15.5 -46.66,38.1 -56.02,67.7 -9.31,29.5 -13.99,68.4 -13.99,116.6 0,48.2 4.68,87.1 13.99,116.7 9.36,29.5 24.13,49.8 44.35,60.7 32.66,18.6 77.78,28 135.35,28 z"
         id="path4677" />
    </clipPath>
    <linearGradient
       x1="0"
       y1="0"
       x2="1"
       y2="0"
       gradientUnits="userSpaceOnUse"
       gradientTransform="matrix(0,1707.97,1707.97,0,5056.32,15833.7)"
       spreadMethod="pad"
       id="linearGradient4693">
      <stop
         style="stop-opacity:1;stop-color:#900093"
         offset="0"
         id="stop4683" />
      <stop
         style="stop-opacity:1;stop-color:#900093"
         offset="0.0723023"
         id="stop4685" />
      <stop
         style="stop-opacity:1;stop-color:#fb31ff"
         offset="0.5"
         id="stop4687" />
      <stop
         style="stop-opacity:1;stop-color:#69006b"
         offset="0.85994529"
         id="stop4689" />
      <stop
         style="stop-opacity:1;stop-color:#69006b"
         offset="1"
         id="stop4691" />
    </linearGradient>
    <clipPath
       clipPathUnits="userSpaceOnUse"
       id="clipPath4703">
      <path
         d="m 2729.8,17541.7 c 108.91,0 172.7,-29.6 191.38,-88.7 9.31,-24.9 13.99,-68.5 13.99,-130.7 0,-62.2 -20.27,-139.6 -60.71,-232.1 -40.43,-92.6 -89.04,-184 -145.79,-274.2 -56.79,-90.2 -113.95,-181.2 -171.52,-273 -136.89,-222.4 -205.31,-401.3 -205.31,-536.6 0,-34.2 -1.55,-59.5 -4.69,-75.9 -3.13,-16.3 -10.9,-33.4 -23.3,-51.3 -12.5,-17.9 -33.08,-29.9 -61.84,-36.2 -28.81,-6.2 -68.06,-9.3 -117.86,-9.3 -49.79,0 -89.05,3.1 -117.81,9.3 -28.81,6.3 -49.38,18.7 -61.83,37.4 -12.45,18.7 -19.81,36.1 -22.18,52.5 -2.31,16.3 -3.49,42.3 -3.49,78.1 0,101.1 17.13,204.9 51.34,311.5 34.21,106.6 75.42,201.9 123.67,285.9 48.21,84 96.41,161.3 144.67,232.2 48.2,70.7 89.4,131.3 123.67,181.9 34.16,50.5 51.29,86 51.29,106.2 h -531.94 c -62.25,0 -107.37,7.8 -135.35,23.3 -27.99,15.5 -46.66,38.1 -56.03,67.7 -9.31,29.5 -13.99,68.4 -13.99,116.6 0,48.2 4.68,87.1 13.99,116.7 9.37,29.5 24.13,49.8 44.35,60.7 32.67,18.6 77.78,28 135.35,28 z"
         id="path4701" />
    </clipPath>
    <linearGradient
       x1="0"
       y1="0"
       x2="1"
       y2="0"
       gradientUnits="userSpaceOnUse"
       gradientTransform="matrix(0,1707.97,1707.97,0,2315.67,15833.7)"
       spreadMethod="pad"
       id="linearGradient4717">
      <stop
         style="stop-opacity:1;stop-color:#900093"
         offset="0"
         id="stop4707" />
      <stop
         style="stop-opacity:1;stop-color:#900093"
         offset="0.0723023"
         id="stop4709" />
      <stop
         style="stop-opacity:1;stop-color:#fb31ff"
         offset="0.5"
         id="stop4711" />
      <stop
         style="stop-opacity:1;stop-color:#69006b"
         offset="0.85994529"
         id="stop4713" />
      <stop
         style="stop-opacity:1;stop-color:#69006b"
         offset="1"
         id="stop4715" />
    </linearGradient>
    <clipPath
       clipPathUnits="userSpaceOnUse"
       id="clipPath4727">
      <path
         d="m 5470.45,17661.7 h -839.94 c -78.9,0 -142.28,-14.1 -193.7,-43.2 -33.2,-18.2 -76.96,-55.3 -100.39,-129.2 -13.21,-42 -19.6,-92 -19.6,-153 0,-61 6.39,-111 19.55,-152.7 18.65,-58.9 57.45,-106.1 112.21,-136.5 47.18,-26.2 108.7,-38.4 193.6,-38.4 h 326.26 c -20.98,-30.9 -43.79,-64.4 -68.44,-100.6 -49.91,-73.2 -100.23,-154 -149.58,-240 -52.16,-90.8 -97.2,-194.7 -133.85,-308.9 -37.88,-118 -57.09,-235.1 -57.09,-348.2 0,-42.2 1.49,-72.4 4.69,-95 4.99,-34.4 18.81,-68.7 41.14,-102.2 20.82,-31.2 61.39,-71.9 136.36,-88.1 37.34,-8 84.17,-12 143.13,-12 58.92,0 105.76,4 143.19,12 73.71,16 114.04,54.9 134.89,84.8 22.17,32 36.46,64.6 42.75,97.4 4.68,24.3 6.85,55.6 6.85,98.5 0,77.1 32.53,221.9 187.52,473.8 56.99,90.8 114.11,181.7 170.87,271.9 59.79,95.1 111.66,192.7 154.21,290.1 47.6,108.9 70.74,200.5 70.74,280.1 0,77.6 -6.34,130.1 -20.5,169.7 -25.74,78.1 -99.71,169.7 -304.87,169.7 z m 0,-120 c 108.91,0 172.7,-29.6 191.37,-88.7 9.31,-24.9 14,-68.5 14,-130.7 0,-62.2 -20.27,-139.6 -60.71,-232.1 -40.43,-92.6 -89.05,-184 -145.79,-274.2 -56.8,-90.2 -113.95,-181.2 -171.52,-273 -136.9,-222.4 -205.32,-401.3 -205.32,-536.6 0,-34.2 -1.54,-59.5 -4.68,-75.9 -3.14,-16.3 -10.91,-33.4 -23.3,-51.3 -12.5,-17.9 -33.08,-29.9 -61.84,-36.2 -28.81,-6.2 -68.06,-9.3 -117.86,-9.3 -49.8,0 -89.05,3.1 -117.81,9.3 -28.81,6.3 -49.39,18.7 -61.84,37.4 -12.44,18.7 -19.8,36.1 -22.17,52.5 -2.32,16.3 -3.5,42.3 -3.5,78.1 0,101.1 17.13,204.9 51.35,311.6 34.2,106.5 75.41,201.8 123.67,285.8 48.2,84 96.4,161.3 144.66,232.2 48.2,70.7 89.41,131.3 123.68,181.9 34.15,50.5 51.29,86 51.29,106.2 h -531.95 c -62.24,0 -107.36,7.8 -135.35,23.3 -27.98,15.5 -46.66,38.1 -56.02,67.7 -9.31,29.5 -13.99,68.4 -13.99,116.6 0,48.2 4.68,87.1 13.99,116.7 9.36,29.5 24.13,49.8 44.35,60.7 32.66,18.6 77.78,28 135.35,28 h 839.94"
         id="path4725" />
    </clipPath>
    <linearGradient
       x1="0"
       y1="0"
       x2="1"
       y2="0"
       gradientUnits="userSpaceOnUse"
       gradientTransform="matrix(0,1947.97,1947.97,0,5056.32,15713.7)"
       spreadMethod="pad"
       id="linearGradient4741">
      <stop
         style="stop-opacity:1;stop-color:#be6d00"
         offset="0"
         id="stop4731" />
      <stop
         style="stop-opacity:1;stop-color:#fff57f"
         offset="0.25008721"
         id="stop4733" />
      <stop
         style="stop-opacity:1;stop-color:#fff57f"
         offset="0.433036"
         id="stop4735" />
      <stop
         style="stop-opacity:1;stop-color:#be6d00"
         offset="0.78897242"
         id="stop4737" />
      <stop
         style="stop-opacity:1;stop-color:#be6d00"
         offset="1"
         id="stop4739" />
    </linearGradient>
    <clipPath
       clipPathUnits="userSpaceOnUse"
       id="clipPath4751">
      <path
         d="m 2729.8,17661.7 h -839.94 c -78.89,0 -142.27,-14.1 -193.68,-43.2 -33.2,-18.2 -76.98,-55.3 -100.4,-129.2 -13.22,-42 -19.61,-92 -19.61,-153 0,-61 6.4,-111 19.55,-152.7 18.66,-58.9 57.45,-106.1 112.22,-136.5 47.17,-26.2 108.69,-38.4 193.6,-38.4 h 326.25 c -20.98,-30.9 -43.79,-64.4 -68.43,-100.6 -49.92,-73.2 -100.24,-154 -149.59,-240 -52.15,-90.8 -97.2,-194.7 -133.85,-308.9 -37.88,-118 -57.08,-235.1 -57.08,-348.2 0,-42.2 1.49,-72.4 4.69,-95 4.98,-34.4 18.8,-68.7 41.14,-102.2 20.81,-31.2 61.37,-71.9 136.35,-88.1 37.34,-8 84.18,-12 143.14,-12 58.92,0 105.76,4 143.18,12 73.71,16 114.03,54.9 134.89,84.8 22.17,32 36.47,64.6 42.77,97.4 4.67,24.3 6.84,55.6 6.84,98.5 0,77.1 32.53,221.9 187.51,473.8 56.99,90.8 114.12,181.7 170.88,271.9 59.78,95.1 111.65,192.7 154.21,290.1 47.59,108.9 70.73,200.5 70.73,280.1 0,77.6 -6.33,130.1 -20.5,169.7 -25.74,78.1 -99.71,169.7 -304.87,169.7 z m 0,-120 c 108.91,0 172.7,-29.6 191.38,-88.7 9.31,-24.9 13.99,-68.5 13.99,-130.7 0,-62.2 -20.27,-139.6 -60.7,-232.1 -40.44,-92.6 -89.05,-184 -145.8,-274.2 -56.79,-90.2 -113.95,-181.2 -171.52,-273 -136.89,-222.4 -205.31,-401.3 -205.31,-536.6 0,-34.2 -1.55,-59.5 -4.69,-75.9 -3.13,-16.3 -10.9,-33.4 -23.3,-51.3 -12.5,-17.9 -33.08,-29.9 -61.84,-36.2 -28.81,-6.2 -68.06,-9.3 -117.85,-9.3 -49.8,0 -89.06,3.1 -117.82,9.3 -28.81,6.3 -49.38,18.7 -61.83,37.4 -12.45,18.7 -19.81,36.1 -22.18,52.5 -2.31,16.3 -3.49,42.3 -3.49,78.1 0,101.1 17.13,204.9 51.34,311.6 34.21,106.5 75.42,201.8 123.67,285.8 48.21,84 96.41,161.3 144.67,232.2 48.2,70.7 89.4,131.3 123.67,181.9 34.16,50.5 51.29,86 51.29,106.2 h -531.94 c -62.25,0 -107.37,7.8 -135.35,23.3 -27.99,15.5 -46.66,38.1 -56.02,67.7 -9.32,29.5 -14,68.4 -14,116.6 0,48.2 4.68,87.1 14,116.7 9.36,29.5 24.12,49.8 44.34,60.7 32.67,18.6 77.78,28 135.35,28 h 839.94"
         id="path4749" />
    </clipPath>
    <linearGradient
       x1="0"
       y1="0"
       x2="1"
       y2="0"
       gradientUnits="userSpaceOnUse"
       gradientTransform="matrix(0,1947.97,1947.97,0,2315.67,15713.7)"
       spreadMethod="pad"
       id="linearGradient4765">
      <stop
         style="stop-opacity:1;stop-color:#be6d00"
         offset="0"
         id="stop4755" />
      <stop
         style="stop-opacity:1;stop-color:#fff57f"
         offset="0.25008721"
         id="stop4757" />
      <stop
         style="stop-opacity:1;stop-color:#fff57f"
         offset="0.433036"
         id="stop4759" />
      <stop
         style="stop-opacity:1;stop-color:#be6d00"
         offset="0.78897242"
         id="stop4761" />
      <stop
         style="stop-opacity:1;stop-color:#be6d00"
         offset="1"
         id="stop4763" />
    </linearGradient>
    <clipPath
       clipPathUnits="userSpaceOnUse"
       id="clipPath4775">
      <path
         d="m 4232.2,18086.4 c 143.64,0 227.78,-39 252.41,-117 12.28,-32.8 18.46,-90.3 18.46,-172.3 0,-82 -26.74,-184.2 -80.07,-306.2 -53.33,-122.1 -117.45,-242.6 -192.29,-361.6 -74.91,-119 -150.29,-239 -226.22,-360 -180.55,-293.4 -270.8,-529.4 -270.8,-707.9 0,-45.1 -2.03,-78.4 -6.17,-100 -4.14,-21.5 -14.39,-44.1 -30.74,-67.7 -16.49,-23.6 -43.63,-39.5 -81.56,-47.7 -37.99,-8.2 -89.77,-12.3 -155.44,-12.3 -65.69,0 -117.46,4.1 -155.39,12.3 -37.99,8.2 -65.14,24.6 -81.55,49.3 -16.42,24.6 -26.13,47.7 -29.25,69.2 -3.05,21.5 -4.62,55.9 -4.62,103.1 0,133.3 22.6,270.3 67.72,410.8 45.13,140.6 99.47,266.2 163.12,377 63.58,110.8 127.15,212.8 190.8,306.3 63.57,93.2 117.93,173.2 163.12,239.9 45.05,66.7 67.64,113.4 67.64,140.1 h -701.58 c -82.11,0 -141.61,10.2 -178.53,30.7 -36.9,20.5 -61.54,50.3 -73.89,89.3 -12.28,39 -18.45,90.3 -18.45,153.8 0,63.6 6.17,114.9 18.45,153.9 12.35,39 31.82,65.7 58.49,80 43.09,24.7 102.6,37 178.52,37 z"
         id="path4773" />
    </clipPath>
    <linearGradient
       x1="0"
       y1="0"
       x2="1"
       y2="0"
       gradientUnits="userSpaceOnUse"
       gradientTransform="matrix(0,2252.69,2252.69,0,3685.99,15833.7)"
       spreadMethod="pad"
       id="linearGradient4789">
      <stop
         style="stop-opacity:1;stop-color:#900093"
         offset="0"
         id="stop4779" />
      <stop
         style="stop-opacity:1;stop-color:#900093"
         offset="0.0723023"
         id="stop4781" />
      <stop
         style="stop-opacity:1;stop-color:#fb31ff"
         offset="0.5"
         id="stop4783" />
      <stop
         style="stop-opacity:1;stop-color:#69006b"
         offset="0.85994529"
         id="stop4785" />
      <stop
         style="stop-opacity:1;stop-color:#69006b"
         offset="1"
         id="stop4787" />
    </linearGradient>
    <clipPath
       clipPathUnits="userSpaceOnUse"
       id="clipPath4799">
      <path
         d="M 4232.2,18206.4 H 3124.38 c -97.39,0 -174.87,-17 -236.83,-52.1 -37.6,-20.6 -87.41,-63 -114.56,-148.6 -16.22,-51.5 -24.07,-113.7 -24.07,-190.2 0,-76.5 7.85,-138.6 24.01,-189.9 21.6,-68.2 66.56,-122.8 130.08,-158.1 56.33,-31.2 131.56,-45.8 236.78,-45.8 h 502.55 c -38.11,-56.2 -81.74,-120.3 -130.89,-192.5 -65.28,-95.8 -131.13,-201.5 -195.72,-314 -67.46,-117.5 -125.77,-252.1 -173.29,-400.1 -48.75,-151.8 -73.46,-302.4 -73.46,-447.5 0,-53.9 1.84,-92 5.81,-119.9 5.73,-39.7 21.93,-79.6 48.19,-119 23.56,-35.3 69.74,-81.3 156.06,-100 46.55,-10.1 105.68,-15 180.74,-15 75.01,0 134.15,4.9 180.8,15 68.3,14.8 120.3,47.2 154.59,96.3 26.09,37.7 42.89,75.8 50.19,113.8 5.68,29.6 8.33,68.6 8.33,122.6 0,155.2 85.12,372.2 253,645 75.35,120.1 150.7,240 225.58,359 77.83,123.7 145.35,250.7 200.7,377.5 60.62,138.7 90.1,254.5 90.1,354.2 0,96.6 -7.94,164 -24.96,211.4 -29.86,91 -117.78,197.9 -365.91,197.9 z m 0,-120 c 143.64,0 227.78,-39 252.41,-117 12.28,-32.8 18.46,-90.3 18.46,-172.3 0,-82 -26.74,-184.2 -80.07,-306.2 -53.33,-122.1 -117.45,-242.6 -192.29,-361.6 -74.91,-119 -150.29,-239 -226.22,-360 -180.55,-293.4 -270.8,-529.4 -270.8,-707.9 0,-45.1 -2.03,-78.4 -6.17,-100 -4.14,-21.5 -14.39,-44.1 -30.74,-67.7 -16.49,-23.6 -43.63,-39.5 -81.56,-47.7 -37.99,-8.2 -89.77,-12.3 -155.44,-12.3 -65.68,0 -117.46,4.1 -155.39,12.3 -37.99,8.2 -65.13,24.6 -81.55,49.3 -16.42,24.6 -26.13,47.7 -29.25,69.2 -3.05,21.5 -4.61,55.9 -4.61,103.1 0,133.3 22.59,270.3 67.71,410.8 45.13,140.6 99.48,266.2 163.12,377 63.58,110.8 127.15,212.8 190.8,306.3 63.58,93.2 117.93,173.2 163.12,239.9 45.05,66.7 67.65,113.4 67.65,140.1 h -701.59 c -82.1,0 -141.61,10.2 -178.53,30.7 -36.9,20.5 -61.53,50.3 -73.89,89.3 -12.28,39 -18.45,90.3 -18.45,153.8 0,63.6 6.17,114.9 18.45,153.9 12.36,39 31.83,65.7 58.49,80 43.09,24.7 102.6,37 178.52,37 H 4232.2"
         id="path4797" />
    </clipPath>
    <linearGradient
       x1="0"
       y1="0"
       x2="1"
       y2="0"
       gradientUnits="userSpaceOnUse"
       gradientTransform="matrix(0,2492.69,2492.69,0,3685.99,15713.7)"
       spreadMethod="pad"
       id="linearGradient4813">
      <stop
         style="stop-opacity:1;stop-color:#be6d00"
         offset="0"
         id="stop4803" />
      <stop
         style="stop-opacity:1;stop-color:#fff57f"
         offset="0.25008721"
         id="stop4805" />
      <stop
         style="stop-opacity:1;stop-color:#fff57f"
         offset="0.433036"
         id="stop4807" />
      <stop
         style="stop-opacity:1;stop-color:#be6d00"
         offset="0.78897242"
         id="stop4809" />
      <stop
         style="stop-opacity:1;stop-color:#be6d00"
         offset="1"
         id="stop4811" />
    </linearGradient>
    <clipPath
       clipPathUnits="userSpaceOnUse"
       id="clipPath4317">
      <path
         d="M 12410.4,15106.4 H 7593.6 v 3708 h 4816.8 v -3708 m -4077.82,1835.5 -268.69,-109 c 316.69,-781.2 1069.03,-1255.1 1863.19,-1255.2 251.42,0 506.92,47.5 754.32,147.7 1028.6,417 1524.5,1588.9 1107.5,2617.5 l -268.7,-108.9 v 0 L 8332.58,16941.9 v 0"
         id="path4315" />
    </clipPath>
    <clipPath
       clipPathUnits="userSpaceOnUse"
       id="clipPath4323">
      <path
         d="m 9655.2,17463.2 h 1039.2 v 343.203 H 9655.2 Z"
         id="path4321" />
    </clipPath>
    <clipPath
       clipPathUnits="userSpaceOnUse"
       id="clipPath4353">
      <path
         d="M 12410.4,15106.4 H 7593.6 v 3708 h 4816.8 v -3708 m -4077.82,1835.5 -268.69,-109 c 316.69,-781.2 1069.03,-1255.1 1863.19,-1255.2 251.42,0 506.92,47.5 754.32,147.7 1028.6,417 1524.5,1588.9 1107.5,2617.5 l -268.7,-108.9 v 0 L 8332.58,16941.9 v 0"
         id="path4351" />
    </clipPath>
    <clipPath
       clipPathUnits="userSpaceOnUse"
       id="clipPath4359">
      <path
         d="m 8277.6,16788.8 h 693.598 v 343.199 H 8277.6 Z"
         id="path4357" />
    </clipPath>
    <clipPath
       clipPathUnits="userSpaceOnUse"
       id="clipPath4479">
      <path
         d="m 9927.08,15577.7 c -794.16,0.1 -1546.5,474 -1863.19,1255.2 l 268.69,109 v 0 0 c 76.92,-189.8 183.87,-358.4 313.14,-502.5 326.17,-363.6 794.56,-571.7 1281.26,-571.7 215.12,0 433.82,40.6 645.52,126.4 668.8,271.1 1074.4,915.1 1074.1,1595 0,94.8 -7.9,190.3 -24.1,285.6 -20.5,120.7 -54.4,241.1 -102.3,359.3 l 268.7,108.9 c 417,-1028.6 -78.9,-2200.5 -1107.5,-2617.5 -247.4,-100.2 -502.9,-147.7 -754.32,-147.7"
         id="path4477" />
    </clipPath>
    <linearGradient
       x1="0"
       y1="0"
       x2="1"
       y2="0"
       gradientUnits="userSpaceOnUse"
       gradientTransform="matrix(0,2765.24,2765.24,0,10000.3,15577.7)"
       spreadMethod="pad"
       id="linearGradient4493">
      <stop
         style="stop-opacity:1;stop-color:#549300"
         offset="0"
         id="stop4483" />
      <stop
         style="stop-opacity:1;stop-color:#549300"
         offset="0.0723023"
         id="stop4485" />
      <stop
         style="stop-opacity:1;stop-color:#a6ff31"
         offset="0.5"
         id="stop4487" />
      <stop
         style="stop-opacity:1;stop-color:#3d6b00"
         offset="0.85994529"
         id="stop4489" />
      <stop
         style="stop-opacity:1;stop-color:#3d6b00"
         offset="1"
         id="stop4491" />
    </linearGradient>
    <clipPath
       clipPathUnits="userSpaceOnUse"
       id="clipPath4503">
      <path
         d="m 9926.98,15867.7 c -486.7,0 -955.09,208.1 -1281.26,571.7 326.17,-363.6 794.56,-571.7 1281.26,-571.7 215.12,0 433.82,40.6 645.52,126.4 668.8,271.1 1074.4,915.1 1074.1,1595 0.3,-679.9 -405.3,-1323.9 -1074.1,-1595 -211.7,-85.8 -430.4,-126.4 -645.52,-126.4 m -81.08,200.9 c -610.44,0 -1191.74,327.4 -1500.28,878.6 l -13.04,-5.3 v 0 0 L 11520.2,18234 v 0 c 47.9,-118.2 81.8,-238.6 102.3,-359.3 -20.5,120.7 -54.4,241.1 -102.3,359.3 l -13,-5.3 c 219.5,-825.4 -204,-1704.5 -1016.2,-2033.7 -211.5,-85.7 -430.1,-126.4 -645.1,-126.4"
         id="path4501" />
    </clipPath>
    <linearGradient
       x1="0"
       y1="0"
       x2="1"
       y2="0"
       gradientUnits="userSpaceOnUse"
       gradientTransform="matrix(0,2366.32,2366.32,0,9989.61,15867.7)"
       spreadMethod="pad"
       id="linearGradient4517">
      <stop
         style="stop-opacity:1;stop-color:#6b0000"
         offset="0"
         id="stop4507" />
      <stop
         style="stop-opacity:1;stop-color:#6b0000"
         offset="0.14005471"
         id="stop4509" />
      <stop
         style="stop-opacity:1;stop-color:#ff3131"
         offset="0.5"
         id="stop4511" />
      <stop
         style="stop-opacity:1;stop-color:#930000"
         offset="0.9276977"
         id="stop4513" />
      <stop
         style="stop-opacity:1;stop-color:#930000"
         offset="1"
         id="stop4515" />
    </linearGradient>
    <clipPath
       clipPathUnits="userSpaceOnUse"
       id="clipPath4527">
      <path
         d="m 8645.72,16439.4 c -129.27,144.1 -236.22,312.7 -313.14,502.5 v 0 c 76.92,-189.8 183.87,-358.4 313.14,-502.5 m 3000.88,1149.7 c 0,94.8 -7.9,190.3 -24.1,285.6 16.2,-95.3 24.1,-190.8 24.1,-285.6"
         id="path4525" />
    </clipPath>
    <linearGradient
       x1="0"
       y1="0"
       x2="1"
       y2="0"
       gradientUnits="userSpaceOnUse"
       gradientTransform="matrix(0,2765.24,2765.24,0,10000.3,15577.7)"
       spreadMethod="pad"
       id="linearGradient4541">
      <stop
         style="stop-opacity:1;stop-color:#4c760c"
         offset="0"
         id="stop4531" />
      <stop
         style="stop-opacity:1;stop-color:#4c760c"
         offset="0.0723023"
         id="stop4533" />
      <stop
         style="stop-opacity:1;stop-color:#8dcc33"
         offset="0.5"
         id="stop4535" />
      <stop
         style="stop-opacity:1;stop-color:#39560c"
         offset="0.85994529"
         id="stop4537" />
      <stop
         style="stop-opacity:1;stop-color:#39560c"
         offset="1"
         id="stop4539" />
    </linearGradient>
    <clipPath
       clipPathUnits="userSpaceOnUse"
       id="clipPath4551">
      <path
         d="m 9926.98,15867.7 c -486.7,0 -955.09,208.1 -1281.26,571.7 -129.27,144.1 -236.22,312.7 -313.14,502.5 l 13.04,5.3 c 308.54,-551.2 889.84,-878.6 1500.28,-878.6 215,0 433.6,40.7 645.1,126.4 812.2,329.2 1235.7,1208.3 1016.2,2033.7 l 13,5.3 c 47.9,-118.2 81.8,-238.6 102.3,-359.3 16.2,-95.3 24.1,-190.8 24.1,-285.6 0.3,-679.9 -405.3,-1323.9 -1074.1,-1595 -211.7,-85.8 -430.4,-126.4 -645.52,-126.4"
         id="path4549" />
    </clipPath>
    <linearGradient
       x1="0"
       y1="0"
       x2="1"
       y2="0"
       gradientUnits="userSpaceOnUse"
       gradientTransform="matrix(0,2366.32,2366.32,0,9989.61,15867.7)"
       spreadMethod="pad"
       id="linearGradient4565">
      <stop
         style="stop-opacity:1;stop-color:#5e000c"
         offset="0"
         id="stop4555" />
      <stop
         style="stop-opacity:1;stop-color:#5e000c"
         offset="0.14005471"
         id="stop4557" />
      <stop
         style="stop-opacity:1;stop-color:#d52733"
         offset="0.5"
         id="stop4559" />
      <stop
         style="stop-opacity:1;stop-color:#7e000c"
         offset="0.9276977"
         id="stop4561" />
      <stop
         style="stop-opacity:1;stop-color:#7e000c"
         offset="1"
         id="stop4563" />
    </linearGradient>
    <clipPath
       clipPathUnits="userSpaceOnUse"
       id="clipPath4575">
      <path
         d="m 11830.1,18241.4 0.1,0.1 z m -82.2,203.1 h -0.1 l -268.7,-108.9 -3187.68,-1292.2 -268.69,-108.9 c -56.07,-22.8 -83.1,-86.6 -60.37,-142.7 439,-1083 1677.22,-1606.9 2760.14,-1167.9 1081.6,438.4 1605.5,1674 1169.7,2755.9 -0.5,1.4 -1.1,2.9 -1.7,4.3 -22.7,56.1 -86.5,83.2 -142.6,60.4 z m 41,-101.6 c 417,-1028.6 -78.9,-2200.5 -1107.5,-2617.5 -1028.64,-416.9 -2200.54,78.9 -2617.51,1107.5 l 268.69,109 3187.62,1292.1 268.7,108.9 m 0,0 0.2,0.1"
         id="path4573" />
    </clipPath>
    <linearGradient
       x1="0"
       y1="0"
       x2="1"
       y2="0"
       gradientUnits="userSpaceOnUse"
       gradientTransform="matrix(0,2983.95,2983.95,0,10000,15468.6)"
       spreadMethod="pad"
       id="linearGradient4589">
      <stop
         style="stop-opacity:1;stop-color:#be6d00"
         offset="0"
         id="stop4579" />
      <stop
         style="stop-opacity:1;stop-color:#fff57f"
         offset="0.25008721"
         id="stop4581" />
      <stop
         style="stop-opacity:1;stop-color:#fff57f"
         offset="0.433036"
         id="stop4583" />
      <stop
         style="stop-opacity:1;stop-color:#be6d00"
         offset="0.78897242"
         id="stop4585" />
      <stop
         style="stop-opacity:1;stop-color:#be6d00"
         offset="1"
         id="stop4587" />
    </linearGradient>
  </defs>
  <g
     inkscape:label="Layer 1"
     inkscape:groupmode="layer"
     id="layer1">
    <g
       id="g11498"
       transform="matrix(0.41116064,0,0,0.41116064,34.851707,81.918417)">
      <g
         id="g4473"
         transform="matrix(0.13333333,0,0,-0.13333333,-1137.9405,2322.6132)">
        <g
           id="g4475"
           clip-path="url(#clipPath4479)">
          <g
             id="g4481"
             transform="scale(1.12533)">
            <path
               d="m 8821.46,13842.7 c -705.72,0.1 -1374.26,421.2 -1655.68,1115.5 l 238.76,96.8 v 0 0 c 68.35,-168.7 163.39,-318.4 278.27,-446.5 289.84,-323.2 706.06,-508 1138.56,-508.1 191.16,0 385.5,36.1 573.62,112.4 594.31,240.9 954.71,813.2 954.51,1417.3 0,84.2 -7.1,169.1 -21.5,253.8 -18.2,107.3 -48.3,214.3 -90.9,319.3 l 238.8,96.8 c 370.6,-914.1 -70.1,-1955.4 -984.14,-2326 -219.84,-89.1 -446.89,-131.3 -670.3,-131.3"
               style="fill:url(#linearGradient4493);fill-opacity:1;fill-rule:nonzero;stroke:none"
               id="path4495" />
          </g>
        </g>
      </g>
      <g
         id="g4497"
         transform="matrix(0.13333333,0,0,-0.13333333,-1137.9405,2322.6132)">
        <g
           id="g4499"
           clip-path="url(#clipPath4503)">
          <g
             id="g4505"
             transform="scale(1.11865)">
            <path
               d="m 8874.05,14184.7 c -435.07,0 -853.78,186 -1145.35,511 291.57,-325 710.28,-511 1145.35,-511 192.31,0 387.81,36.3 577.06,113 597.89,242.3 960.39,818 960.19,1425.7 0.2,-607.7 -362.3,-1183.4 -960.19,-1425.7 -189.25,-76.7 -384.75,-113 -577.06,-113 m -72.47,179.6 c -545.7,0 -1065.34,292.6 -1341.15,785.3 l -11.66,-4.7 v 0 0 L 10298.3,16300 v 0 c 42.8,-105.7 73.1,-213.3 91.4,-321.2 -18.3,107.9 -48.6,215.5 -91.4,321.2 l -11.6,-4.7 c 196.2,-737.9 -182.4,-1523.7 -908.45,-1818 -189.07,-76.7 -384.48,-113 -576.67,-113"
               style="fill:url(#linearGradient4517);fill-opacity:1;fill-rule:nonzero;stroke:none"
               id="path4519" />
          </g>
        </g>
      </g>
      <g
         id="g4521"
         transform="matrix(0.13333333,0,0,-0.13333333,-1137.9405,2322.6132)">
        <g
           id="g4523"
           clip-path="url(#clipPath4527)">
          <g
             id="g4529"
             transform="scale(1.09661)">
            <path
               d="m 7884.08,14991.2 c -117.89,131.4 -215.42,285.1 -285.56,458.2 v 0 c 70.14,-173.1 167.67,-326.8 285.56,-458.2 m 2736.52,1048.4 c 0,86.4 -7.2,173.5 -22,260.4 14.8,-86.9 22,-174 22,-260.4"
               style="fill:url(#linearGradient4541);fill-opacity:1;fill-rule:nonzero;stroke:none"
               id="path4543" />
          </g>
        </g>
      </g>
      <g
         id="g4545"
         transform="matrix(0.13333333,0,0,-0.13333333,-1137.9405,2322.6132)">
        <g
           id="g4547"
           clip-path="url(#clipPath4551)">
          <g
             id="g4553"
             transform="scale(1.11865)">
            <path
               d="m 8874.06,14184.7 c -435.08,0 -853.79,186 -1145.36,511 -115.56,128.9 -211.17,279.6 -279.93,449.2 l 11.66,4.7 c 275.81,-492.7 795.46,-785.3 1341.15,-785.3 192.2,0 387.61,36.3 576.68,113 726.04,294.3 1104.64,1080.1 908.44,1818 l 11.6,4.7 c 42.8,-105.7 73.1,-213.3 91.4,-321.2 14.5,-85.2 21.6,-170.6 21.6,-255.3 0.3,-607.8 -362.3,-1183.5 -960.19,-1425.8 -189.24,-76.7 -384.75,-113 -577.05,-113"
               style="fill:url(#linearGradient4565);fill-opacity:1;fill-rule:nonzero;stroke:none"
               id="path4567" />
          </g>
        </g>
      </g>
      <g
         id="g4569"
         transform="matrix(0.13333333,0,0,-0.13333333,-1137.9405,2322.6132)">
        <g
           id="g4571"
           clip-path="url(#clipPath4575)">
          <g
             id="g4577"
             transform="scale(1.13209)">
            <path
               d="m 10449.8,16113.1 0.1,0.1 z m -72.6,179.4 h -0.1 l -237.3,-96.2 -2815.78,-1141.5 -237.34,-96.2 c -49.53,-20 -73.41,-76.5 -53.33,-126 387.78,-956.6 1481.54,-1419.4 2438.1,-1031.6 955.45,387.3 1418.15,1478.6 1033.25,2434.3 -0.5,1.3 -1,2.6 -1.5,3.9 -20.1,49.5 -76.4,73.4 -126,53.3 z m 36.2,-89.7 c 368.4,-908.6 -69.7,-1943.8 -978.25,-2312.1 -908.62,-368.3 -1943.79,69.7 -2312.11,978.3 l 237.34,96.2 2815.72,1141.4 237.3,96.2 m 0,0 h 0.2"
               style="fill:url(#linearGradient4589);fill-opacity:1;fill-rule:nonzero;stroke:none"
               id="path4591" />
          </g>
        </g>
      </g>
      <g
         id="g4593"
         transform="matrix(0.15131333,0,0,-0.15131333,-1137.9405,2322.6132)">
        <path
           d="m 10388.1,16300 c -17.6,0 -34.8,-3.4 -51.2,-10 l -236.9,-96.1 -2808.89,-1138.6 -236.76,-96 c -33.82,-13.7 -60.28,-39.7 -74.51,-73.4 -14.21,-33.6 -14.5,-70.7 -0.78,-104.5 145.31,-358.5 392.54,-660.5 714.94,-873.3 314.78,-207.8 679.66,-317.7 1055.2,-317.7 245.19,0 485.48,47.1 714.24,139.8 972.76,394.3 1444.96,1507 1052.86,2480.5 -0.1,0.4 -0.8,2.2 -1.5,4 -21.1,51.8 -70.8,85.3 -126.7,85.3 z m 0,-40.1 c 38.2,0 74.3,-22.8 89.5,-60.3 0.5,-1.3 1,-2.6 1.5,-3.8 384,-953.4 -77.7,-2042.1 -1030.73,-2428.4 -229.02,-92.9 -465.97,-136.9 -699.17,-136.9 -738.29,0 -1439.01,440.7 -1732.99,1165.9 -20.03,49.5 3.79,105.8 53.2,125.8 l 236.76,96 2808.93,1138.6 236.7,96 h 0.1 c 11.9,4.8 24.2,7.1 36.2,7.1"
           style="fill:#683600;fill-opacity:1;fill-rule:nonzero;stroke:none"
           id="path4595" />
      </g>
      <g
         id="g4597"
         transform="matrix(0.13882266,0,0,-0.13882266,-1137.9405,2322.6132)">
        <path
           d="m 8746.81,16196.2 c 26.04,-64.3 16.19,-129 -22.03,-144.5 -38.22,-15.5 -90.33,24.1 -116.39,88.4 -26.05,64.2 -16.19,128.9 22.03,144.4 38.22,15.5 90.33,-24.1 116.39,-88.3"
           style="fill:#1a1a1a;fill-opacity:1;fill-rule:nonzero;stroke:none"
           id="path4599" />
      </g>
      <g
         id="g4601"
         transform="matrix(0.135572,0,0,-0.135572,-1137.9405,2322.6132)">
        <path
           d="m 9669.98,16193.7 c 26.68,-65.8 16.58,-132.1 -22.55,-147.9 -39.13,-15.9 -92.48,24.6 -119.17,90.4 -26.68,65.8 -16.58,132.1 22.56,147.9 39.13,15.9 92.49,-24.6 119.16,-90.4"
           style="fill:#1a1a1a;fill-opacity:1;fill-rule:nonzero;stroke:none"
           id="path4603" />
      </g>
      <g
         id="g4605"
         transform="matrix(0.14091066,0,0,-0.14091066,-1137.9405,2322.6132)">
        <path
           d="m 9652.16,16197.7 c 25.74,-63.3 15.99,-127 -21.67,-142.3 -37.66,-15.2 -88.94,23.7 -114.68,87 -25.64,63.4 -15.9,127.1 21.77,142.3 37.66,15.3 88.94,-23.7 114.58,-87"
           style="fill:#1a1a1a;fill-opacity:1;fill-rule:nonzero;stroke:none"
           id="path4607" />
      </g>
      <g
         id="g4609"
         transform="matrix(0.14564266,0,0,-0.14564266,-1137.9405,2322.6132)">
        <path
           d="m 10088.2,16147.6 c 24.9,-61.3 74.5,-99 110.9,-84.2 36.5,14.7 45.9,76.4 21.1,137.6 -24.9,61.3 -74.5,99 -111,84.2 -36.4,-14.7 -45.8,-76.4 -21,-137.6"
           style="fill:#1a1a1a;fill-opacity:1;fill-rule:nonzero;stroke:none"
           id="path4611" />
      </g>
      <g
         id="g4613"
         transform="matrix(0.13917733,0,0,-0.13917733,-1137.9405,2322.6132)">
        <path
           d="m 10323.1,16140.5 c 26,-64.1 77.9,-103.6 116.1,-88.1 38.1,15.4 48,79.9 22,144 -26.1,64.1 -78,103.6 -116.1,88.1 -38.1,-15.4 -48,-79.9 -22,-144"
           style="fill:#1a1a1a;fill-opacity:1;fill-rule:nonzero;stroke:none"
           id="path4615" />
      </g>
      <g
         id="g4617"
         transform="matrix(0.15068666,0,0,-0.15068666,-1137.9405,2322.6132)">
        <path
           d="m 10498.6,16186.4 v 0 c -53.8,-17.6 -96.1,-59.8 -113.6,-113.7 -17.6,53.9 -59.8,96.1 -113.7,113.7 53.9,17.5 96.1,59.7 113.7,113.6 17.5,-53.9 59.8,-96.1 113.6,-113.6"
           style="fill:#ffffff;fill-opacity:1;fill-rule:nonzero;stroke:none"
           id="path4619" />
      </g>
      <g
         id="g4621"
         transform="matrix(0.14858533,0,0,-0.14858533,-1137.9405,2322.6132)">
        <path
           d="m 10466.7,16220.3 v 0 c -37.8,-12.3 -67.4,-41.9 -79.7,-79.7 -12.3,37.8 -42,67.4 -79.7,79.7 37.7,12.3 67.4,41.9 79.7,79.7 12.3,-37.8 41.9,-67.4 79.7,-79.7"
           style="fill:#ffffff;fill-opacity:1;fill-rule:nonzero;stroke:none"
           id="path4623" />
      </g>
    </g>
  </g>
</svg>
